M48
; DRILL file {KiCad 8.0.4} date 2024-08-09T20:43:13+0300
; FORMAT={-:-/ absolute / metric / decimal}
; #@! TF.CreationDate,2024-08-09T20:43:13+03:00
; #@! TF.GenerationSoftware,Kicad,Pcbnew,8.0.4
; #@! TF.FileFunction,Plated,1,2,PTH
FMAT,2
METRIC
; #@! TA.AperFunction,Plated,PTH,ViaDrill
T1C0.300
; #@! TA.AperFunction,Plated,PTH,ComponentDrill
T2C0.800
; #@! TA.AperFunction,Plated,PTH,ComponentDrill
T3C1.000
; #@! TA.AperFunction,Plated,PTH,ComponentDrill
T4C1.092
%
G90
G05
T1
X100.2Y-81.9
X102.3Y-84.2
X102.5Y-81.0
X112.25Y-79.5
X124.25Y-85.75
X141.5Y-90.1
X143.5Y-96.5
X144.25Y-77.5
X145.5Y-97.5
X153.7Y-97.7
X157.8Y-89.7
X158.8Y-97.8
X159.3Y-91.9
X165.4Y-94.3
X167.5Y-85.1
X171.5Y-95.3
X172.9Y-79.5
T2
X100.09Y-86.295
X100.09Y-88.835
X100.09Y-91.375
X100.09Y-93.915
X100.09Y-96.455
X100.09Y-98.995
X100.09Y-101.535
X103.34Y-104.91
X104.47Y-77.54
X104.47Y-82.54
X107.71Y-86.295
X107.71Y-88.835
X107.71Y-91.375
X107.71Y-93.915
X107.71Y-96.455
X107.71Y-98.995
X107.71Y-101.535
X108.34Y-104.91
X125.84Y-75.74
X136.0Y-75.74
X163.81Y-76.0
X168.81Y-76.0
X185.87Y-96.8
X185.87Y-101.8
X190.32Y-86.76
X190.32Y-91.76
T3
X96.97Y-91.4
X96.97Y-93.94
X96.97Y-96.48
X96.97Y-99.02
X111.81Y-93.84
X111.81Y-96.38
X111.81Y-98.92
X111.81Y-101.46
X111.81Y-104.0
X111.81Y-106.54
X116.5Y-75.81
X118.82Y-99.29
X118.82Y-101.83
X119.04Y-75.81
X121.36Y-99.29
X121.36Y-101.83
X121.58Y-75.81
X123.9Y-99.29
X123.9Y-101.83
X126.44Y-99.29
X126.44Y-101.83
X128.98Y-99.29
X128.98Y-101.83
X131.52Y-99.29
X131.52Y-101.83
X134.06Y-99.29
X134.06Y-101.83
X136.6Y-99.29
X136.6Y-101.83
X139.14Y-99.29
X139.14Y-101.83
X140.305Y-75.67
X141.4Y-93.0
X141.4Y-95.54
X141.68Y-99.29
X141.68Y-101.83
X142.845Y-75.67
X144.22Y-99.29
X144.22Y-101.83
X145.385Y-75.67
X146.75Y-93.0
X146.75Y-95.54
X146.76Y-99.29
X146.76Y-101.83
X149.3Y-99.29
X149.3Y-101.83
X150.11Y-75.64
X151.84Y-99.29
X151.84Y-101.83
X152.0Y-93.0
X152.0Y-95.54
X152.65Y-75.64
X154.38Y-99.29
X154.38Y-101.83
X156.92Y-99.29
X156.92Y-101.83
X157.0Y-93.0
X157.0Y-95.54
X157.93Y-75.71
X159.46Y-99.29
X159.46Y-101.83
X160.47Y-75.71
X162.0Y-99.29
X162.0Y-101.83
X162.5Y-93.0
X162.5Y-95.54
X164.54Y-99.29
X164.54Y-101.83
X167.08Y-99.29
X167.08Y-101.83
X168.0Y-93.0
X168.0Y-95.54
X169.62Y-99.29
X169.62Y-101.83
X172.16Y-99.29
X172.16Y-101.83
X172.32Y-75.83
X173.75Y-93.0
X173.75Y-95.54
X174.7Y-99.29
X174.7Y-101.83
X174.86Y-75.83
X177.24Y-99.29
X177.24Y-101.83
X179.5Y-93.0
X179.5Y-95.54
X179.78Y-99.29
X179.78Y-101.83
X190.1Y-98.1
X190.1Y-100.64
T4
X118.69Y-82.76
X118.69Y-87.84
X121.23Y-82.76
X121.23Y-87.84
X123.77Y-82.76
X123.77Y-87.84
X126.31Y-82.76
X126.31Y-87.84
X128.85Y-82.76
X128.85Y-87.84
X131.39Y-82.76
X131.39Y-87.84
X133.93Y-82.76
X133.93Y-87.84
X136.47Y-82.76
X136.47Y-87.84
X139.01Y-82.76
X139.01Y-87.84
X141.55Y-82.76
X141.55Y-87.84
X144.09Y-82.76
X144.09Y-87.84
X146.63Y-82.76
X146.63Y-87.84
X149.17Y-82.76
X149.17Y-87.84
X151.71Y-82.76
X151.71Y-87.84
X154.25Y-82.76
X154.25Y-87.84
X156.79Y-82.76
X156.79Y-87.84
X159.33Y-82.76
X159.33Y-87.84
X161.87Y-82.76
X161.87Y-87.84
X164.41Y-82.76
X164.41Y-87.84
X166.95Y-82.76
X166.95Y-87.84
X169.49Y-82.76
X169.49Y-87.84
X172.03Y-82.76
X172.03Y-87.84
X174.57Y-82.76
X174.57Y-87.84
X177.11Y-82.76
X177.11Y-87.84
X179.65Y-82.76
X179.65Y-87.84
M30
