G04 #@! TF.GenerationSoftware,KiCad,Pcbnew,8.0.4*
G04 #@! TF.CreationDate,2024-08-09T20:42:01+03:00*
G04 #@! TF.ProjectId,mpf-ii-bus-adapter,6d70662d-6969-42d6-9275-732d61646170,A*
G04 #@! TF.SameCoordinates,Original*
G04 #@! TF.FileFunction,Copper,L1,Top*
G04 #@! TF.FilePolarity,Positive*
%FSLAX46Y46*%
G04 Gerber Fmt 4.6, Leading zero omitted, Abs format (unit mm)*
G04 Created by KiCad (PCBNEW 8.0.4) date 2024-08-09 20:42:01*
%MOMM*%
%LPD*%
G01*
G04 APERTURE LIST*
G04 Aperture macros list*
%AMRoundRect*
0 Rectangle with rounded corners*
0 $1 Rounding radius*
0 $2 $3 $4 $5 $6 $7 $8 $9 X,Y pos of 4 corners*
0 Add a 4 corners polygon primitive as box body*
4,1,4,$2,$3,$4,$5,$6,$7,$8,$9,$2,$3,0*
0 Add four circle primitives for the rounded corners*
1,1,$1+$1,$2,$3*
1,1,$1+$1,$4,$5*
1,1,$1+$1,$6,$7*
1,1,$1+$1,$8,$9*
0 Add four rect primitives between the rounded corners*
20,1,$1+$1,$2,$3,$4,$5,0*
20,1,$1+$1,$4,$5,$6,$7,0*
20,1,$1+$1,$6,$7,$8,$9,0*
20,1,$1+$1,$8,$9,$2,$3,0*%
G04 Aperture macros list end*
G04 #@! TA.AperFunction,ComponentPad*
%ADD10R,1.700000X1.700000*%
G04 #@! TD*
G04 #@! TA.AperFunction,ComponentPad*
%ADD11O,1.700000X1.700000*%
G04 #@! TD*
G04 #@! TA.AperFunction,ComponentPad*
%ADD12C,1.600000*%
G04 #@! TD*
G04 #@! TA.AperFunction,ComponentPad*
%ADD13R,1.800000X1.800000*%
G04 #@! TD*
G04 #@! TA.AperFunction,ComponentPad*
%ADD14C,1.800000*%
G04 #@! TD*
G04 #@! TA.AperFunction,ComponentPad*
%ADD15O,1.600000X1.600000*%
G04 #@! TD*
G04 #@! TA.AperFunction,ComponentPad*
%ADD16R,1.600000X1.600000*%
G04 #@! TD*
G04 #@! TA.AperFunction,ConnectorPad*
%ADD17RoundRect,0.350000X0.350000X3.206000X-0.350000X3.206000X-0.350000X-3.206000X0.350000X-3.206000X0*%
G04 #@! TD*
G04 #@! TA.AperFunction,ConnectorPad*
%ADD18RoundRect,0.235000X0.235000X3.321000X-0.235000X3.321000X-0.235000X-3.321000X0.235000X-3.321000X0*%
G04 #@! TD*
G04 #@! TA.AperFunction,ConnectorPad*
%ADD19RoundRect,0.250000X0.250000X3.306000X-0.250000X3.306000X-0.250000X-3.306000X0.250000X-3.306000X0*%
G04 #@! TD*
G04 #@! TA.AperFunction,ViaPad*
%ADD20C,0.600000*%
G04 #@! TD*
G04 #@! TA.AperFunction,Conductor*
%ADD21C,0.600000*%
G04 #@! TD*
G04 #@! TA.AperFunction,Conductor*
%ADD22C,0.700000*%
G04 #@! TD*
G04 #@! TA.AperFunction,Conductor*
%ADD23C,0.200000*%
G04 #@! TD*
G04 #@! TA.AperFunction,Conductor*
%ADD24C,0.400000*%
G04 #@! TD*
G04 APERTURE END LIST*
D10*
X116500000Y-75810000D03*
D11*
X119040000Y-75810000D03*
X121580000Y-75810000D03*
D10*
X150110000Y-75640000D03*
D11*
X152650000Y-75640000D03*
D12*
X185870000Y-101800000D03*
X185870000Y-96800000D03*
X168810000Y-76000000D03*
X163810000Y-76000000D03*
X104470000Y-77540000D03*
X104470000Y-82540000D03*
D10*
X141400000Y-93000000D03*
D11*
X141400000Y-95540000D03*
D10*
X111810000Y-93840000D03*
D11*
X111810000Y-96380000D03*
X111810000Y-98920000D03*
X111810000Y-101460000D03*
X111810000Y-104000000D03*
X111810000Y-106540000D03*
D10*
X157000000Y-93000000D03*
D11*
X157000000Y-95540000D03*
D10*
X162500000Y-93000000D03*
D11*
X162500000Y-95540000D03*
D10*
X157930000Y-75710000D03*
D11*
X160470000Y-75710000D03*
D13*
X118690000Y-87840000D03*
D14*
X121230000Y-87840000D03*
X123770000Y-87840000D03*
X126310000Y-87840000D03*
X128850000Y-87840000D03*
X131390000Y-87840000D03*
X133930000Y-87840000D03*
X136470000Y-87840000D03*
X139010000Y-87840000D03*
X141550000Y-87840000D03*
X144090000Y-87840000D03*
X146630000Y-87840000D03*
X149170000Y-87840000D03*
X151710000Y-87840000D03*
X154250000Y-87840000D03*
X156790000Y-87840000D03*
X159330000Y-87840000D03*
X161870000Y-87840000D03*
X164410000Y-87840000D03*
X166950000Y-87840000D03*
X169490000Y-87840000D03*
X172030000Y-87840000D03*
X174570000Y-87840000D03*
X177110000Y-87840000D03*
X179650000Y-87840000D03*
X179650000Y-82760000D03*
X177110000Y-82760000D03*
X174570000Y-82760000D03*
X172030000Y-82760000D03*
X169490000Y-82760000D03*
X166950000Y-82760000D03*
X164410000Y-82760000D03*
X161870000Y-82760000D03*
X159330000Y-82760000D03*
X156790000Y-82760000D03*
X154250000Y-82760000D03*
X151710000Y-82760000D03*
X149170000Y-82760000D03*
X146630000Y-82760000D03*
X144090000Y-82760000D03*
X141550000Y-82760000D03*
X139010000Y-82760000D03*
X136470000Y-82760000D03*
X133930000Y-82760000D03*
X131390000Y-82760000D03*
X128850000Y-82760000D03*
X126310000Y-82760000D03*
X123770000Y-82760000D03*
X121230000Y-82760000D03*
X118690000Y-82760000D03*
D12*
X108340000Y-104910000D03*
X103340000Y-104910000D03*
D10*
X118820000Y-101830000D03*
D11*
X118820000Y-99290000D03*
X121360000Y-101830000D03*
X121360000Y-99290000D03*
X123900000Y-101830000D03*
X123900000Y-99290000D03*
X126440000Y-101830000D03*
X126440000Y-99290000D03*
X128980000Y-101830000D03*
X128980000Y-99290000D03*
X131520000Y-101830000D03*
X131520000Y-99290000D03*
X134060000Y-101830000D03*
X134060000Y-99290000D03*
X136600000Y-101830000D03*
X136600000Y-99290000D03*
X139140000Y-101830000D03*
X139140000Y-99290000D03*
X141680000Y-101830000D03*
X141680000Y-99290000D03*
X144220000Y-101830000D03*
X144220000Y-99290000D03*
X146760000Y-101830000D03*
X146760000Y-99290000D03*
X149300000Y-101830000D03*
X149300000Y-99290000D03*
X151840000Y-101830000D03*
X151840000Y-99290000D03*
X154380000Y-101830000D03*
X154380000Y-99290000D03*
X156920000Y-101830000D03*
X156920000Y-99290000D03*
X159460000Y-101830000D03*
X159460000Y-99290000D03*
X162000000Y-101830000D03*
X162000000Y-99290000D03*
X164540000Y-101830000D03*
X164540000Y-99290000D03*
X167080000Y-101830000D03*
X167080000Y-99290000D03*
X169620000Y-101830000D03*
X169620000Y-99290000D03*
X172160000Y-101830000D03*
X172160000Y-99290000D03*
X174700000Y-101830000D03*
X174700000Y-99290000D03*
X177240000Y-101830000D03*
X177240000Y-99290000D03*
X179780000Y-101830000D03*
X179780000Y-99290000D03*
D10*
X96970000Y-91400000D03*
D11*
X96970000Y-93940000D03*
X96970000Y-96480000D03*
X96970000Y-99020000D03*
D10*
X140305000Y-75670000D03*
D11*
X142845000Y-75670000D03*
X145385000Y-75670000D03*
D10*
X152000000Y-93000000D03*
D11*
X152000000Y-95540000D03*
D10*
X179500000Y-93000000D03*
D11*
X179500000Y-95540000D03*
D10*
X190100000Y-100640000D03*
D11*
X190100000Y-98100000D03*
D12*
X190320000Y-91760000D03*
X190320000Y-86760000D03*
D10*
X173750000Y-93000000D03*
D11*
X173750000Y-95540000D03*
D10*
X146750000Y-93000000D03*
D11*
X146750000Y-95540000D03*
D12*
X136000000Y-75740000D03*
D15*
X125840000Y-75740000D03*
D10*
X168000000Y-93000000D03*
D11*
X168000000Y-95540000D03*
D10*
X174860000Y-75830000D03*
D11*
X172320000Y-75830000D03*
D16*
X100090000Y-86295000D03*
D15*
X100090000Y-88835000D03*
X100090000Y-91375000D03*
X100090000Y-93915000D03*
X100090000Y-96455000D03*
X100090000Y-98995000D03*
X100090000Y-101535000D03*
X107710000Y-101535000D03*
X107710000Y-98995000D03*
X107710000Y-96455000D03*
X107710000Y-93915000D03*
X107710000Y-91375000D03*
X107710000Y-88835000D03*
X107710000Y-86295000D03*
D17*
X118980000Y-116000000D03*
X121520000Y-116000000D03*
X124060000Y-116000000D03*
X126600000Y-116000000D03*
X129140000Y-116000000D03*
X131680000Y-116000000D03*
X134220000Y-116000000D03*
X136760000Y-116000000D03*
X139300000Y-116000000D03*
X141840000Y-116000000D03*
X144380000Y-116000000D03*
X146920000Y-116000000D03*
X149460000Y-116000000D03*
X152000000Y-116000000D03*
X154540000Y-116000000D03*
X157080000Y-116000000D03*
X159620000Y-116000000D03*
X162160000Y-116000000D03*
X164700000Y-116000000D03*
X167240000Y-116000000D03*
X169780000Y-116000000D03*
D18*
X172090000Y-116000000D03*
D19*
X175060000Y-116000000D03*
D17*
X177400000Y-116000000D03*
X179940000Y-116000000D03*
D20*
X102500000Y-81000000D03*
X102300000Y-84200000D03*
X100200000Y-81900000D03*
X159300000Y-91900000D03*
X158800000Y-97800000D03*
X172900000Y-79500000D03*
X171500000Y-95300000D03*
X165400000Y-94300000D03*
X153700000Y-97700000D03*
X143500000Y-96500000D03*
X112250000Y-79500000D03*
X145500000Y-97500000D03*
X141500000Y-90100000D03*
X144250000Y-77500000D03*
X167500000Y-85100000D03*
X157800000Y-89700000D03*
X124250000Y-85750000D03*
D21*
X108340000Y-104910000D02*
X107160000Y-104910000D01*
D22*
X179780000Y-101830000D02*
X179780000Y-115840000D01*
X184460000Y-78650000D02*
X168860000Y-78650000D01*
X182700000Y-100360000D02*
X184140000Y-101800000D01*
X187600000Y-101800000D02*
X188760000Y-100640000D01*
X111150000Y-78650000D02*
X111100000Y-78600000D01*
X107710000Y-81990000D02*
X107710000Y-86295000D01*
X185690000Y-79880000D02*
X184460000Y-78650000D01*
D23*
X179780000Y-115840000D02*
X179940000Y-116000000D01*
D22*
X187870000Y-90020000D02*
X188580000Y-90020000D01*
X182700000Y-100360000D02*
X182700000Y-95190000D01*
X182700000Y-95190000D02*
X187870000Y-90020000D01*
X185690000Y-87840000D02*
X185690000Y-79880000D01*
X104470000Y-77540000D02*
X104470000Y-78750000D01*
X179650000Y-87840000D02*
X185690000Y-87840000D01*
D21*
X125840000Y-75740000D02*
X125840000Y-78560000D01*
D22*
X168860000Y-78650000D02*
X125750000Y-78650000D01*
X179780000Y-101830000D02*
X181230000Y-101830000D01*
X185870000Y-101800000D02*
X187600000Y-101800000D01*
D21*
X106000000Y-103750000D02*
X106000000Y-88005000D01*
X107160000Y-104910000D02*
X106000000Y-103750000D01*
D22*
X185690000Y-87840000D02*
X187870000Y-90020000D01*
X111100000Y-78600000D02*
X107710000Y-81990000D01*
D23*
X168810000Y-78600000D02*
X168860000Y-78650000D01*
D21*
X106000000Y-88005000D02*
X107710000Y-86295000D01*
D22*
X188580000Y-90020000D02*
X190320000Y-91760000D01*
D23*
X125840000Y-78560000D02*
X125750000Y-78650000D01*
D22*
X181230000Y-101830000D02*
X182700000Y-100360000D01*
X168810000Y-76000000D02*
X168810000Y-78600000D01*
X125750000Y-78650000D02*
X111150000Y-78650000D01*
X104470000Y-78750000D02*
X107710000Y-81990000D01*
X184140000Y-101800000D02*
X185870000Y-101800000D01*
X188760000Y-100640000D02*
X190100000Y-100640000D01*
D23*
X100300000Y-82000000D02*
X100300000Y-82200000D01*
X103340000Y-103610000D02*
X101265000Y-101535000D01*
X104470000Y-99280000D02*
X104470000Y-82540000D01*
X102750000Y-81250000D02*
X103180000Y-81250000D01*
X102500000Y-81000000D02*
X102750000Y-81250000D01*
X100090000Y-101535000D02*
X102215000Y-101535000D01*
X103180000Y-81250000D02*
X104470000Y-82540000D01*
X101265000Y-101535000D02*
X100090000Y-101535000D01*
X100200000Y-81900000D02*
X100300000Y-82000000D01*
X102215000Y-101535000D02*
X104470000Y-99280000D01*
X103340000Y-104910000D02*
X103340000Y-103610000D01*
X100300000Y-82200000D02*
X102300000Y-84200000D01*
X164540000Y-115840000D02*
X164700000Y-116000000D01*
D24*
X164540000Y-101830000D02*
X164540000Y-115840000D01*
D23*
X146750000Y-95540000D02*
X148210000Y-97000000D01*
X160850000Y-98450000D02*
X160850000Y-100050000D01*
X160850000Y-100050000D02*
X161480000Y-100680000D01*
X148210000Y-97000000D02*
X159400000Y-97000000D01*
X163390000Y-100680000D02*
X164540000Y-101830000D01*
X161480000Y-100680000D02*
X163390000Y-100680000D01*
X159400000Y-97000000D02*
X160850000Y-98450000D01*
X145370000Y-98370000D02*
X144750000Y-97750000D01*
X144750000Y-97750000D02*
X144750000Y-95500000D01*
X144220000Y-115840000D02*
X144380000Y-116000000D01*
X144090000Y-94840000D02*
X144090000Y-87840000D01*
D24*
X144220000Y-101830000D02*
X144220000Y-115840000D01*
D23*
X144220000Y-101830000D02*
X145370000Y-100680000D01*
X144750000Y-95500000D02*
X144090000Y-94840000D01*
X145370000Y-100680000D02*
X145370000Y-98370000D01*
D24*
X162000000Y-101830000D02*
X162000000Y-115840000D01*
D23*
X162000000Y-115840000D02*
X162160000Y-116000000D01*
D24*
X136600000Y-101830000D02*
X136600000Y-115840000D01*
D23*
X136600000Y-115840000D02*
X136760000Y-116000000D01*
X159300000Y-91600000D02*
X160800000Y-90100000D01*
X168200000Y-82352943D02*
X169252943Y-81300000D01*
D24*
X156920000Y-99290000D02*
X157310000Y-99290000D01*
D23*
X159300000Y-91900000D02*
X159300000Y-91600000D01*
X166800000Y-90100000D02*
X168200000Y-88700000D01*
X169300000Y-81300000D02*
X171100000Y-79500000D01*
X168200000Y-88700000D02*
X168200000Y-82352943D01*
X171100000Y-79500000D02*
X172900000Y-79500000D01*
X169252943Y-81300000D02*
X169300000Y-81300000D01*
X157310000Y-99290000D02*
X158800000Y-97800000D01*
X160800000Y-90100000D02*
X166800000Y-90100000D01*
X139140000Y-115840000D02*
X139300000Y-116000000D01*
D24*
X139140000Y-101830000D02*
X139140000Y-115840000D01*
X123900000Y-101830000D02*
X123900000Y-115840000D01*
D23*
X123900000Y-115840000D02*
X124060000Y-116000000D01*
D24*
X141680000Y-101830000D02*
X141680000Y-115840000D01*
D23*
X141680000Y-115840000D02*
X141840000Y-116000000D01*
X167150000Y-94150000D02*
X163900000Y-97400000D01*
X163900000Y-97400000D02*
X161400000Y-97400000D01*
X172160000Y-99290000D02*
X172160000Y-97460000D01*
X169750000Y-94150000D02*
X167150000Y-94150000D01*
X170600000Y-95900000D02*
X170600000Y-95000000D01*
X172160000Y-97460000D02*
X170600000Y-95900000D01*
X170600000Y-95000000D02*
X169750000Y-94150000D01*
X159540000Y-95540000D02*
X157000000Y-95540000D01*
X161400000Y-97400000D02*
X159540000Y-95540000D01*
D24*
X128980000Y-101830000D02*
X128980000Y-115840000D01*
D23*
X128980000Y-115840000D02*
X129140000Y-116000000D01*
D24*
X151840000Y-101830000D02*
X151840000Y-115840000D01*
D23*
X151840000Y-115840000D02*
X152000000Y-116000000D01*
X169620000Y-115840000D02*
X169780000Y-116000000D01*
D24*
X169620000Y-101830000D02*
X169620000Y-115840000D01*
D23*
X169340000Y-95540000D02*
X170900000Y-97100000D01*
X168000000Y-95540000D02*
X169340000Y-95540000D01*
X170900000Y-97100000D02*
X170900000Y-100570000D01*
X172160000Y-101830000D02*
X172160000Y-111560000D01*
X172160000Y-111560000D02*
X172060000Y-111660000D01*
X172060000Y-116000000D02*
X172060000Y-111660000D01*
X170900000Y-100570000D02*
X172160000Y-101830000D01*
X172160000Y-101830000D02*
X172060000Y-101930000D01*
D24*
X177240000Y-101830000D02*
X177240000Y-115840000D01*
D23*
X177240000Y-115840000D02*
X177400000Y-116000000D01*
X154380000Y-115840000D02*
X154540000Y-116000000D01*
D24*
X154380000Y-101830000D02*
X154380000Y-115840000D01*
D23*
X177300000Y-94700000D02*
X176990000Y-94390000D01*
X172410000Y-94390000D02*
X171500000Y-95300000D01*
X178140000Y-95540000D02*
X177300000Y-94700000D01*
X179500000Y-95540000D02*
X178140000Y-95540000D01*
X176990000Y-94390000D02*
X172410000Y-94390000D01*
X149300000Y-115840000D02*
X149460000Y-116000000D01*
D24*
X149300000Y-101830000D02*
X149300000Y-115840000D01*
X156920000Y-101830000D02*
X156920000Y-115840000D01*
D23*
X156920000Y-115840000D02*
X157080000Y-116000000D01*
X134060000Y-115840000D02*
X134220000Y-116000000D01*
D24*
X134060000Y-101830000D02*
X134060000Y-115840000D01*
X131520000Y-101830000D02*
X131520000Y-115840000D01*
D23*
X131520000Y-115840000D02*
X131680000Y-116000000D01*
X165400000Y-94300000D02*
X153200000Y-94300000D01*
X152000000Y-93100000D02*
X152000000Y-93000000D01*
X153200000Y-94300000D02*
X152000000Y-93100000D01*
X167080000Y-115840000D02*
X167240000Y-116000000D01*
X167240000Y-113265000D02*
X167240000Y-116000000D01*
D24*
X167080000Y-101830000D02*
X167080000Y-115840000D01*
D23*
X152110000Y-99290000D02*
X153700000Y-97700000D01*
D24*
X151840000Y-99290000D02*
X152110000Y-99290000D01*
D23*
X175060000Y-102190000D02*
X175060000Y-116000000D01*
X174700000Y-101830000D02*
X175060000Y-102190000D01*
X146760000Y-115840000D02*
X146920000Y-116000000D01*
D24*
X146760000Y-101830000D02*
X146760000Y-115840000D01*
D23*
X143500000Y-96500000D02*
X143500000Y-97470000D01*
X143500000Y-97470000D02*
X141680000Y-99290000D01*
X149170000Y-80580000D02*
X149170000Y-82760000D01*
X112250000Y-79500000D02*
X148090000Y-79500000D01*
X148090000Y-79500000D02*
X149170000Y-80580000D01*
D24*
X118820000Y-101830000D02*
X118820000Y-115840000D01*
D23*
X118820000Y-115840000D02*
X118980000Y-116000000D01*
X119500000Y-115480000D02*
X118980000Y-116000000D01*
X126440000Y-115840000D02*
X126600000Y-116000000D01*
D24*
X126440000Y-101830000D02*
X126440000Y-115840000D01*
D23*
X121360000Y-115840000D02*
X121520000Y-116000000D01*
D24*
X121360000Y-101830000D02*
X121360000Y-115840000D01*
D23*
X121520000Y-112645000D02*
X121520000Y-116000000D01*
X148000000Y-99900000D02*
X148540000Y-100440000D01*
X147000000Y-97500000D02*
X148000000Y-98500000D01*
X148540000Y-100440000D02*
X153230000Y-100440000D01*
X148000000Y-98500000D02*
X148000000Y-99900000D01*
X153230000Y-100440000D02*
X154380000Y-99290000D01*
X145500000Y-97500000D02*
X147000000Y-97500000D01*
D24*
X159460000Y-101830000D02*
X159460000Y-115840000D01*
D23*
X159460000Y-115840000D02*
X159620000Y-116000000D01*
X163210000Y-86640000D02*
X164410000Y-87840000D01*
X146750000Y-89850000D02*
X147970000Y-88630000D01*
X148660000Y-86640000D02*
X163210000Y-86640000D01*
X147970000Y-87330000D02*
X148660000Y-86640000D01*
X147970000Y-88630000D02*
X147970000Y-87330000D01*
X146750000Y-93000000D02*
X146750000Y-89850000D01*
X142750000Y-87000000D02*
X145250000Y-84500000D01*
X141500000Y-90000000D02*
X142750000Y-88750000D01*
X145250000Y-84500000D02*
X152510000Y-84500000D01*
X141500000Y-90000000D02*
X141500000Y-90100000D01*
X152510000Y-84500000D02*
X154250000Y-82760000D01*
X142750000Y-88750000D02*
X142750000Y-87000000D01*
X144235000Y-74985000D02*
X142750000Y-73500000D01*
X144235000Y-77485000D02*
X144235000Y-74985000D01*
X121350000Y-73500000D02*
X119040000Y-75810000D01*
X144250000Y-77500000D02*
X144235000Y-77485000D01*
X142750000Y-73500000D02*
X121350000Y-73500000D01*
X166950000Y-89150000D02*
X166950000Y-87840000D01*
X150200000Y-93740000D02*
X150200000Y-92400000D01*
X160500000Y-89700000D02*
X166400000Y-89700000D01*
X151500000Y-91100000D02*
X159100000Y-91100000D01*
X150200000Y-92400000D02*
X151500000Y-91100000D01*
X152000000Y-95540000D02*
X150200000Y-93740000D01*
X166400000Y-89700000D02*
X166950000Y-89150000D01*
X159100000Y-91100000D02*
X160500000Y-89700000D01*
X158400000Y-89100000D02*
X165000000Y-89100000D01*
X157800000Y-89700000D02*
X158400000Y-89100000D01*
X165750000Y-86850000D02*
X166000000Y-86600000D01*
X166000000Y-86600000D02*
X167500000Y-85100000D01*
X165750000Y-88350000D02*
X165750000Y-86850000D01*
X165000000Y-89100000D02*
X165750000Y-88350000D01*
X179500000Y-93000000D02*
X175800000Y-89300000D01*
X170600000Y-84500000D02*
X169490000Y-83390000D01*
X175800000Y-89300000D02*
X175800000Y-86900000D01*
X173400000Y-84500000D02*
X170600000Y-84500000D01*
X175800000Y-86900000D02*
X173400000Y-84500000D01*
X169490000Y-83390000D02*
X169490000Y-82760000D01*
X124250000Y-85750000D02*
X125000000Y-86500000D01*
X125000000Y-86500000D02*
X125000000Y-89000000D01*
X142410000Y-94150000D02*
X144220000Y-95960000D01*
X139400000Y-94150000D02*
X142410000Y-94150000D01*
X125000000Y-89000000D02*
X128250000Y-92250000D01*
X137500000Y-92250000D02*
X139400000Y-94150000D01*
X144220000Y-95960000D02*
X144220000Y-99290000D01*
X128250000Y-92250000D02*
X137500000Y-92250000D01*
X168000000Y-91870000D02*
X172030000Y-87840000D01*
X168000000Y-93000000D02*
X168000000Y-91870000D01*
X100065000Y-91400000D02*
X100090000Y-91375000D01*
X96970000Y-91400000D02*
X100065000Y-91400000D01*
X111810000Y-92935000D02*
X111810000Y-93840000D01*
X107710000Y-88835000D02*
X111810000Y-92935000D01*
X100090000Y-93915000D02*
X96995000Y-93915000D01*
X96995000Y-93915000D02*
X96970000Y-93940000D01*
X96995000Y-96455000D02*
X96970000Y-96480000D01*
X100090000Y-96455000D02*
X96995000Y-96455000D01*
X96995000Y-98995000D02*
X96970000Y-99020000D01*
X100090000Y-98995000D02*
X96995000Y-98995000D01*
X108785000Y-98995000D02*
X107710000Y-98995000D01*
X109370000Y-99580000D02*
X108785000Y-98995000D01*
X110240000Y-102430000D02*
X110240000Y-101480000D01*
X109370000Y-100610000D02*
X109370000Y-99580000D01*
X111810000Y-104000000D02*
X110240000Y-102430000D01*
X110240000Y-101480000D02*
X109370000Y-100610000D01*
X109650000Y-102290000D02*
X108895000Y-101535000D01*
X109650000Y-103620000D02*
X109650000Y-102290000D01*
X108895000Y-101535000D02*
X107710000Y-101535000D01*
X111810000Y-106540000D02*
X110240000Y-104970000D01*
X110240000Y-104210000D02*
X109650000Y-103620000D01*
X110240000Y-104970000D02*
X110240000Y-104210000D01*
X108725000Y-93915000D02*
X107710000Y-93915000D01*
X109390000Y-96500000D02*
X109390000Y-94580000D01*
X111810000Y-98920000D02*
X109390000Y-96500000D01*
X109390000Y-94580000D02*
X108725000Y-93915000D01*
X111810000Y-96380000D02*
X110620000Y-96380000D01*
X108775000Y-91375000D02*
X107710000Y-91375000D01*
X109860000Y-92460000D02*
X108775000Y-91375000D01*
X109860000Y-95620000D02*
X109860000Y-92460000D01*
X110620000Y-96380000D02*
X109860000Y-95620000D01*
X111810000Y-101460000D02*
X109830000Y-99480000D01*
X108485000Y-96455000D02*
X107710000Y-96455000D01*
X109830000Y-97800000D02*
X108485000Y-96455000D01*
X109830000Y-99480000D02*
X109830000Y-97800000D01*
G04 #@! TA.AperFunction,Conductor*
G36*
X192442539Y-72020185D02*
G01*
X192488294Y-72072989D01*
X192499500Y-72124500D01*
X192499500Y-75341198D01*
X192479815Y-75408237D01*
X192427011Y-75453992D01*
X192357853Y-75463936D01*
X192294297Y-75434911D01*
X192272317Y-75408902D01*
X192272013Y-75409117D01*
X192103798Y-75170810D01*
X191990280Y-75049262D01*
X191907587Y-74960720D01*
X191907585Y-74960719D01*
X191907583Y-74960716D01*
X191684595Y-74779302D01*
X191438983Y-74629942D01*
X191438979Y-74629940D01*
X191175324Y-74515420D01*
X190898522Y-74437863D01*
X190898518Y-74437862D01*
X190898517Y-74437862D01*
X190656767Y-74404634D01*
X190613733Y-74398719D01*
X190613732Y-74398719D01*
X190326268Y-74398719D01*
X190326267Y-74398719D01*
X190041483Y-74437862D01*
X190041477Y-74437863D01*
X189764675Y-74515420D01*
X189501020Y-74629940D01*
X189501016Y-74629942D01*
X189255404Y-74779302D01*
X189032416Y-74960716D01*
X188836201Y-75170810D01*
X188670434Y-75405649D01*
X188670430Y-75405655D01*
X188538175Y-75660894D01*
X188441913Y-75931750D01*
X188441912Y-75931753D01*
X188383425Y-76213212D01*
X188363809Y-76500000D01*
X188383425Y-76786787D01*
X188383425Y-76786791D01*
X188383426Y-76786793D01*
X188396154Y-76848045D01*
X188441912Y-77068246D01*
X188441913Y-77068249D01*
X188538176Y-77339105D01*
X188538175Y-77339105D01*
X188670430Y-77594344D01*
X188670434Y-77594350D01*
X188836201Y-77829189D01*
X188893052Y-77890061D01*
X189011653Y-78017052D01*
X189032416Y-78039283D01*
X189066544Y-78067048D01*
X189255401Y-78220695D01*
X189255403Y-78220696D01*
X189255404Y-78220697D01*
X189501016Y-78370057D01*
X189501020Y-78370059D01*
X189709626Y-78460668D01*
X189764680Y-78484581D01*
X190041483Y-78562138D01*
X190291854Y-78596550D01*
X190326267Y-78601281D01*
X190326268Y-78601281D01*
X190613733Y-78601281D01*
X190644435Y-78597060D01*
X190898517Y-78562138D01*
X191175320Y-78484581D01*
X191431807Y-78373174D01*
X191438979Y-78370059D01*
X191438983Y-78370057D01*
X191438985Y-78370056D01*
X191684599Y-78220695D01*
X191907587Y-78039280D01*
X192103796Y-77829192D01*
X192151553Y-77761535D01*
X192272013Y-77590883D01*
X192272785Y-77591427D01*
X192321201Y-77547322D01*
X192390091Y-77535662D01*
X192454348Y-77563098D01*
X192493572Y-77620919D01*
X192499500Y-77658801D01*
X192499500Y-106836364D01*
X192479815Y-106903403D01*
X192427011Y-106949158D01*
X192357853Y-106959102D01*
X192294297Y-106930077D01*
X192256523Y-106871299D01*
X192254094Y-106861594D01*
X192253089Y-106856762D01*
X192253088Y-106856756D01*
X192240926Y-106822537D01*
X192156823Y-106585894D01*
X192156824Y-106585894D01*
X192024569Y-106330655D01*
X192024565Y-106330649D01*
X191858798Y-106095810D01*
X191662583Y-105885716D01*
X191475021Y-105733123D01*
X191439599Y-105704305D01*
X191439597Y-105704304D01*
X191439595Y-105704302D01*
X191193983Y-105554942D01*
X191193979Y-105554940D01*
X190930324Y-105440420D01*
X190653522Y-105362863D01*
X190653518Y-105362862D01*
X190653517Y-105362862D01*
X190511124Y-105343290D01*
X190368733Y-105323719D01*
X190368732Y-105323719D01*
X190081268Y-105323719D01*
X190081267Y-105323719D01*
X189796483Y-105362862D01*
X189796477Y-105362863D01*
X189519675Y-105440420D01*
X189256020Y-105554940D01*
X189256016Y-105554942D01*
X189010404Y-105704302D01*
X188787416Y-105885716D01*
X188591201Y-106095810D01*
X188425434Y-106330649D01*
X188425430Y-106330655D01*
X188293175Y-106585894D01*
X188196913Y-106856750D01*
X188196912Y-106856753D01*
X188138425Y-107138212D01*
X188118809Y-107425000D01*
X188138425Y-107711787D01*
X188138425Y-107711791D01*
X188138426Y-107711793D01*
X188155774Y-107795277D01*
X188196912Y-107993246D01*
X188196913Y-107993249D01*
X188293176Y-108264105D01*
X188293175Y-108264105D01*
X188425430Y-108519344D01*
X188425434Y-108519350D01*
X188591201Y-108754189D01*
X188591204Y-108754192D01*
X188755457Y-108930064D01*
X188787416Y-108964283D01*
X188912135Y-109065749D01*
X189010401Y-109145695D01*
X189010403Y-109145696D01*
X189010404Y-109145697D01*
X189256016Y-109295057D01*
X189256020Y-109295059D01*
X189440899Y-109375362D01*
X189519680Y-109409581D01*
X189796483Y-109487138D01*
X190046854Y-109521550D01*
X190081267Y-109526281D01*
X190081268Y-109526281D01*
X190368733Y-109526281D01*
X190399435Y-109522060D01*
X190653517Y-109487138D01*
X190930320Y-109409581D01*
X191035786Y-109363771D01*
X191193979Y-109295059D01*
X191193983Y-109295057D01*
X191193985Y-109295056D01*
X191439599Y-109145695D01*
X191662587Y-108964280D01*
X191858796Y-108754192D01*
X192024570Y-108519343D01*
X192156822Y-108264109D01*
X192156822Y-108264108D01*
X192156824Y-108264105D01*
X192249186Y-108004223D01*
X192253088Y-107993244D01*
X192254093Y-107988408D01*
X192287005Y-107926775D01*
X192348013Y-107892720D01*
X192417748Y-107897054D01*
X192474070Y-107938402D01*
X192499096Y-108003636D01*
X192499500Y-108013635D01*
X192499500Y-110526085D01*
X192479815Y-110593124D01*
X192427011Y-110638879D01*
X192375616Y-110650085D01*
X182423438Y-110659430D01*
X182422477Y-110659369D01*
X182414991Y-110659382D01*
X182414990Y-110659382D01*
X182349887Y-110659499D01*
X182349634Y-110659500D01*
X182349528Y-110659500D01*
X182283626Y-110659562D01*
X182283219Y-110659616D01*
X182219964Y-110676687D01*
X182219863Y-110676714D01*
X182156365Y-110693792D01*
X182156298Y-110693821D01*
X182155978Y-110693953D01*
X182098874Y-110727060D01*
X182098784Y-110727112D01*
X182042304Y-110759791D01*
X182041981Y-110760041D01*
X182041965Y-110760052D01*
X181995486Y-110806699D01*
X181995414Y-110806772D01*
X181949197Y-110853077D01*
X181948950Y-110853400D01*
X181916280Y-110910223D01*
X181916228Y-110910313D01*
X181883424Y-110967256D01*
X181883355Y-110967425D01*
X181883282Y-110967602D01*
X181883262Y-110967648D01*
X181866477Y-111030745D01*
X181866450Y-111030846D01*
X181849436Y-111094582D01*
X181849413Y-111094764D01*
X181849382Y-111094997D01*
X181849500Y-111160510D01*
X181849500Y-111160614D01*
X181849569Y-111233898D01*
X181849633Y-111234861D01*
X181851589Y-112319776D01*
X181832025Y-112386851D01*
X181779304Y-112432701D01*
X181727589Y-112444000D01*
X181025106Y-112444000D01*
X180958067Y-112424315D01*
X180919567Y-112385096D01*
X180882712Y-112325344D01*
X180758657Y-112201289D01*
X180758656Y-112201288D01*
X180609334Y-112109186D01*
X180609332Y-112109185D01*
X180609330Y-112109184D01*
X180602789Y-112106134D01*
X180604094Y-112103334D01*
X180558048Y-112071452D01*
X180531228Y-112006935D01*
X180530500Y-111993522D01*
X180530500Y-102895624D01*
X180550185Y-102828585D01*
X180583378Y-102794048D01*
X180583432Y-102794009D01*
X180586877Y-102791598D01*
X180741598Y-102636877D01*
X180744050Y-102633374D01*
X180798628Y-102589751D01*
X180845624Y-102580500D01*
X181303920Y-102580500D01*
X181401462Y-102561096D01*
X181448913Y-102551658D01*
X181585495Y-102495084D01*
X181641536Y-102457639D01*
X181708416Y-102412952D01*
X182612319Y-101509047D01*
X182673642Y-101475563D01*
X182743333Y-101480547D01*
X182787681Y-101509048D01*
X183661585Y-102382952D01*
X183688839Y-102401162D01*
X183702374Y-102410206D01*
X183784498Y-102465080D01*
X183784511Y-102465087D01*
X183828206Y-102483186D01*
X183828207Y-102483186D01*
X183921088Y-102521659D01*
X184037241Y-102544763D01*
X184048995Y-102547101D01*
X184066081Y-102550500D01*
X184066082Y-102550500D01*
X184066083Y-102550500D01*
X184213918Y-102550500D01*
X184870653Y-102550500D01*
X184937692Y-102570185D01*
X184969606Y-102599771D01*
X184979021Y-102612239D01*
X185143437Y-102762123D01*
X185143439Y-102762125D01*
X185332595Y-102879245D01*
X185332596Y-102879245D01*
X185332599Y-102879247D01*
X185540060Y-102959618D01*
X185758757Y-103000500D01*
X185758759Y-103000500D01*
X185981241Y-103000500D01*
X185981243Y-103000500D01*
X186199940Y-102959618D01*
X186407401Y-102879247D01*
X186596562Y-102762124D01*
X186733951Y-102636877D01*
X186760978Y-102612239D01*
X186760978Y-102612238D01*
X186760981Y-102612236D01*
X186770394Y-102599770D01*
X186826504Y-102558136D01*
X186869347Y-102550500D01*
X187673920Y-102550500D01*
X187771462Y-102531096D01*
X187818913Y-102521658D01*
X187955495Y-102465084D01*
X188020577Y-102421598D01*
X188078416Y-102382952D01*
X188739806Y-101721560D01*
X188801129Y-101688076D01*
X188870820Y-101693060D01*
X188915168Y-101721561D01*
X189011652Y-101818045D01*
X189011654Y-101818046D01*
X189011658Y-101818050D01*
X189124694Y-101875645D01*
X189124698Y-101875647D01*
X189218475Y-101890499D01*
X189218481Y-101890500D01*
X190981518Y-101890499D01*
X191075304Y-101875646D01*
X191188342Y-101818050D01*
X191278050Y-101728342D01*
X191335646Y-101615304D01*
X191335646Y-101615302D01*
X191335647Y-101615301D01*
X191350499Y-101521524D01*
X191350500Y-101521519D01*
X191350499Y-99758482D01*
X191335646Y-99664696D01*
X191278050Y-99551658D01*
X191278046Y-99551654D01*
X191278045Y-99551652D01*
X191188347Y-99461954D01*
X191188344Y-99461952D01*
X191188342Y-99461950D01*
X191111517Y-99422805D01*
X191075301Y-99404352D01*
X190983342Y-99389788D01*
X190920207Y-99359859D01*
X190883276Y-99300547D01*
X190884274Y-99230685D01*
X190922884Y-99172452D01*
X190931617Y-99165740D01*
X190971080Y-99138107D01*
X191138105Y-98971082D01*
X191273600Y-98777578D01*
X191373429Y-98563492D01*
X191373432Y-98563486D01*
X191430636Y-98350000D01*
X190533012Y-98350000D01*
X190565925Y-98292993D01*
X190600000Y-98165826D01*
X190600000Y-98034174D01*
X190565925Y-97907007D01*
X190533012Y-97850000D01*
X191430636Y-97850000D01*
X191430635Y-97849999D01*
X191373432Y-97636513D01*
X191373429Y-97636507D01*
X191273600Y-97422422D01*
X191273599Y-97422420D01*
X191138113Y-97228926D01*
X191138108Y-97228920D01*
X190971082Y-97061894D01*
X190777578Y-96926399D01*
X190563492Y-96826570D01*
X190563486Y-96826567D01*
X190350000Y-96769364D01*
X190350000Y-97666988D01*
X190292993Y-97634075D01*
X190165826Y-97600000D01*
X190034174Y-97600000D01*
X189907007Y-97634075D01*
X189850000Y-97666988D01*
X189850000Y-96769364D01*
X189849999Y-96769364D01*
X189636513Y-96826567D01*
X189636507Y-96826570D01*
X189422422Y-96926399D01*
X189422420Y-96926400D01*
X189228926Y-97061886D01*
X189228920Y-97061891D01*
X189061891Y-97228920D01*
X189061886Y-97228926D01*
X188926400Y-97422420D01*
X188926399Y-97422422D01*
X188826570Y-97636507D01*
X188826567Y-97636513D01*
X188769364Y-97849999D01*
X188769364Y-97850000D01*
X189666988Y-97850000D01*
X189634075Y-97907007D01*
X189600000Y-98034174D01*
X189600000Y-98165826D01*
X189634075Y-98292993D01*
X189666988Y-98350000D01*
X188769364Y-98350000D01*
X188826567Y-98563486D01*
X188826570Y-98563492D01*
X188926399Y-98777578D01*
X189061894Y-98971082D01*
X189228918Y-99138106D01*
X189268385Y-99165742D01*
X189312009Y-99220319D01*
X189319201Y-99289818D01*
X189287678Y-99352172D01*
X189227448Y-99387585D01*
X189216656Y-99389790D01*
X189124696Y-99404354D01*
X189011658Y-99461950D01*
X189011657Y-99461951D01*
X189011652Y-99461954D01*
X188921954Y-99551652D01*
X188921951Y-99551657D01*
X188921950Y-99551658D01*
X188902751Y-99589337D01*
X188864352Y-99664698D01*
X188849500Y-99758475D01*
X188849500Y-99765500D01*
X188829815Y-99832539D01*
X188777011Y-99878294D01*
X188725500Y-99889500D01*
X188686076Y-99889500D01*
X188657242Y-99895234D01*
X188657243Y-99895235D01*
X188541093Y-99918339D01*
X188541089Y-99918340D01*
X188473368Y-99946392D01*
X188404506Y-99974915D01*
X188360220Y-100004506D01*
X188281581Y-100057049D01*
X188281578Y-100057052D01*
X187325451Y-101013181D01*
X187264128Y-101046666D01*
X187237770Y-101049500D01*
X186869347Y-101049500D01*
X186802308Y-101029815D01*
X186770394Y-101000229D01*
X186760978Y-100987760D01*
X186596562Y-100837876D01*
X186596560Y-100837874D01*
X186407404Y-100720754D01*
X186407398Y-100720752D01*
X186199940Y-100640382D01*
X185981243Y-100599500D01*
X185758757Y-100599500D01*
X185540060Y-100640382D01*
X185424457Y-100685167D01*
X185332601Y-100720752D01*
X185332595Y-100720754D01*
X185143439Y-100837874D01*
X185143437Y-100837876D01*
X184979021Y-100987760D01*
X184969606Y-101000229D01*
X184913496Y-101041864D01*
X184870653Y-101049500D01*
X184502229Y-101049500D01*
X184435190Y-101029815D01*
X184414548Y-101013181D01*
X183486819Y-100085451D01*
X183453334Y-100024128D01*
X183450500Y-99997770D01*
X183450500Y-96799997D01*
X184565034Y-96799997D01*
X184565034Y-96800002D01*
X184584858Y-97026599D01*
X184584860Y-97026610D01*
X184643730Y-97246317D01*
X184643735Y-97246331D01*
X184739863Y-97452478D01*
X184790974Y-97525472D01*
X185470000Y-96846446D01*
X185470000Y-96852661D01*
X185497259Y-96954394D01*
X185549920Y-97045606D01*
X185624394Y-97120080D01*
X185715606Y-97172741D01*
X185817339Y-97200000D01*
X185823553Y-97200000D01*
X185144526Y-97879025D01*
X185217513Y-97930132D01*
X185217521Y-97930136D01*
X185423668Y-98026264D01*
X185423682Y-98026269D01*
X185643389Y-98085139D01*
X185643400Y-98085141D01*
X185869998Y-98104966D01*
X185870002Y-98104966D01*
X186096599Y-98085141D01*
X186096610Y-98085139D01*
X186316317Y-98026269D01*
X186316331Y-98026264D01*
X186522478Y-97930136D01*
X186595471Y-97879024D01*
X185916447Y-97200000D01*
X185922661Y-97200000D01*
X186024394Y-97172741D01*
X186115606Y-97120080D01*
X186190080Y-97045606D01*
X186242741Y-96954394D01*
X186270000Y-96852661D01*
X186270000Y-96846447D01*
X186949024Y-97525471D01*
X187000136Y-97452478D01*
X187096264Y-97246331D01*
X187096269Y-97246317D01*
X187155139Y-97026610D01*
X187155141Y-97026599D01*
X187174966Y-96800002D01*
X187174966Y-96799997D01*
X187155141Y-96573400D01*
X187155139Y-96573389D01*
X187096269Y-96353682D01*
X187096264Y-96353668D01*
X187000136Y-96147521D01*
X187000132Y-96147513D01*
X186949025Y-96074526D01*
X186270000Y-96753551D01*
X186270000Y-96747339D01*
X186242741Y-96645606D01*
X186190080Y-96554394D01*
X186115606Y-96479920D01*
X186024394Y-96427259D01*
X185922661Y-96400000D01*
X185916448Y-96400000D01*
X186595472Y-95720974D01*
X186522478Y-95669863D01*
X186316331Y-95573735D01*
X186316317Y-95573730D01*
X186096610Y-95514860D01*
X186096599Y-95514858D01*
X185870002Y-95495034D01*
X185869998Y-95495034D01*
X185643400Y-95514858D01*
X185643389Y-95514860D01*
X185423682Y-95573730D01*
X185423673Y-95573734D01*
X185217516Y-95669866D01*
X185217512Y-95669868D01*
X185144526Y-95720973D01*
X185144526Y-95720974D01*
X185823553Y-96400000D01*
X185817339Y-96400000D01*
X185715606Y-96427259D01*
X185624394Y-96479920D01*
X185549920Y-96554394D01*
X185497259Y-96645606D01*
X185470000Y-96747339D01*
X185470000Y-96753552D01*
X184790974Y-96074526D01*
X184790973Y-96074526D01*
X184739868Y-96147512D01*
X184739866Y-96147516D01*
X184643734Y-96353673D01*
X184643730Y-96353682D01*
X184584860Y-96573389D01*
X184584858Y-96573400D01*
X184565034Y-96799997D01*
X183450500Y-96799997D01*
X183450500Y-95552229D01*
X183470185Y-95485190D01*
X183486819Y-95464548D01*
X185691659Y-93259708D01*
X188137320Y-90814046D01*
X188198641Y-90780563D01*
X188268333Y-90785547D01*
X188312680Y-90814048D01*
X189085431Y-91586798D01*
X189118916Y-91648121D01*
X189121221Y-91685920D01*
X189114357Y-91759998D01*
X189114357Y-91760000D01*
X189134884Y-91981535D01*
X189134885Y-91981537D01*
X189195769Y-92195523D01*
X189195775Y-92195538D01*
X189294938Y-92394683D01*
X189294943Y-92394691D01*
X189429020Y-92572238D01*
X189593437Y-92722123D01*
X189593439Y-92722125D01*
X189782595Y-92839245D01*
X189782596Y-92839245D01*
X189782599Y-92839247D01*
X189990060Y-92919618D01*
X190208757Y-92960500D01*
X190208759Y-92960500D01*
X190431241Y-92960500D01*
X190431243Y-92960500D01*
X190649940Y-92919618D01*
X190857401Y-92839247D01*
X191046562Y-92722124D01*
X191192043Y-92589500D01*
X191210979Y-92572238D01*
X191220380Y-92559790D01*
X191345058Y-92394689D01*
X191444229Y-92195528D01*
X191505115Y-91981536D01*
X191525643Y-91760000D01*
X191505115Y-91538464D01*
X191444229Y-91324472D01*
X191359076Y-91153462D01*
X191345061Y-91125316D01*
X191345056Y-91125308D01*
X191210979Y-90947761D01*
X191046562Y-90797876D01*
X191046560Y-90797874D01*
X190857404Y-90680754D01*
X190857398Y-90680752D01*
X190857352Y-90680734D01*
X190649940Y-90600382D01*
X190431243Y-90559500D01*
X190232229Y-90559500D01*
X190165190Y-90539815D01*
X190144548Y-90523181D01*
X189058421Y-89437052D01*
X189058414Y-89437046D01*
X188978436Y-89383607D01*
X188978436Y-89383608D01*
X188935495Y-89354916D01*
X188935492Y-89354914D01*
X188935491Y-89354914D01*
X188798917Y-89298343D01*
X188798907Y-89298340D01*
X188653920Y-89269500D01*
X188653918Y-89269500D01*
X188232229Y-89269500D01*
X188165190Y-89249815D01*
X188144548Y-89233181D01*
X186476819Y-87565451D01*
X186443334Y-87504128D01*
X186440500Y-87477770D01*
X186440500Y-86759997D01*
X189015034Y-86759997D01*
X189015034Y-86760002D01*
X189034858Y-86986599D01*
X189034860Y-86986610D01*
X189093730Y-87206317D01*
X189093735Y-87206331D01*
X189189863Y-87412478D01*
X189240974Y-87485472D01*
X189920000Y-86806446D01*
X189920000Y-86812661D01*
X189947259Y-86914394D01*
X189999920Y-87005606D01*
X190074394Y-87080080D01*
X190165606Y-87132741D01*
X190267339Y-87160000D01*
X190273553Y-87160000D01*
X189594526Y-87839025D01*
X189667513Y-87890132D01*
X189667521Y-87890136D01*
X189873668Y-87986264D01*
X189873682Y-87986269D01*
X190093389Y-88045139D01*
X190093400Y-88045141D01*
X190319998Y-88064966D01*
X190320002Y-88064966D01*
X190546599Y-88045141D01*
X190546610Y-88045139D01*
X190766317Y-87986269D01*
X190766331Y-87986264D01*
X190972478Y-87890136D01*
X191045471Y-87839024D01*
X190366447Y-87160000D01*
X190372661Y-87160000D01*
X190474394Y-87132741D01*
X190565606Y-87080080D01*
X190640080Y-87005606D01*
X190692741Y-86914394D01*
X190720000Y-86812661D01*
X190720000Y-86806447D01*
X191399024Y-87485471D01*
X191450136Y-87412478D01*
X191546264Y-87206331D01*
X191546269Y-87206317D01*
X191605139Y-86986610D01*
X191605141Y-86986599D01*
X191624966Y-86760002D01*
X191624966Y-86759997D01*
X191605141Y-86533400D01*
X191605139Y-86533389D01*
X191546269Y-86313682D01*
X191546264Y-86313668D01*
X191450136Y-86107521D01*
X191450132Y-86107513D01*
X191399025Y-86034526D01*
X190720000Y-86713551D01*
X190720000Y-86707339D01*
X190692741Y-86605606D01*
X190640080Y-86514394D01*
X190565606Y-86439920D01*
X190474394Y-86387259D01*
X190372661Y-86360000D01*
X190366448Y-86360000D01*
X191045472Y-85680974D01*
X190972478Y-85629863D01*
X190766331Y-85533735D01*
X190766317Y-85533730D01*
X190546610Y-85474860D01*
X190546599Y-85474858D01*
X190320002Y-85455034D01*
X190319998Y-85455034D01*
X190093400Y-85474858D01*
X190093389Y-85474860D01*
X189873682Y-85533730D01*
X189873673Y-85533734D01*
X189667516Y-85629866D01*
X189667512Y-85629868D01*
X189594526Y-85680973D01*
X189594526Y-85680974D01*
X190273553Y-86360000D01*
X190267339Y-86360000D01*
X190165606Y-86387259D01*
X190074394Y-86439920D01*
X189999920Y-86514394D01*
X189947259Y-86605606D01*
X189920000Y-86707339D01*
X189920000Y-86713552D01*
X189240974Y-86034526D01*
X189240973Y-86034526D01*
X189189868Y-86107512D01*
X189189866Y-86107516D01*
X189093734Y-86313673D01*
X189093730Y-86313682D01*
X189034860Y-86533389D01*
X189034858Y-86533400D01*
X189015034Y-86759997D01*
X186440500Y-86759997D01*
X186440500Y-79806081D01*
X186434763Y-79777242D01*
X186434763Y-79777240D01*
X186426991Y-79738168D01*
X186411659Y-79661088D01*
X186357408Y-79530117D01*
X186355765Y-79525525D01*
X186355084Y-79524505D01*
X186294683Y-79434108D01*
X186272952Y-79401585D01*
X186272950Y-79401583D01*
X186272949Y-79401581D01*
X184938421Y-78067052D01*
X184938414Y-78067046D01*
X184838818Y-78000499D01*
X184838817Y-78000499D01*
X184815495Y-77984916D01*
X184815488Y-77984912D01*
X184678917Y-77928343D01*
X184678907Y-77928340D01*
X184533920Y-77899500D01*
X184533918Y-77899500D01*
X169684500Y-77899500D01*
X169617461Y-77879815D01*
X169571706Y-77827011D01*
X169560500Y-77775500D01*
X169560500Y-76995052D01*
X169580185Y-76928013D01*
X169600957Y-76903418D01*
X169700981Y-76812236D01*
X169835058Y-76634689D01*
X169934229Y-76435528D01*
X169995115Y-76221536D01*
X170015643Y-76000000D01*
X169999890Y-75829997D01*
X171064723Y-75829997D01*
X171064723Y-75830002D01*
X171067171Y-75857979D01*
X171082043Y-76027979D01*
X171083793Y-76047975D01*
X171083793Y-76047979D01*
X171140422Y-76259322D01*
X171140424Y-76259326D01*
X171140425Y-76259330D01*
X171173723Y-76330738D01*
X171232897Y-76457638D01*
X171257998Y-76493486D01*
X171358402Y-76636877D01*
X171513123Y-76791598D01*
X171692361Y-76917102D01*
X171890670Y-77009575D01*
X172102023Y-77066207D01*
X172284926Y-77082208D01*
X172319998Y-77085277D01*
X172320000Y-77085277D01*
X172320002Y-77085277D01*
X172348254Y-77082805D01*
X172537977Y-77066207D01*
X172749330Y-77009575D01*
X172947639Y-76917102D01*
X173126877Y-76791598D01*
X173281598Y-76636877D01*
X173383928Y-76490734D01*
X173438502Y-76447112D01*
X173508000Y-76439918D01*
X173570355Y-76471441D01*
X173605769Y-76531670D01*
X173609500Y-76561859D01*
X173609500Y-76711517D01*
X173616917Y-76758347D01*
X173624354Y-76805304D01*
X173681950Y-76918342D01*
X173681952Y-76918344D01*
X173681954Y-76918347D01*
X173771652Y-77008045D01*
X173771654Y-77008046D01*
X173771658Y-77008050D01*
X173876459Y-77061449D01*
X173884698Y-77065647D01*
X173978475Y-77080499D01*
X173978481Y-77080500D01*
X175741518Y-77080499D01*
X175835304Y-77065646D01*
X175948342Y-77008050D01*
X176038050Y-76918342D01*
X176095646Y-76805304D01*
X176095646Y-76805302D01*
X176095647Y-76805301D01*
X176107835Y-76728347D01*
X176110500Y-76711519D01*
X176110499Y-74948482D01*
X176095646Y-74854696D01*
X176038050Y-74741658D01*
X176038046Y-74741654D01*
X176038045Y-74741652D01*
X175948347Y-74651954D01*
X175948344Y-74651952D01*
X175948342Y-74651950D01*
X175870807Y-74612444D01*
X175835301Y-74594352D01*
X175741524Y-74579500D01*
X173978482Y-74579500D01*
X173897519Y-74592323D01*
X173884696Y-74594354D01*
X173771658Y-74651950D01*
X173771657Y-74651951D01*
X173771652Y-74651954D01*
X173681954Y-74741652D01*
X173681951Y-74741657D01*
X173681950Y-74741658D01*
X173673378Y-74758481D01*
X173624352Y-74854698D01*
X173609500Y-74948475D01*
X173609500Y-75098138D01*
X173589815Y-75165177D01*
X173537011Y-75210932D01*
X173467853Y-75220876D01*
X173404297Y-75191851D01*
X173383925Y-75169261D01*
X173281599Y-75023124D01*
X173206950Y-74948475D01*
X173126877Y-74868402D01*
X172947639Y-74742898D01*
X172947640Y-74742898D01*
X172947638Y-74742897D01*
X172809329Y-74678403D01*
X172749330Y-74650425D01*
X172749326Y-74650424D01*
X172749322Y-74650422D01*
X172537977Y-74593793D01*
X172320002Y-74574723D01*
X172319998Y-74574723D01*
X172174682Y-74587436D01*
X172102023Y-74593793D01*
X172102020Y-74593793D01*
X171890677Y-74650422D01*
X171890670Y-74650424D01*
X171890670Y-74650425D01*
X171865631Y-74662100D01*
X171692361Y-74742898D01*
X171692357Y-74742900D01*
X171513121Y-74868402D01*
X171358402Y-75023121D01*
X171232900Y-75202357D01*
X171232898Y-75202361D01*
X171140426Y-75400668D01*
X171140422Y-75400677D01*
X171083793Y-75612020D01*
X171083793Y-75612024D01*
X171064723Y-75829997D01*
X169999890Y-75829997D01*
X169995115Y-75778464D01*
X169934229Y-75564472D01*
X169934224Y-75564461D01*
X169835061Y-75365316D01*
X169835056Y-75365308D01*
X169700979Y-75187761D01*
X169536562Y-75037876D01*
X169536560Y-75037874D01*
X169347404Y-74920754D01*
X169347398Y-74920752D01*
X169139940Y-74840382D01*
X168921243Y-74799500D01*
X168698757Y-74799500D01*
X168480060Y-74840382D01*
X168403948Y-74869868D01*
X168272601Y-74920752D01*
X168272595Y-74920754D01*
X168083439Y-75037874D01*
X168083437Y-75037876D01*
X167919020Y-75187761D01*
X167784943Y-75365308D01*
X167784938Y-75365316D01*
X167685775Y-75564461D01*
X167685769Y-75564476D01*
X167624885Y-75778462D01*
X167624884Y-75778464D01*
X167604357Y-75999999D01*
X167604357Y-76000000D01*
X167624884Y-76221535D01*
X167624885Y-76221537D01*
X167685769Y-76435523D01*
X167685775Y-76435538D01*
X167784938Y-76634683D01*
X167784943Y-76634691D01*
X167825234Y-76688044D01*
X167919019Y-76812236D01*
X168019039Y-76903416D01*
X168055319Y-76963126D01*
X168059500Y-76995052D01*
X168059500Y-77775500D01*
X168039815Y-77842539D01*
X167987011Y-77888294D01*
X167935500Y-77899500D01*
X145027319Y-77899500D01*
X144960280Y-77879815D01*
X144914525Y-77827011D01*
X144904581Y-77757853D01*
X144911375Y-77731534D01*
X144935140Y-77668872D01*
X144955645Y-77500000D01*
X144935140Y-77331128D01*
X144930336Y-77318462D01*
X144874817Y-77172068D01*
X144810593Y-77079025D01*
X144778183Y-77032071D01*
X144778179Y-77032067D01*
X144773757Y-77027076D01*
X144744034Y-76963844D01*
X144753215Y-76894580D01*
X144798386Y-76841275D01*
X144865204Y-76820854D01*
X144918972Y-76832462D01*
X144955670Y-76849575D01*
X145167023Y-76906207D01*
X145349926Y-76922208D01*
X145384998Y-76925277D01*
X145385000Y-76925277D01*
X145385002Y-76925277D01*
X145413254Y-76922805D01*
X145602977Y-76906207D01*
X145814330Y-76849575D01*
X146012639Y-76757102D01*
X146191877Y-76631598D01*
X146346598Y-76476877D01*
X146472102Y-76297639D01*
X146564575Y-76099330D01*
X146621207Y-75887977D01*
X146640277Y-75670000D01*
X146639480Y-75660894D01*
X146635205Y-75612023D01*
X146621207Y-75452023D01*
X146575293Y-75280670D01*
X146564577Y-75240677D01*
X146564576Y-75240676D01*
X146564575Y-75240670D01*
X146472102Y-75042362D01*
X146472100Y-75042359D01*
X146472099Y-75042357D01*
X146346599Y-74863124D01*
X146271950Y-74788475D01*
X146241950Y-74758475D01*
X148859500Y-74758475D01*
X148859500Y-76521517D01*
X148864366Y-76552238D01*
X148874354Y-76615304D01*
X148931950Y-76728342D01*
X148931952Y-76728344D01*
X148931954Y-76728347D01*
X149021652Y-76818045D01*
X149021654Y-76818046D01*
X149021658Y-76818050D01*
X149134694Y-76875645D01*
X149134698Y-76875647D01*
X149228475Y-76890499D01*
X149228481Y-76890500D01*
X150991518Y-76890499D01*
X151085304Y-76875646D01*
X151198342Y-76818050D01*
X151288050Y-76728342D01*
X151345646Y-76615304D01*
X151345646Y-76615302D01*
X151345647Y-76615301D01*
X151360499Y-76521524D01*
X151360500Y-76521519D01*
X151360499Y-76371859D01*
X151380183Y-76304823D01*
X151432987Y-76259068D01*
X151502145Y-76249124D01*
X151565701Y-76278149D01*
X151586073Y-76300738D01*
X151668969Y-76419124D01*
X151688402Y-76446877D01*
X151843123Y-76601598D01*
X152022361Y-76727102D01*
X152220670Y-76819575D01*
X152432023Y-76876207D01*
X152614926Y-76892208D01*
X152649998Y-76895277D01*
X152650000Y-76895277D01*
X152650002Y-76895277D01*
X152678254Y-76892805D01*
X152867977Y-76876207D01*
X153079330Y-76819575D01*
X153277639Y-76727102D01*
X153456877Y-76601598D01*
X153611598Y-76446877D01*
X153737102Y-76267639D01*
X153829575Y-76069330D01*
X153886207Y-75857977D01*
X153905277Y-75640000D01*
X153904162Y-75627259D01*
X153901079Y-75592020D01*
X153886207Y-75422023D01*
X153848333Y-75280677D01*
X153829577Y-75210677D01*
X153829576Y-75210676D01*
X153829575Y-75210670D01*
X153737102Y-75012362D01*
X153737100Y-75012359D01*
X153737099Y-75012357D01*
X153611599Y-74833124D01*
X153606950Y-74828475D01*
X156679500Y-74828475D01*
X156679500Y-76591517D01*
X156686685Y-76636879D01*
X156694354Y-76685304D01*
X156751950Y-76798342D01*
X156751952Y-76798344D01*
X156751954Y-76798347D01*
X156841652Y-76888045D01*
X156841654Y-76888046D01*
X156841658Y-76888050D01*
X156954694Y-76945645D01*
X156954698Y-76945647D01*
X157048475Y-76960499D01*
X157048481Y-76960500D01*
X158811518Y-76960499D01*
X158905304Y-76945646D01*
X159018342Y-76888050D01*
X159108050Y-76798342D01*
X159165646Y-76685304D01*
X159165646Y-76685302D01*
X159165647Y-76685301D01*
X159180499Y-76591524D01*
X159180500Y-76591519D01*
X159180499Y-76441859D01*
X159200183Y-76374823D01*
X159252987Y-76329068D01*
X159322145Y-76319124D01*
X159385701Y-76348149D01*
X159406073Y-76370738D01*
X159508402Y-76516877D01*
X159663123Y-76671598D01*
X159842361Y-76797102D01*
X160040670Y-76889575D01*
X160252023Y-76946207D01*
X160434926Y-76962208D01*
X160469998Y-76965277D01*
X160470000Y-76965277D01*
X160470002Y-76965277D01*
X160498254Y-76962805D01*
X160687977Y-76946207D01*
X160899330Y-76889575D01*
X161097639Y-76797102D01*
X161276877Y-76671598D01*
X161431598Y-76516877D01*
X161557102Y-76337639D01*
X161649575Y-76139330D01*
X161686909Y-75999997D01*
X162505034Y-75999997D01*
X162505034Y-76000002D01*
X162524858Y-76226599D01*
X162524860Y-76226610D01*
X162583730Y-76446317D01*
X162583735Y-76446331D01*
X162679863Y-76652478D01*
X162730974Y-76725472D01*
X163410000Y-76046446D01*
X163410000Y-76052661D01*
X163437259Y-76154394D01*
X163489920Y-76245606D01*
X163564394Y-76320080D01*
X163655606Y-76372741D01*
X163757339Y-76400000D01*
X163763553Y-76400000D01*
X163084526Y-77079025D01*
X163157513Y-77130132D01*
X163157521Y-77130136D01*
X163363668Y-77226264D01*
X163363682Y-77226269D01*
X163583389Y-77285139D01*
X163583400Y-77285141D01*
X163809998Y-77304966D01*
X163810002Y-77304966D01*
X164036599Y-77285141D01*
X164036610Y-77285139D01*
X164256317Y-77226269D01*
X164256331Y-77226264D01*
X164462478Y-77130136D01*
X164535471Y-77079024D01*
X163856447Y-76400000D01*
X163862661Y-76400000D01*
X163964394Y-76372741D01*
X164055606Y-76320080D01*
X164130080Y-76245606D01*
X164182741Y-76154394D01*
X164210000Y-76052661D01*
X164210000Y-76046447D01*
X164889024Y-76725471D01*
X164940136Y-76652478D01*
X165036264Y-76446331D01*
X165036269Y-76446317D01*
X165095139Y-76226610D01*
X165095141Y-76226599D01*
X165114966Y-76000002D01*
X165114966Y-75999997D01*
X165095141Y-75773400D01*
X165095139Y-75773389D01*
X165036269Y-75553682D01*
X165036264Y-75553668D01*
X164940136Y-75347521D01*
X164940132Y-75347513D01*
X164889025Y-75274526D01*
X164210000Y-75953551D01*
X164210000Y-75947339D01*
X164182741Y-75845606D01*
X164130080Y-75754394D01*
X164055606Y-75679920D01*
X163964394Y-75627259D01*
X163862661Y-75600000D01*
X163856448Y-75600000D01*
X164535472Y-74920974D01*
X164462478Y-74869863D01*
X164256331Y-74773735D01*
X164256317Y-74773730D01*
X164036610Y-74714860D01*
X164036599Y-74714858D01*
X163810002Y-74695034D01*
X163809998Y-74695034D01*
X163583400Y-74714858D01*
X163583389Y-74714860D01*
X163363682Y-74773730D01*
X163363673Y-74773734D01*
X163157516Y-74869866D01*
X163157512Y-74869868D01*
X163084526Y-74920973D01*
X163084526Y-74920974D01*
X163763553Y-75600000D01*
X163757339Y-75600000D01*
X163655606Y-75627259D01*
X163564394Y-75679920D01*
X163489920Y-75754394D01*
X163437259Y-75845606D01*
X163410000Y-75947339D01*
X163410000Y-75953552D01*
X162730974Y-75274526D01*
X162730973Y-75274526D01*
X162679868Y-75347512D01*
X162679866Y-75347516D01*
X162583734Y-75553673D01*
X162583730Y-75553682D01*
X162524860Y-75773389D01*
X162524858Y-75773400D01*
X162505034Y-75999997D01*
X161686909Y-75999997D01*
X161706207Y-75927977D01*
X161725277Y-75710000D01*
X161706207Y-75492023D01*
X161649575Y-75280670D01*
X161557102Y-75082362D01*
X161557100Y-75082359D01*
X161557099Y-75082357D01*
X161431599Y-74903124D01*
X161356950Y-74828475D01*
X161276877Y-74748402D01*
X161127659Y-74643918D01*
X161097638Y-74622897D01*
X160992333Y-74573793D01*
X160899330Y-74530425D01*
X160899326Y-74530424D01*
X160899322Y-74530422D01*
X160687977Y-74473793D01*
X160470002Y-74454723D01*
X160469998Y-74454723D01*
X160324682Y-74467436D01*
X160252023Y-74473793D01*
X160252020Y-74473793D01*
X160040677Y-74530422D01*
X160040670Y-74530424D01*
X160040670Y-74530425D01*
X160037391Y-74531954D01*
X159842361Y-74622898D01*
X159842357Y-74622900D01*
X159663121Y-74748402D01*
X159508402Y-74903121D01*
X159406074Y-75049262D01*
X159351497Y-75092887D01*
X159281999Y-75100081D01*
X159219644Y-75068558D01*
X159184230Y-75008328D01*
X159180499Y-74978139D01*
X159180499Y-74828482D01*
X159174163Y-74788475D01*
X159165646Y-74734696D01*
X159108050Y-74621658D01*
X159108046Y-74621654D01*
X159108045Y-74621652D01*
X159018347Y-74531954D01*
X159018344Y-74531952D01*
X159018342Y-74531950D01*
X158930755Y-74487322D01*
X158905301Y-74474352D01*
X158811524Y-74459500D01*
X157048482Y-74459500D01*
X156967519Y-74472323D01*
X156954696Y-74474354D01*
X156841658Y-74531950D01*
X156841657Y-74531951D01*
X156841652Y-74531954D01*
X156751954Y-74621652D01*
X156751951Y-74621657D01*
X156751950Y-74621658D01*
X156737292Y-74650426D01*
X156694352Y-74734698D01*
X156679500Y-74828475D01*
X153606950Y-74828475D01*
X153536950Y-74758475D01*
X153456877Y-74678402D01*
X153308281Y-74574354D01*
X153277638Y-74552897D01*
X153146944Y-74491954D01*
X153079330Y-74460425D01*
X153079326Y-74460424D01*
X153079322Y-74460422D01*
X152867977Y-74403793D01*
X152650002Y-74384723D01*
X152649998Y-74384723D01*
X152504682Y-74397436D01*
X152432023Y-74403793D01*
X152432020Y-74403793D01*
X152220677Y-74460422D01*
X152220670Y-74460424D01*
X152220670Y-74460425D01*
X152217391Y-74461954D01*
X152022361Y-74552898D01*
X152022357Y-74552900D01*
X151843121Y-74678402D01*
X151688402Y-74833121D01*
X151586074Y-74979262D01*
X151531497Y-75022887D01*
X151461999Y-75030081D01*
X151399644Y-74998558D01*
X151364230Y-74938328D01*
X151360499Y-74908139D01*
X151360499Y-74758482D01*
X151358903Y-74748403D01*
X151345646Y-74664696D01*
X151288050Y-74551658D01*
X151288046Y-74551654D01*
X151288045Y-74551652D01*
X151198347Y-74461954D01*
X151198344Y-74461952D01*
X151198342Y-74461950D01*
X151112910Y-74418420D01*
X151085301Y-74404352D01*
X150991524Y-74389500D01*
X149228482Y-74389500D01*
X149147519Y-74402323D01*
X149134696Y-74404354D01*
X149021658Y-74461950D01*
X149021657Y-74461951D01*
X149021652Y-74461954D01*
X148931954Y-74551652D01*
X148931951Y-74551657D01*
X148931950Y-74551658D01*
X148927954Y-74559501D01*
X148874352Y-74664698D01*
X148859500Y-74758475D01*
X146241950Y-74758475D01*
X146191877Y-74708402D01*
X146028199Y-74593793D01*
X146012638Y-74582897D01*
X145900104Y-74530422D01*
X145814330Y-74490425D01*
X145814326Y-74490424D01*
X145814322Y-74490422D01*
X145602977Y-74433793D01*
X145385002Y-74414723D01*
X145384998Y-74414723D01*
X145239682Y-74427436D01*
X145167023Y-74433793D01*
X145167020Y-74433793D01*
X144955677Y-74490422D01*
X144955670Y-74490424D01*
X144955670Y-74490425D01*
X144952391Y-74491954D01*
X144757363Y-74582897D01*
X144715166Y-74612444D01*
X144648960Y-74634771D01*
X144581193Y-74617759D01*
X144556363Y-74598549D01*
X143057316Y-73099502D01*
X143057314Y-73099500D01*
X143000250Y-73066554D01*
X142943187Y-73033608D01*
X142879539Y-73016554D01*
X142815892Y-72999500D01*
X121415892Y-72999500D01*
X121284107Y-72999500D01*
X121156812Y-73033608D01*
X121042686Y-73099500D01*
X121042683Y-73099502D01*
X120949498Y-73192688D01*
X119553416Y-74588768D01*
X119492093Y-74622253D01*
X119433642Y-74620862D01*
X119257977Y-74573793D01*
X119040002Y-74554723D01*
X119039998Y-74554723D01*
X118894682Y-74567436D01*
X118822023Y-74573793D01*
X118822020Y-74573793D01*
X118610677Y-74630422D01*
X118610670Y-74630424D01*
X118610670Y-74630425D01*
X118607391Y-74631954D01*
X118412361Y-74722898D01*
X118412357Y-74722900D01*
X118233121Y-74848402D01*
X118078402Y-75003121D01*
X117976074Y-75149262D01*
X117921497Y-75192887D01*
X117851999Y-75200081D01*
X117789644Y-75168558D01*
X117754230Y-75108328D01*
X117750499Y-75078139D01*
X117750499Y-74928482D01*
X117746483Y-74903123D01*
X117735646Y-74834696D01*
X117678050Y-74721658D01*
X117678046Y-74721654D01*
X117678045Y-74721652D01*
X117588347Y-74631954D01*
X117588344Y-74631952D01*
X117588342Y-74631950D01*
X117503593Y-74588768D01*
X117475301Y-74574352D01*
X117381524Y-74559500D01*
X115618482Y-74559500D01*
X115537519Y-74572323D01*
X115524696Y-74574354D01*
X115411658Y-74631950D01*
X115411657Y-74631951D01*
X115411652Y-74631954D01*
X115321954Y-74721652D01*
X115321951Y-74721657D01*
X115321950Y-74721658D01*
X115311128Y-74742897D01*
X115264352Y-74834698D01*
X115249500Y-74928475D01*
X115249500Y-76691517D01*
X115257463Y-76741794D01*
X115264354Y-76785304D01*
X115321950Y-76898342D01*
X115321952Y-76898344D01*
X115321954Y-76898347D01*
X115411652Y-76988045D01*
X115411654Y-76988046D01*
X115411658Y-76988050D01*
X115498054Y-77032071D01*
X115524698Y-77045647D01*
X115618475Y-77060499D01*
X115618481Y-77060500D01*
X117381518Y-77060499D01*
X117475304Y-77045646D01*
X117588342Y-76988050D01*
X117678050Y-76898342D01*
X117735646Y-76785304D01*
X117735646Y-76785302D01*
X117735647Y-76785301D01*
X117746282Y-76718147D01*
X117750500Y-76691519D01*
X117750499Y-76541859D01*
X117770183Y-76474823D01*
X117822987Y-76429068D01*
X117892145Y-76419124D01*
X117955701Y-76448149D01*
X117976073Y-76470738D01*
X118077298Y-76615301D01*
X118078402Y-76616877D01*
X118233123Y-76771598D01*
X118412361Y-76897102D01*
X118610670Y-76989575D01*
X118822023Y-77046207D01*
X118996245Y-77061449D01*
X119039998Y-77065277D01*
X119040000Y-77065277D01*
X119040002Y-77065277D01*
X119068254Y-77062805D01*
X119257977Y-77046207D01*
X119469330Y-76989575D01*
X119667639Y-76897102D01*
X119846877Y-76771598D01*
X120001598Y-76616877D01*
X120127102Y-76437639D01*
X120197618Y-76286414D01*
X120243790Y-76233977D01*
X120310984Y-76214825D01*
X120377865Y-76235041D01*
X120422381Y-76286414D01*
X120492898Y-76437639D01*
X120618402Y-76616877D01*
X120773123Y-76771598D01*
X120952361Y-76897102D01*
X121150670Y-76989575D01*
X121362023Y-77046207D01*
X121536245Y-77061449D01*
X121579998Y-77065277D01*
X121580000Y-77065277D01*
X121580002Y-77065277D01*
X121608254Y-77062805D01*
X121797977Y-77046207D01*
X122009330Y-76989575D01*
X122207639Y-76897102D01*
X122386877Y-76771598D01*
X122541598Y-76616877D01*
X122667102Y-76437639D01*
X122759575Y-76239330D01*
X122816207Y-76027977D01*
X122835277Y-75810000D01*
X122816207Y-75592023D01*
X122764934Y-75400670D01*
X122759577Y-75380677D01*
X122759576Y-75380676D01*
X122759575Y-75380670D01*
X122667102Y-75182362D01*
X122667100Y-75182359D01*
X122667099Y-75182357D01*
X122541599Y-75003124D01*
X122466236Y-74927761D01*
X122386877Y-74848402D01*
X122236202Y-74742898D01*
X122207638Y-74722897D01*
X122108484Y-74676661D01*
X122009330Y-74630425D01*
X122009326Y-74630424D01*
X122009322Y-74630422D01*
X121797977Y-74573793D01*
X121580002Y-74554723D01*
X121579998Y-74554723D01*
X121434682Y-74567436D01*
X121362023Y-74573793D01*
X121362020Y-74573793D01*
X121292665Y-74592377D01*
X121222815Y-74590714D01*
X121164953Y-74551551D01*
X121137449Y-74487322D01*
X121149036Y-74418420D01*
X121172888Y-74384924D01*
X121520994Y-74036819D01*
X121582317Y-74003334D01*
X121608675Y-74000500D01*
X142491324Y-74000500D01*
X142558363Y-74020185D01*
X142579005Y-74036819D01*
X142759872Y-74217686D01*
X142793357Y-74279009D01*
X142788373Y-74348701D01*
X142746501Y-74404634D01*
X142683000Y-74428895D01*
X142627023Y-74433793D01*
X142627020Y-74433793D01*
X142415677Y-74490422D01*
X142415670Y-74490424D01*
X142415670Y-74490425D01*
X142412391Y-74491954D01*
X142217361Y-74582898D01*
X142217357Y-74582900D01*
X142038121Y-74708402D01*
X141883402Y-74863121D01*
X141781074Y-75009262D01*
X141726497Y-75052887D01*
X141656999Y-75060081D01*
X141594644Y-75028558D01*
X141559230Y-74968328D01*
X141555499Y-74938139D01*
X141555499Y-74788482D01*
X141553819Y-74777874D01*
X141540646Y-74694696D01*
X141483050Y-74581658D01*
X141483046Y-74581654D01*
X141483045Y-74581652D01*
X141393347Y-74491954D01*
X141393344Y-74491952D01*
X141393342Y-74491950D01*
X141316517Y-74452805D01*
X141280301Y-74434352D01*
X141186524Y-74419500D01*
X139423482Y-74419500D01*
X139342519Y-74432323D01*
X139329696Y-74434354D01*
X139216658Y-74491950D01*
X139216657Y-74491951D01*
X139216652Y-74491954D01*
X139126954Y-74581652D01*
X139126951Y-74581657D01*
X139126950Y-74581658D01*
X139120767Y-74593793D01*
X139069352Y-74694698D01*
X139054500Y-74788475D01*
X139054500Y-76551517D01*
X139064603Y-76615304D01*
X139069354Y-76645304D01*
X139126950Y-76758342D01*
X139126952Y-76758344D01*
X139126954Y-76758347D01*
X139216652Y-76848045D01*
X139216654Y-76848046D01*
X139216658Y-76848050D01*
X139329033Y-76905308D01*
X139329698Y-76905647D01*
X139423475Y-76920499D01*
X139423481Y-76920500D01*
X141186518Y-76920499D01*
X141280304Y-76905646D01*
X141393342Y-76848050D01*
X141483050Y-76758342D01*
X141540646Y-76645304D01*
X141540646Y-76645302D01*
X141540647Y-76645301D01*
X141555499Y-76551524D01*
X141555500Y-76551519D01*
X141555499Y-76401859D01*
X141575183Y-76334823D01*
X141627987Y-76289068D01*
X141697145Y-76279124D01*
X141760701Y-76308149D01*
X141781073Y-76330738D01*
X141879103Y-76470738D01*
X141883402Y-76476877D01*
X142038123Y-76631598D01*
X142217361Y-76757102D01*
X142415670Y-76849575D01*
X142627023Y-76906207D01*
X142809926Y-76922208D01*
X142844998Y-76925277D01*
X142845000Y-76925277D01*
X142845002Y-76925277D01*
X142873254Y-76922805D01*
X143062977Y-76906207D01*
X143274330Y-76849575D01*
X143472639Y-76757102D01*
X143539376Y-76710371D01*
X143605582Y-76688044D01*
X143673349Y-76705054D01*
X143721162Y-76756001D01*
X143734500Y-76811946D01*
X143734500Y-76975056D01*
X143714815Y-77042095D01*
X143712550Y-77045496D01*
X143625183Y-77172068D01*
X143625182Y-77172068D01*
X143564860Y-77331125D01*
X143564859Y-77331130D01*
X143544355Y-77500000D01*
X143564859Y-77668869D01*
X143564860Y-77668874D01*
X143577870Y-77703179D01*
X143588623Y-77731531D01*
X143593990Y-77801192D01*
X143560843Y-77862698D01*
X143499705Y-77896520D01*
X143472681Y-77899500D01*
X126664500Y-77899500D01*
X126597461Y-77879815D01*
X126551706Y-77827011D01*
X126540500Y-77775500D01*
X126540500Y-76780634D01*
X126560185Y-76713595D01*
X126580962Y-76688997D01*
X126730979Y-76552238D01*
X126731519Y-76551524D01*
X126865058Y-76374689D01*
X126964229Y-76175528D01*
X127025115Y-75961536D01*
X127045643Y-75740000D01*
X127045643Y-75739999D01*
X134794357Y-75739999D01*
X134794357Y-75740000D01*
X134814884Y-75961535D01*
X134814885Y-75961537D01*
X134875769Y-76175523D01*
X134875775Y-76175538D01*
X134974938Y-76374683D01*
X134974943Y-76374691D01*
X135109020Y-76552238D01*
X135273437Y-76702123D01*
X135273439Y-76702125D01*
X135462595Y-76819245D01*
X135462596Y-76819245D01*
X135462599Y-76819247D01*
X135670060Y-76899618D01*
X135888757Y-76940500D01*
X135888759Y-76940500D01*
X136111241Y-76940500D01*
X136111243Y-76940500D01*
X136329940Y-76899618D01*
X136537401Y-76819247D01*
X136726562Y-76702124D01*
X136890981Y-76552236D01*
X137025058Y-76374689D01*
X137124229Y-76175528D01*
X137185115Y-75961536D01*
X137205643Y-75740000D01*
X137193784Y-75612024D01*
X137185115Y-75518464D01*
X137185114Y-75518462D01*
X137177591Y-75492023D01*
X137124229Y-75304472D01*
X137124224Y-75304461D01*
X137025061Y-75105316D01*
X137025056Y-75105308D01*
X136890979Y-74927761D01*
X136726562Y-74777876D01*
X136726560Y-74777874D01*
X136537404Y-74660754D01*
X136537398Y-74660752D01*
X136514680Y-74651951D01*
X136329940Y-74580382D01*
X136111243Y-74539500D01*
X135888757Y-74539500D01*
X135670060Y-74580382D01*
X135560314Y-74622898D01*
X135462601Y-74660752D01*
X135462595Y-74660754D01*
X135273439Y-74777874D01*
X135273437Y-74777876D01*
X135109020Y-74927761D01*
X134974943Y-75105308D01*
X134974938Y-75105316D01*
X134875775Y-75304461D01*
X134875769Y-75304476D01*
X134814885Y-75518462D01*
X134814884Y-75518464D01*
X134794357Y-75739999D01*
X127045643Y-75739999D01*
X127033784Y-75612024D01*
X127025115Y-75518464D01*
X127025114Y-75518462D01*
X127017591Y-75492023D01*
X126964229Y-75304472D01*
X126964224Y-75304461D01*
X126865061Y-75105316D01*
X126865056Y-75105308D01*
X126730979Y-74927761D01*
X126566562Y-74777876D01*
X126566560Y-74777874D01*
X126377404Y-74660754D01*
X126377398Y-74660752D01*
X126354680Y-74651951D01*
X126169940Y-74580382D01*
X125951243Y-74539500D01*
X125728757Y-74539500D01*
X125510060Y-74580382D01*
X125400314Y-74622898D01*
X125302601Y-74660752D01*
X125302595Y-74660754D01*
X125113439Y-74777874D01*
X125113437Y-74777876D01*
X124949020Y-74927761D01*
X124814943Y-75105308D01*
X124814938Y-75105316D01*
X124715775Y-75304461D01*
X124715769Y-75304476D01*
X124654885Y-75518462D01*
X124654884Y-75518464D01*
X124634357Y-75739999D01*
X124634357Y-75740000D01*
X124654884Y-75961535D01*
X124654885Y-75961537D01*
X124715769Y-76175523D01*
X124715775Y-76175538D01*
X124814938Y-76374683D01*
X124814943Y-76374691D01*
X124949020Y-76552238D01*
X125099038Y-76688997D01*
X125135320Y-76748708D01*
X125139500Y-76780634D01*
X125139500Y-77775500D01*
X125119815Y-77842539D01*
X125067011Y-77888294D01*
X125015500Y-77899500D01*
X111394657Y-77899500D01*
X111347205Y-77890061D01*
X111318916Y-77878343D01*
X111318906Y-77878340D01*
X111173919Y-77849500D01*
X111173917Y-77849500D01*
X111026083Y-77849500D01*
X111026081Y-77849500D01*
X110881093Y-77878340D01*
X110881087Y-77878342D01*
X110744509Y-77934914D01*
X110744502Y-77934918D01*
X110682418Y-77976400D01*
X110621584Y-78017048D01*
X110621582Y-78017049D01*
X110621579Y-78017052D01*
X110621578Y-78017052D01*
X107797680Y-80840950D01*
X107736357Y-80874435D01*
X107666665Y-80869451D01*
X107622318Y-80840950D01*
X105333864Y-78552496D01*
X105300379Y-78491173D01*
X105305363Y-78421481D01*
X105338007Y-78373178D01*
X105360981Y-78352236D01*
X105495058Y-78174689D01*
X105594229Y-77975528D01*
X105655115Y-77761536D01*
X105675643Y-77540000D01*
X105655115Y-77318464D01*
X105594229Y-77104472D01*
X105584671Y-77085277D01*
X105495061Y-76905316D01*
X105495056Y-76905308D01*
X105360979Y-76727761D01*
X105196562Y-76577876D01*
X105196560Y-76577874D01*
X105007404Y-76460754D01*
X105007398Y-76460752D01*
X104799940Y-76380382D01*
X104581243Y-76339500D01*
X104358757Y-76339500D01*
X104140060Y-76380382D01*
X104040056Y-76419124D01*
X103932601Y-76460752D01*
X103932595Y-76460754D01*
X103743439Y-76577874D01*
X103743437Y-76577876D01*
X103579020Y-76727761D01*
X103444943Y-76905308D01*
X103444938Y-76905316D01*
X103345775Y-77104461D01*
X103345769Y-77104476D01*
X103284885Y-77318462D01*
X103284884Y-77318464D01*
X103264357Y-77539999D01*
X103264357Y-77540000D01*
X103284884Y-77761535D01*
X103284885Y-77761537D01*
X103345769Y-77975523D01*
X103345775Y-77975538D01*
X103444938Y-78174683D01*
X103444943Y-78174691D01*
X103511980Y-78263462D01*
X103579019Y-78352236D01*
X103679039Y-78443416D01*
X103715319Y-78503126D01*
X103719500Y-78535052D01*
X103719500Y-78823918D01*
X103719500Y-78823920D01*
X103719499Y-78823920D01*
X103748340Y-78968907D01*
X103748343Y-78968917D01*
X103804912Y-79105488D01*
X103804914Y-79105492D01*
X103804916Y-79105495D01*
X103820956Y-79129500D01*
X103887049Y-79228417D01*
X106923181Y-82264549D01*
X106956666Y-82325872D01*
X106959500Y-82352230D01*
X106959500Y-85299947D01*
X106939815Y-85366986D01*
X106919038Y-85391584D01*
X106819025Y-85482757D01*
X106819021Y-85482761D01*
X106684943Y-85660308D01*
X106684938Y-85660316D01*
X106585775Y-85859461D01*
X106585769Y-85859476D01*
X106524885Y-86073462D01*
X106524884Y-86073464D01*
X106504357Y-86294999D01*
X106504357Y-86295001D01*
X106517217Y-86433793D01*
X106503802Y-86502362D01*
X106481427Y-86532914D01*
X105455890Y-87558451D01*
X105455884Y-87558458D01*
X105414038Y-87621087D01*
X105414038Y-87621088D01*
X105379223Y-87673191D01*
X105379222Y-87673193D01*
X105326421Y-87800667D01*
X105326418Y-87800677D01*
X105299500Y-87936004D01*
X105299500Y-87936007D01*
X105299500Y-103681006D01*
X105299500Y-103818994D01*
X105299500Y-103818996D01*
X105299499Y-103818996D01*
X105326418Y-103954322D01*
X105326421Y-103954332D01*
X105379222Y-104081807D01*
X105455887Y-104196545D01*
X106713454Y-105454112D01*
X106828192Y-105530777D01*
X106955667Y-105583578D01*
X106955672Y-105583580D01*
X106955676Y-105583580D01*
X106955677Y-105583581D01*
X107091003Y-105610500D01*
X107091006Y-105610500D01*
X107091007Y-105610500D01*
X107302895Y-105610500D01*
X107369934Y-105630185D01*
X107401849Y-105659773D01*
X107449020Y-105722238D01*
X107613437Y-105872123D01*
X107613439Y-105872125D01*
X107802595Y-105989245D01*
X107802596Y-105989245D01*
X107802599Y-105989247D01*
X108010060Y-106069618D01*
X108228757Y-106110500D01*
X108228759Y-106110500D01*
X108451241Y-106110500D01*
X108451243Y-106110500D01*
X108669940Y-106069618D01*
X108877401Y-105989247D01*
X109066562Y-105872124D01*
X109206282Y-105744751D01*
X109230979Y-105722238D01*
X109244522Y-105704305D01*
X109365058Y-105544689D01*
X109464229Y-105345528D01*
X109525115Y-105131536D01*
X109525115Y-105131533D01*
X109525869Y-105128884D01*
X109563148Y-105069791D01*
X109626457Y-105040233D01*
X109695697Y-105049595D01*
X109748884Y-105094904D01*
X109764909Y-105130723D01*
X109773607Y-105163184D01*
X109773607Y-105163185D01*
X109773608Y-105163186D01*
X109839500Y-105277314D01*
X109839502Y-105277316D01*
X110588768Y-106026582D01*
X110622253Y-106087905D01*
X110620862Y-106146356D01*
X110573793Y-106322020D01*
X110573793Y-106322023D01*
X110573038Y-106330649D01*
X110554723Y-106539997D01*
X110554723Y-106540002D01*
X110573793Y-106757975D01*
X110573793Y-106757979D01*
X110630422Y-106969322D01*
X110630424Y-106969326D01*
X110630425Y-106969330D01*
X110641609Y-106993314D01*
X110722897Y-107167638D01*
X110747998Y-107203486D01*
X110848402Y-107346877D01*
X111003123Y-107501598D01*
X111182361Y-107627102D01*
X111380670Y-107719575D01*
X111592023Y-107776207D01*
X111774926Y-107792208D01*
X111809998Y-107795277D01*
X111810000Y-107795277D01*
X111810002Y-107795277D01*
X111838254Y-107792805D01*
X112027977Y-107776207D01*
X112239330Y-107719575D01*
X112437639Y-107627102D01*
X112616877Y-107501598D01*
X112771598Y-107346877D01*
X112897102Y-107167639D01*
X112989575Y-106969330D01*
X113046207Y-106757977D01*
X113065277Y-106540000D01*
X113046207Y-106322023D01*
X112989575Y-106110670D01*
X112897102Y-105912362D01*
X112897100Y-105912359D01*
X112897099Y-105912357D01*
X112771599Y-105733124D01*
X112698248Y-105659773D01*
X112616877Y-105578402D01*
X112437639Y-105452898D01*
X112286414Y-105382381D01*
X112233977Y-105336210D01*
X112214825Y-105269016D01*
X112235041Y-105202135D01*
X112286414Y-105157618D01*
X112437639Y-105087102D01*
X112616877Y-104961598D01*
X112771598Y-104806877D01*
X112897102Y-104627639D01*
X112989575Y-104429330D01*
X113046207Y-104217977D01*
X113065277Y-104000000D01*
X113046207Y-103782023D01*
X112989575Y-103570670D01*
X112897102Y-103372362D01*
X112897100Y-103372359D01*
X112897099Y-103372357D01*
X112771599Y-103193124D01*
X112715935Y-103137460D01*
X112616877Y-103038402D01*
X112437639Y-102912898D01*
X112286414Y-102842381D01*
X112233977Y-102796210D01*
X112214825Y-102729016D01*
X112235041Y-102662135D01*
X112286414Y-102617618D01*
X112437639Y-102547102D01*
X112616877Y-102421598D01*
X112771598Y-102266877D01*
X112897102Y-102087639D01*
X112989575Y-101889330D01*
X113046207Y-101677977D01*
X113063479Y-101480547D01*
X113065277Y-101460002D01*
X113065277Y-101459997D01*
X113058331Y-101380606D01*
X113046207Y-101242023D01*
X112999958Y-101069418D01*
X112989577Y-101030677D01*
X112989576Y-101030676D01*
X112989575Y-101030670D01*
X112897102Y-100832362D01*
X112897100Y-100832359D01*
X112897099Y-100832357D01*
X112771599Y-100653124D01*
X112694244Y-100575769D01*
X112616877Y-100498402D01*
X112437639Y-100372898D01*
X112286414Y-100302381D01*
X112233977Y-100256210D01*
X112214825Y-100189016D01*
X112235041Y-100122135D01*
X112286414Y-100077618D01*
X112437639Y-100007102D01*
X112616877Y-99881598D01*
X112771598Y-99726877D01*
X112897102Y-99547639D01*
X112989575Y-99349330D01*
X113046207Y-99137977D01*
X113065277Y-98920000D01*
X113046207Y-98702023D01*
X113008012Y-98559476D01*
X112989577Y-98490677D01*
X112989576Y-98490676D01*
X112989575Y-98490670D01*
X112897102Y-98292362D01*
X112897100Y-98292359D01*
X112897099Y-98292357D01*
X112771599Y-98113124D01*
X112698772Y-98040297D01*
X112616877Y-97958402D01*
X112437639Y-97832898D01*
X112286414Y-97762381D01*
X112233977Y-97716210D01*
X112214825Y-97649016D01*
X112235041Y-97582135D01*
X112286414Y-97537618D01*
X112437639Y-97467102D01*
X112616877Y-97341598D01*
X112771598Y-97186877D01*
X112897102Y-97007639D01*
X112989575Y-96809330D01*
X113046207Y-96597977D01*
X113065277Y-96380000D01*
X113063339Y-96357853D01*
X113057536Y-96291518D01*
X113046207Y-96162023D01*
X113008012Y-96019476D01*
X112989577Y-95950677D01*
X112989576Y-95950676D01*
X112989575Y-95950670D01*
X112897102Y-95752362D01*
X112897100Y-95752359D01*
X112897099Y-95752357D01*
X112771599Y-95573124D01*
X112699342Y-95500867D01*
X112616877Y-95418402D01*
X112470733Y-95316071D01*
X112427112Y-95261497D01*
X112419919Y-95191998D01*
X112451441Y-95129644D01*
X112511671Y-95094230D01*
X112541859Y-95090499D01*
X112691518Y-95090499D01*
X112785304Y-95075646D01*
X112898342Y-95018050D01*
X112988050Y-94928342D01*
X113045646Y-94815304D01*
X113045646Y-94815302D01*
X113045647Y-94815301D01*
X113059594Y-94727238D01*
X113060500Y-94721519D01*
X113060499Y-92958482D01*
X113045646Y-92864696D01*
X112988050Y-92751658D01*
X112988046Y-92751654D01*
X112988045Y-92751652D01*
X112898347Y-92661954D01*
X112898344Y-92661952D01*
X112898342Y-92661950D01*
X112821517Y-92622805D01*
X112785301Y-92604352D01*
X112691524Y-92589500D01*
X112691519Y-92589500D01*
X112223676Y-92589500D01*
X112156637Y-92569815D01*
X112135995Y-92553181D01*
X108889989Y-89307175D01*
X108856504Y-89245852D01*
X108858404Y-89185559D01*
X108860039Y-89179815D01*
X108895115Y-89056536D01*
X108915643Y-88835000D01*
X108914826Y-88826188D01*
X108895115Y-88613464D01*
X108895114Y-88613462D01*
X108891213Y-88599752D01*
X108834229Y-88399472D01*
X108834224Y-88399461D01*
X108735061Y-88200316D01*
X108735056Y-88200308D01*
X108600979Y-88022761D01*
X108436562Y-87872876D01*
X108436560Y-87872874D01*
X108247404Y-87755754D01*
X108247395Y-87755750D01*
X108137531Y-87713189D01*
X108053475Y-87680625D01*
X107998075Y-87638054D01*
X107974484Y-87572288D01*
X107990195Y-87504207D01*
X108040219Y-87455428D01*
X108053466Y-87449377D01*
X108247401Y-87374247D01*
X108436562Y-87257124D01*
X108600981Y-87107236D01*
X108735058Y-86929689D01*
X108834229Y-86730528D01*
X108895115Y-86516536D01*
X108915643Y-86295000D01*
X108910500Y-86239502D01*
X108895115Y-86073464D01*
X108895114Y-86073462D01*
X108834230Y-85859476D01*
X108834229Y-85859472D01*
X108834224Y-85859461D01*
X108735061Y-85660316D01*
X108735056Y-85660308D01*
X108675262Y-85581128D01*
X108600981Y-85482764D01*
X108600978Y-85482761D01*
X108600974Y-85482757D01*
X108500962Y-85391584D01*
X108464680Y-85331873D01*
X108460500Y-85299947D01*
X108460500Y-82352230D01*
X108480185Y-82285191D01*
X108496819Y-82264549D01*
X111324549Y-79436819D01*
X111385872Y-79403334D01*
X111412230Y-79400500D01*
X111422419Y-79400500D01*
X111489458Y-79420185D01*
X111535213Y-79472989D01*
X111545515Y-79509553D01*
X111564859Y-79668869D01*
X111564860Y-79668874D01*
X111625182Y-79827931D01*
X111687475Y-79918177D01*
X111721817Y-79967929D01*
X111793782Y-80031684D01*
X111849150Y-80080736D01*
X111989787Y-80154548D01*
X111999775Y-80159790D01*
X112164944Y-80200500D01*
X112335056Y-80200500D01*
X112500225Y-80159790D01*
X112650852Y-80080734D01*
X112706218Y-80031683D01*
X112769451Y-80001963D01*
X112788445Y-80000500D01*
X147831324Y-80000500D01*
X147898363Y-80020185D01*
X147919005Y-80036819D01*
X148633181Y-80750995D01*
X148666666Y-80812318D01*
X148669500Y-80838676D01*
X148669500Y-81479446D01*
X148649815Y-81546485D01*
X148597906Y-81591828D01*
X148517266Y-81629431D01*
X148330858Y-81759954D01*
X148169954Y-81920858D01*
X148039432Y-82107265D01*
X148039431Y-82107267D01*
X148012382Y-82165275D01*
X147966209Y-82217714D01*
X147899016Y-82236866D01*
X147832135Y-82216650D01*
X147787618Y-82165275D01*
X147770913Y-82129451D01*
X147760568Y-82107266D01*
X147630047Y-81920861D01*
X147630045Y-81920858D01*
X147469141Y-81759954D01*
X147282734Y-81629432D01*
X147282732Y-81629431D01*
X147076497Y-81533261D01*
X147076488Y-81533258D01*
X146856697Y-81474366D01*
X146856693Y-81474365D01*
X146856692Y-81474365D01*
X146856691Y-81474364D01*
X146856686Y-81474364D01*
X146630002Y-81454532D01*
X146629998Y-81454532D01*
X146403313Y-81474364D01*
X146403302Y-81474366D01*
X146183511Y-81533258D01*
X146183502Y-81533261D01*
X145977267Y-81629431D01*
X145977265Y-81629432D01*
X145790858Y-81759954D01*
X145629954Y-81920858D01*
X145499432Y-82107265D01*
X145499431Y-82107267D01*
X145472382Y-82165275D01*
X145426209Y-82217714D01*
X145359016Y-82236866D01*
X145292135Y-82216650D01*
X145247618Y-82165275D01*
X145230913Y-82129451D01*
X145220568Y-82107266D01*
X145090047Y-81920861D01*
X145090045Y-81920858D01*
X144929141Y-81759954D01*
X144742734Y-81629432D01*
X144742732Y-81629431D01*
X144536497Y-81533261D01*
X144536488Y-81533258D01*
X144316697Y-81474366D01*
X144316693Y-81474365D01*
X144316692Y-81474365D01*
X144316691Y-81474364D01*
X144316686Y-81474364D01*
X144090002Y-81454532D01*
X144089998Y-81454532D01*
X143863313Y-81474364D01*
X143863302Y-81474366D01*
X143643511Y-81533258D01*
X143643502Y-81533261D01*
X143437267Y-81629431D01*
X143437265Y-81629432D01*
X143250858Y-81759954D01*
X143089954Y-81920858D01*
X142959432Y-82107265D01*
X142959431Y-82107267D01*
X142932382Y-82165275D01*
X142886209Y-82217714D01*
X142819016Y-82236866D01*
X142752135Y-82216650D01*
X142707618Y-82165275D01*
X142690913Y-82129451D01*
X142680568Y-82107266D01*
X142550047Y-81920861D01*
X142550045Y-81920858D01*
X142389141Y-81759954D01*
X142202734Y-81629432D01*
X142202732Y-81629431D01*
X141996497Y-81533261D01*
X141996488Y-81533258D01*
X141776697Y-81474366D01*
X141776693Y-81474365D01*
X141776692Y-81474365D01*
X141776691Y-81474364D01*
X141776686Y-81474364D01*
X141550002Y-81454532D01*
X141549998Y-81454532D01*
X141323313Y-81474364D01*
X141323302Y-81474366D01*
X141103511Y-81533258D01*
X141103502Y-81533261D01*
X140897267Y-81629431D01*
X140897265Y-81629432D01*
X140710858Y-81759954D01*
X140549954Y-81920858D01*
X140419432Y-82107265D01*
X140419431Y-82107267D01*
X140392382Y-82165275D01*
X140346209Y-82217714D01*
X140279016Y-82236866D01*
X140212135Y-82216650D01*
X140167618Y-82165275D01*
X140150913Y-82129451D01*
X140140568Y-82107266D01*
X140010047Y-81920861D01*
X140010045Y-81920858D01*
X139849141Y-81759954D01*
X139662734Y-81629432D01*
X139662732Y-81629431D01*
X139456497Y-81533261D01*
X139456488Y-81533258D01*
X139236697Y-81474366D01*
X139236693Y-81474365D01*
X139236692Y-81474365D01*
X139236691Y-81474364D01*
X139236686Y-81474364D01*
X139010002Y-81454532D01*
X139009998Y-81454532D01*
X138783313Y-81474364D01*
X138783302Y-81474366D01*
X138563511Y-81533258D01*
X138563502Y-81533261D01*
X138357267Y-81629431D01*
X138357265Y-81629432D01*
X138170858Y-81759954D01*
X138009954Y-81920858D01*
X137879432Y-82107265D01*
X137879431Y-82107267D01*
X137852382Y-82165275D01*
X137806209Y-82217714D01*
X137739016Y-82236866D01*
X137672135Y-82216650D01*
X137627618Y-82165275D01*
X137610913Y-82129451D01*
X137600568Y-82107266D01*
X137470047Y-81920861D01*
X137470045Y-81920858D01*
X137309141Y-81759954D01*
X137122734Y-81629432D01*
X137122732Y-81629431D01*
X136916497Y-81533261D01*
X136916488Y-81533258D01*
X136696697Y-81474366D01*
X136696693Y-81474365D01*
X136696692Y-81474365D01*
X136696691Y-81474364D01*
X136696686Y-81474364D01*
X136470002Y-81454532D01*
X136469998Y-81454532D01*
X136243313Y-81474364D01*
X136243302Y-81474366D01*
X136023511Y-81533258D01*
X136023502Y-81533261D01*
X135817267Y-81629431D01*
X135817265Y-81629432D01*
X135630858Y-81759954D01*
X135469954Y-81920858D01*
X135339432Y-82107265D01*
X135339431Y-82107267D01*
X135312382Y-82165275D01*
X135266209Y-82217714D01*
X135199016Y-82236866D01*
X135132135Y-82216650D01*
X135087618Y-82165275D01*
X135070913Y-82129451D01*
X135060568Y-82107266D01*
X134930047Y-81920861D01*
X134930045Y-81920858D01*
X134769141Y-81759954D01*
X134582734Y-81629432D01*
X134582732Y-81629431D01*
X134376497Y-81533261D01*
X134376488Y-81533258D01*
X134156697Y-81474366D01*
X134156693Y-81474365D01*
X134156692Y-81474365D01*
X134156691Y-81474364D01*
X134156686Y-81474364D01*
X133930002Y-81454532D01*
X133929998Y-81454532D01*
X133703313Y-81474364D01*
X133703302Y-81474366D01*
X133483511Y-81533258D01*
X133483502Y-81533261D01*
X133277267Y-81629431D01*
X133277265Y-81629432D01*
X133090858Y-81759954D01*
X132929954Y-81920858D01*
X132799432Y-82107265D01*
X132799431Y-82107267D01*
X132772382Y-82165275D01*
X132726209Y-82217714D01*
X132659016Y-82236866D01*
X132592135Y-82216650D01*
X132547618Y-82165275D01*
X132530913Y-82129451D01*
X132520568Y-82107266D01*
X132390047Y-81920861D01*
X132390045Y-81920858D01*
X132229141Y-81759954D01*
X132042734Y-81629432D01*
X132042732Y-81629431D01*
X131836497Y-81533261D01*
X131836488Y-81533258D01*
X131616697Y-81474366D01*
X131616693Y-81474365D01*
X131616692Y-81474365D01*
X131616691Y-81474364D01*
X131616686Y-81474364D01*
X131390002Y-81454532D01*
X131389998Y-81454532D01*
X131163313Y-81474364D01*
X131163302Y-81474366D01*
X130943511Y-81533258D01*
X130943502Y-81533261D01*
X130737267Y-81629431D01*
X130737265Y-81629432D01*
X130550858Y-81759954D01*
X130389954Y-81920858D01*
X130259432Y-82107265D01*
X130259431Y-82107267D01*
X130232382Y-82165275D01*
X130186209Y-82217714D01*
X130119016Y-82236866D01*
X130052135Y-82216650D01*
X130007618Y-82165275D01*
X129990913Y-82129451D01*
X129980568Y-82107266D01*
X129850047Y-81920861D01*
X129850045Y-81920858D01*
X129689141Y-81759954D01*
X129502734Y-81629432D01*
X129502732Y-81629431D01*
X129296497Y-81533261D01*
X129296488Y-81533258D01*
X129076697Y-81474366D01*
X129076693Y-81474365D01*
X129076692Y-81474365D01*
X129076691Y-81474364D01*
X129076686Y-81474364D01*
X128850002Y-81454532D01*
X128849998Y-81454532D01*
X128623313Y-81474364D01*
X128623302Y-81474366D01*
X128403511Y-81533258D01*
X128403502Y-81533261D01*
X128197267Y-81629431D01*
X128197265Y-81629432D01*
X128010858Y-81759954D01*
X127849954Y-81920858D01*
X127719432Y-82107265D01*
X127719431Y-82107267D01*
X127692382Y-82165275D01*
X127646209Y-82217714D01*
X127579016Y-82236866D01*
X127512135Y-82216650D01*
X127467618Y-82165275D01*
X127450913Y-82129451D01*
X127440568Y-82107266D01*
X127310047Y-81920861D01*
X127310045Y-81920858D01*
X127149141Y-81759954D01*
X126962734Y-81629432D01*
X126962732Y-81629431D01*
X126756497Y-81533261D01*
X126756488Y-81533258D01*
X126536697Y-81474366D01*
X126536693Y-81474365D01*
X126536692Y-81474365D01*
X126536691Y-81474364D01*
X126536686Y-81474364D01*
X126310002Y-81454532D01*
X126309998Y-81454532D01*
X126083313Y-81474364D01*
X126083302Y-81474366D01*
X125863511Y-81533258D01*
X125863502Y-81533261D01*
X125657267Y-81629431D01*
X125657265Y-81629432D01*
X125470858Y-81759954D01*
X125309954Y-81920858D01*
X125179432Y-82107265D01*
X125179431Y-82107267D01*
X125152382Y-82165275D01*
X125106209Y-82217714D01*
X125039016Y-82236866D01*
X124972135Y-82216650D01*
X124927618Y-82165275D01*
X124910913Y-82129451D01*
X124900568Y-82107266D01*
X124770047Y-81920861D01*
X124770045Y-81920858D01*
X124609141Y-81759954D01*
X124422734Y-81629432D01*
X124422732Y-81629431D01*
X124216497Y-81533261D01*
X124216488Y-81533258D01*
X123996697Y-81474366D01*
X123996693Y-81474365D01*
X123996692Y-81474365D01*
X123996691Y-81474364D01*
X123996686Y-81474364D01*
X123770002Y-81454532D01*
X123769998Y-81454532D01*
X123543313Y-81474364D01*
X123543302Y-81474366D01*
X123323511Y-81533258D01*
X123323502Y-81533261D01*
X123117267Y-81629431D01*
X123117265Y-81629432D01*
X122930858Y-81759954D01*
X122769954Y-81920858D01*
X122639432Y-82107265D01*
X122639431Y-82107267D01*
X122612382Y-82165275D01*
X122566209Y-82217714D01*
X122499016Y-82236866D01*
X122432135Y-82216650D01*
X122387618Y-82165275D01*
X122370913Y-82129451D01*
X122360568Y-82107266D01*
X122230047Y-81920861D01*
X122230045Y-81920858D01*
X122069141Y-81759954D01*
X121882734Y-81629432D01*
X121882732Y-81629431D01*
X121676497Y-81533261D01*
X121676488Y-81533258D01*
X121456697Y-81474366D01*
X121456693Y-81474365D01*
X121456692Y-81474365D01*
X121456691Y-81474364D01*
X121456686Y-81474364D01*
X121230002Y-81454532D01*
X121229998Y-81454532D01*
X121003313Y-81474364D01*
X121003302Y-81474366D01*
X120783511Y-81533258D01*
X120783502Y-81533261D01*
X120577267Y-81629431D01*
X120577265Y-81629432D01*
X120390858Y-81759954D01*
X120229954Y-81920858D01*
X120099432Y-82107265D01*
X120099431Y-82107267D01*
X120072382Y-82165275D01*
X120026209Y-82217714D01*
X119959016Y-82236866D01*
X119892135Y-82216650D01*
X119847618Y-82165275D01*
X119830913Y-82129451D01*
X119820568Y-82107266D01*
X119690047Y-81920861D01*
X119690045Y-81920858D01*
X119529141Y-81759954D01*
X119342734Y-81629432D01*
X119342732Y-81629431D01*
X119136497Y-81533261D01*
X119136488Y-81533258D01*
X118916697Y-81474366D01*
X118916693Y-81474365D01*
X118916692Y-81474365D01*
X118916691Y-81474364D01*
X118916686Y-81474364D01*
X118690002Y-81454532D01*
X118689998Y-81454532D01*
X118463313Y-81474364D01*
X118463302Y-81474366D01*
X118243511Y-81533258D01*
X118243502Y-81533261D01*
X118037267Y-81629431D01*
X118037265Y-81629432D01*
X117850858Y-81759954D01*
X117689954Y-81920858D01*
X117559432Y-82107265D01*
X117559431Y-82107267D01*
X117463261Y-82313502D01*
X117463258Y-82313511D01*
X117404366Y-82533302D01*
X117404364Y-82533313D01*
X117384532Y-82759998D01*
X117384532Y-82760001D01*
X117404364Y-82986686D01*
X117404366Y-82986697D01*
X117463258Y-83206488D01*
X117463261Y-83206497D01*
X117559431Y-83412732D01*
X117559432Y-83412734D01*
X117689954Y-83599141D01*
X117850858Y-83760045D01*
X117850861Y-83760047D01*
X118037266Y-83890568D01*
X118243504Y-83986739D01*
X118243509Y-83986740D01*
X118243511Y-83986741D01*
X118277201Y-83995768D01*
X118463308Y-84045635D01*
X118625230Y-84059801D01*
X118689998Y-84065468D01*
X118690000Y-84065468D01*
X118690002Y-84065468D01*
X118746673Y-84060509D01*
X118916692Y-84045635D01*
X119136496Y-83986739D01*
X119342734Y-83890568D01*
X119529139Y-83760047D01*
X119690047Y-83599139D01*
X119820568Y-83412734D01*
X119847618Y-83354724D01*
X119893790Y-83302285D01*
X119960983Y-83283133D01*
X120027865Y-83303348D01*
X120072382Y-83354725D01*
X120099429Y-83412728D01*
X120099432Y-83412734D01*
X120229954Y-83599141D01*
X120390858Y-83760045D01*
X120390861Y-83760047D01*
X120577266Y-83890568D01*
X120783504Y-83986739D01*
X120783509Y-83986740D01*
X120783511Y-83986741D01*
X120817201Y-83995768D01*
X121003308Y-84045635D01*
X121165230Y-84059801D01*
X121229998Y-84065468D01*
X121230000Y-84065468D01*
X121230002Y-84065468D01*
X121286673Y-84060509D01*
X121456692Y-84045635D01*
X121676496Y-83986739D01*
X121882734Y-83890568D01*
X122069139Y-83760047D01*
X122230047Y-83599139D01*
X122360568Y-83412734D01*
X122387618Y-83354724D01*
X122433790Y-83302285D01*
X122500983Y-83283133D01*
X122567865Y-83303348D01*
X122612382Y-83354725D01*
X122639429Y-83412728D01*
X122639432Y-83412734D01*
X122769954Y-83599141D01*
X122930858Y-83760045D01*
X122930861Y-83760047D01*
X123117266Y-83890568D01*
X123323504Y-83986739D01*
X123323509Y-83986740D01*
X123323511Y-83986741D01*
X123357201Y-83995768D01*
X123543308Y-84045635D01*
X123705230Y-84059801D01*
X123769998Y-84065468D01*
X123770000Y-84065468D01*
X123770002Y-84065468D01*
X123826673Y-84060509D01*
X123996692Y-84045635D01*
X124216496Y-83986739D01*
X124422734Y-83890568D01*
X124609139Y-83760047D01*
X124770047Y-83599139D01*
X124900568Y-83412734D01*
X124927618Y-83354724D01*
X124973790Y-83302285D01*
X125040983Y-83283133D01*
X125107865Y-83303348D01*
X125152382Y-83354725D01*
X125179429Y-83412728D01*
X125179432Y-83412734D01*
X125309954Y-83599141D01*
X125470858Y-83760045D01*
X125470861Y-83760047D01*
X125657266Y-83890568D01*
X125863504Y-83986739D01*
X125863509Y-83986740D01*
X125863511Y-83986741D01*
X125897201Y-83995768D01*
X126083308Y-84045635D01*
X126245230Y-84059801D01*
X126309998Y-84065468D01*
X126310000Y-84065468D01*
X126310002Y-84065468D01*
X126366673Y-84060509D01*
X126536692Y-84045635D01*
X126756496Y-83986739D01*
X126962734Y-83890568D01*
X127149139Y-83760047D01*
X127310047Y-83599139D01*
X127440568Y-83412734D01*
X127467618Y-83354724D01*
X127513790Y-83302285D01*
X127580983Y-83283133D01*
X127647865Y-83303348D01*
X127692382Y-83354725D01*
X127719429Y-83412728D01*
X127719432Y-83412734D01*
X127849954Y-83599141D01*
X128010858Y-83760045D01*
X128010861Y-83760047D01*
X128197266Y-83890568D01*
X128403504Y-83986739D01*
X128403509Y-83986740D01*
X128403511Y-83986741D01*
X128437201Y-83995768D01*
X128623308Y-84045635D01*
X128785230Y-84059801D01*
X128849998Y-84065468D01*
X128850000Y-84065468D01*
X128850002Y-84065468D01*
X128906673Y-84060509D01*
X129076692Y-84045635D01*
X129296496Y-83986739D01*
X129502734Y-83890568D01*
X129689139Y-83760047D01*
X129850047Y-83599139D01*
X129980568Y-83412734D01*
X130007618Y-83354724D01*
X130053790Y-83302285D01*
X130120983Y-83283133D01*
X130187865Y-83303348D01*
X130232382Y-83354725D01*
X130259429Y-83412728D01*
X130259432Y-83412734D01*
X130389954Y-83599141D01*
X130550858Y-83760045D01*
X130550861Y-83760047D01*
X130737266Y-83890568D01*
X130943504Y-83986739D01*
X130943509Y-83986740D01*
X130943511Y-83986741D01*
X130977201Y-83995768D01*
X131163308Y-84045635D01*
X131325230Y-84059801D01*
X131389998Y-84065468D01*
X131390000Y-84065468D01*
X131390002Y-84065468D01*
X131446673Y-84060509D01*
X131616692Y-84045635D01*
X131836496Y-83986739D01*
X132042734Y-83890568D01*
X132229139Y-83760047D01*
X132390047Y-83599139D01*
X132520568Y-83412734D01*
X132547618Y-83354724D01*
X132593790Y-83302285D01*
X132660983Y-83283133D01*
X132727865Y-83303348D01*
X132772382Y-83354725D01*
X132799429Y-83412728D01*
X132799432Y-83412734D01*
X132929954Y-83599141D01*
X133090858Y-83760045D01*
X133090861Y-83760047D01*
X133277266Y-83890568D01*
X133483504Y-83986739D01*
X133483509Y-83986740D01*
X133483511Y-83986741D01*
X133517201Y-83995768D01*
X133703308Y-84045635D01*
X133865230Y-84059801D01*
X133929998Y-84065468D01*
X133930000Y-84065468D01*
X133930002Y-84065468D01*
X133986673Y-84060509D01*
X134156692Y-84045635D01*
X134376496Y-83986739D01*
X134582734Y-83890568D01*
X134769139Y-83760047D01*
X134930047Y-83599139D01*
X135060568Y-83412734D01*
X135087618Y-83354724D01*
X135133790Y-83302285D01*
X135200983Y-83283133D01*
X135267865Y-83303348D01*
X135312382Y-83354725D01*
X135339429Y-83412728D01*
X135339432Y-83412734D01*
X135469954Y-83599141D01*
X135630858Y-83760045D01*
X135630861Y-83760047D01*
X135817266Y-83890568D01*
X136023504Y-83986739D01*
X136023509Y-83986740D01*
X136023511Y-83986741D01*
X136057201Y-83995768D01*
X136243308Y-84045635D01*
X136405230Y-84059801D01*
X136469998Y-84065468D01*
X136470000Y-84065468D01*
X136470002Y-84065468D01*
X136526673Y-84060509D01*
X136696692Y-84045635D01*
X136916496Y-83986739D01*
X137122734Y-83890568D01*
X137309139Y-83760047D01*
X137470047Y-83599139D01*
X137600568Y-83412734D01*
X137627618Y-83354724D01*
X137673790Y-83302285D01*
X137740983Y-83283133D01*
X137807865Y-83303348D01*
X137852382Y-83354725D01*
X137879429Y-83412728D01*
X137879432Y-83412734D01*
X138009954Y-83599141D01*
X138170858Y-83760045D01*
X138170861Y-83760047D01*
X138357266Y-83890568D01*
X138563504Y-83986739D01*
X138563509Y-83986740D01*
X138563511Y-83986741D01*
X138597201Y-83995768D01*
X138783308Y-84045635D01*
X138945230Y-84059801D01*
X139009998Y-84065468D01*
X139010000Y-84065468D01*
X139010002Y-84065468D01*
X139066673Y-84060509D01*
X139236692Y-84045635D01*
X139456496Y-83986739D01*
X139662734Y-83890568D01*
X139849139Y-83760047D01*
X140010047Y-83599139D01*
X140140568Y-83412734D01*
X140167618Y-83354724D01*
X140213790Y-83302285D01*
X140280983Y-83283133D01*
X140347865Y-83303348D01*
X140392382Y-83354725D01*
X140419429Y-83412728D01*
X140419432Y-83412734D01*
X140549954Y-83599141D01*
X140710858Y-83760045D01*
X140710861Y-83760047D01*
X140897266Y-83890568D01*
X141103504Y-83986739D01*
X141103509Y-83986740D01*
X141103511Y-83986741D01*
X141137201Y-83995768D01*
X141323308Y-84045635D01*
X141485230Y-84059801D01*
X141549998Y-84065468D01*
X141550000Y-84065468D01*
X141550002Y-84065468D01*
X141606673Y-84060509D01*
X141776692Y-84045635D01*
X141996496Y-83986739D01*
X142202734Y-83890568D01*
X142389139Y-83760047D01*
X142550047Y-83599139D01*
X142680568Y-83412734D01*
X142707618Y-83354724D01*
X142753790Y-83302285D01*
X142820983Y-83283133D01*
X142887865Y-83303348D01*
X142932382Y-83354725D01*
X142959429Y-83412728D01*
X142959432Y-83412734D01*
X143089954Y-83599141D01*
X143250858Y-83760045D01*
X143250861Y-83760047D01*
X143437266Y-83890568D01*
X143643504Y-83986739D01*
X143643509Y-83986740D01*
X143643511Y-83986741D01*
X143677201Y-83995768D01*
X143863308Y-84045635D01*
X144025230Y-84059801D01*
X144089998Y-84065468D01*
X144090000Y-84065468D01*
X144090002Y-84065468D01*
X144146673Y-84060509D01*
X144316692Y-84045635D01*
X144536496Y-83986739D01*
X144742734Y-83890568D01*
X144929139Y-83760047D01*
X145090047Y-83599139D01*
X145220568Y-83412734D01*
X145247618Y-83354724D01*
X145293790Y-83302285D01*
X145360983Y-83283133D01*
X145427865Y-83303348D01*
X145472382Y-83354725D01*
X145499429Y-83412728D01*
X145499432Y-83412734D01*
X145629954Y-83599141D01*
X145790857Y-83760044D01*
X145810680Y-83773924D01*
X145854306Y-83828500D01*
X145861500Y-83897999D01*
X145829978Y-83960354D01*
X145769749Y-83995768D01*
X145739558Y-83999500D01*
X145184108Y-83999500D01*
X145056812Y-84033608D01*
X144942686Y-84099500D01*
X144942683Y-84099502D01*
X142442686Y-86599500D01*
X142442685Y-86599501D01*
X142352441Y-86689743D01*
X142291118Y-86723228D01*
X142221426Y-86718242D01*
X142202757Y-86709446D01*
X142202737Y-86709434D01*
X142202734Y-86709432D01*
X142186050Y-86701652D01*
X141996497Y-86613261D01*
X141996488Y-86613258D01*
X141776697Y-86554366D01*
X141776693Y-86554365D01*
X141776692Y-86554365D01*
X141776691Y-86554364D01*
X141776686Y-86554364D01*
X141550002Y-86534532D01*
X141549998Y-86534532D01*
X141323313Y-86554364D01*
X141323302Y-86554366D01*
X141103511Y-86613258D01*
X141103502Y-86613261D01*
X140897267Y-86709431D01*
X140897265Y-86709432D01*
X140710858Y-86839954D01*
X140549954Y-87000858D01*
X140419432Y-87187265D01*
X140419431Y-87187267D01*
X140392382Y-87245275D01*
X140346209Y-87297714D01*
X140279016Y-87316866D01*
X140212135Y-87296650D01*
X140167618Y-87245275D01*
X140155973Y-87220302D01*
X140140568Y-87187266D01*
X140023926Y-87020682D01*
X140010045Y-87000858D01*
X139849141Y-86839954D01*
X139662734Y-86709432D01*
X139662732Y-86709431D01*
X139456497Y-86613261D01*
X139456488Y-86613258D01*
X139236697Y-86554366D01*
X139236693Y-86554365D01*
X139236692Y-86554365D01*
X139236691Y-86554364D01*
X139236686Y-86554364D01*
X139010002Y-86534532D01*
X139009998Y-86534532D01*
X138783313Y-86554364D01*
X138783302Y-86554366D01*
X138563511Y-86613258D01*
X138563502Y-86613261D01*
X138357267Y-86709431D01*
X138357265Y-86709432D01*
X138170858Y-86839954D01*
X138009954Y-87000858D01*
X137879432Y-87187265D01*
X137879431Y-87187267D01*
X137852382Y-87245275D01*
X137806209Y-87297714D01*
X137739016Y-87316866D01*
X137672135Y-87296650D01*
X137627618Y-87245275D01*
X137615973Y-87220302D01*
X137600568Y-87187266D01*
X137483926Y-87020682D01*
X137470045Y-87000858D01*
X137309141Y-86839954D01*
X137122734Y-86709432D01*
X137122732Y-86709431D01*
X136916497Y-86613261D01*
X136916488Y-86613258D01*
X136696697Y-86554366D01*
X136696693Y-86554365D01*
X136696692Y-86554365D01*
X136696691Y-86554364D01*
X136696686Y-86554364D01*
X136470002Y-86534532D01*
X136469998Y-86534532D01*
X136243313Y-86554364D01*
X136243302Y-86554366D01*
X136023511Y-86613258D01*
X136023502Y-86613261D01*
X135817267Y-86709431D01*
X135817265Y-86709432D01*
X135630858Y-86839954D01*
X135469954Y-87000858D01*
X135339432Y-87187265D01*
X135339431Y-87187267D01*
X135312382Y-87245275D01*
X135266209Y-87297714D01*
X135199016Y-87316866D01*
X135132135Y-87296650D01*
X135087618Y-87245275D01*
X135075973Y-87220302D01*
X135060568Y-87187266D01*
X134943926Y-87020682D01*
X134930045Y-87000858D01*
X134769141Y-86839954D01*
X134582734Y-86709432D01*
X134582732Y-86709431D01*
X134376497Y-86613261D01*
X134376488Y-86613258D01*
X134156697Y-86554366D01*
X134156693Y-86554365D01*
X134156692Y-86554365D01*
X134156691Y-86554364D01*
X134156686Y-86554364D01*
X133930002Y-86534532D01*
X133929998Y-86534532D01*
X133703313Y-86554364D01*
X133703302Y-86554366D01*
X133483511Y-86613258D01*
X133483502Y-86613261D01*
X133277267Y-86709431D01*
X133277265Y-86709432D01*
X133090858Y-86839954D01*
X132929954Y-87000858D01*
X132799432Y-87187265D01*
X132799431Y-87187267D01*
X132772382Y-87245275D01*
X132726209Y-87297714D01*
X132659016Y-87316866D01*
X132592135Y-87296650D01*
X132547618Y-87245275D01*
X132535973Y-87220302D01*
X132520568Y-87187266D01*
X132403926Y-87020682D01*
X132390045Y-87000858D01*
X132229141Y-86839954D01*
X132042734Y-86709432D01*
X132042732Y-86709431D01*
X131836497Y-86613261D01*
X131836488Y-86613258D01*
X131616697Y-86554366D01*
X131616693Y-86554365D01*
X131616692Y-86554365D01*
X131616691Y-86554364D01*
X131616686Y-86554364D01*
X131390002Y-86534532D01*
X131389998Y-86534532D01*
X131163313Y-86554364D01*
X131163302Y-86554366D01*
X130943511Y-86613258D01*
X130943502Y-86613261D01*
X130737267Y-86709431D01*
X130737265Y-86709432D01*
X130550858Y-86839954D01*
X130389954Y-87000858D01*
X130259432Y-87187265D01*
X130259431Y-87187267D01*
X130232382Y-87245275D01*
X130186209Y-87297714D01*
X130119016Y-87316866D01*
X130052135Y-87296650D01*
X130007618Y-87245275D01*
X129995973Y-87220302D01*
X129980568Y-87187266D01*
X129863926Y-87020682D01*
X129850045Y-87000858D01*
X129689141Y-86839954D01*
X129502734Y-86709432D01*
X129502732Y-86709431D01*
X129296497Y-86613261D01*
X129296488Y-86613258D01*
X129076697Y-86554366D01*
X129076693Y-86554365D01*
X129076692Y-86554365D01*
X129076691Y-86554364D01*
X129076686Y-86554364D01*
X128850002Y-86534532D01*
X128849998Y-86534532D01*
X128623313Y-86554364D01*
X128623302Y-86554366D01*
X128403511Y-86613258D01*
X128403502Y-86613261D01*
X128197267Y-86709431D01*
X128197265Y-86709432D01*
X128010858Y-86839954D01*
X127849954Y-87000858D01*
X127719432Y-87187265D01*
X127719431Y-87187267D01*
X127692382Y-87245275D01*
X127646209Y-87297714D01*
X127579016Y-87316866D01*
X127512135Y-87296650D01*
X127467618Y-87245275D01*
X127455973Y-87220302D01*
X127440568Y-87187266D01*
X127323926Y-87020682D01*
X127310045Y-87000858D01*
X127149141Y-86839954D01*
X126962734Y-86709432D01*
X126962732Y-86709431D01*
X126756497Y-86613261D01*
X126756488Y-86613258D01*
X126536697Y-86554366D01*
X126536693Y-86554365D01*
X126536692Y-86554365D01*
X126536691Y-86554364D01*
X126536686Y-86554364D01*
X126310002Y-86534532D01*
X126309998Y-86534532D01*
X126083313Y-86554364D01*
X126083302Y-86554366D01*
X125863511Y-86613258D01*
X125863502Y-86613262D01*
X125676905Y-86700274D01*
X125607827Y-86710766D01*
X125544043Y-86682246D01*
X125505804Y-86623770D01*
X125500500Y-86587892D01*
X125500500Y-86434110D01*
X125500500Y-86434108D01*
X125466392Y-86306814D01*
X125400500Y-86192686D01*
X125307314Y-86099500D01*
X124985602Y-85777788D01*
X124952117Y-85716465D01*
X124950187Y-85705053D01*
X124935140Y-85581128D01*
X124874818Y-85422070D01*
X124778183Y-85282071D01*
X124650852Y-85169266D01*
X124650849Y-85169263D01*
X124500226Y-85090210D01*
X124335056Y-85049500D01*
X124164944Y-85049500D01*
X123999773Y-85090210D01*
X123849150Y-85169263D01*
X123721816Y-85282072D01*
X123625182Y-85422068D01*
X123564860Y-85581125D01*
X123564859Y-85581130D01*
X123544355Y-85750000D01*
X123564859Y-85918869D01*
X123564860Y-85918874D01*
X123625182Y-86077931D01*
X123645607Y-86107521D01*
X123721817Y-86217929D01*
X123835565Y-86318701D01*
X123872692Y-86377890D01*
X123871924Y-86447755D01*
X123833507Y-86506115D01*
X123769636Y-86534440D01*
X123764146Y-86535044D01*
X123543312Y-86554364D01*
X123543302Y-86554366D01*
X123323511Y-86613258D01*
X123323502Y-86613261D01*
X123117267Y-86709431D01*
X123117265Y-86709432D01*
X122930858Y-86839954D01*
X122769954Y-87000858D01*
X122639432Y-87187265D01*
X122639431Y-87187267D01*
X122612382Y-87245275D01*
X122566209Y-87297714D01*
X122499016Y-87316866D01*
X122432135Y-87296650D01*
X122387618Y-87245275D01*
X122375973Y-87220302D01*
X122360568Y-87187266D01*
X122243926Y-87020682D01*
X122230045Y-87000858D01*
X122069141Y-86839954D01*
X121882734Y-86709432D01*
X121882732Y-86709431D01*
X121676497Y-86613261D01*
X121676488Y-86613258D01*
X121456697Y-86554366D01*
X121456693Y-86554365D01*
X121456692Y-86554365D01*
X121456691Y-86554364D01*
X121456686Y-86554364D01*
X121230002Y-86534532D01*
X121229998Y-86534532D01*
X121003313Y-86554364D01*
X121003302Y-86554366D01*
X120783511Y-86613258D01*
X120783502Y-86613261D01*
X120577267Y-86709431D01*
X120577265Y-86709432D01*
X120390858Y-86839954D01*
X120229954Y-87000858D01*
X120216074Y-87020682D01*
X120161498Y-87064307D01*
X120091999Y-87071501D01*
X120029644Y-87039979D01*
X119994230Y-86979749D01*
X119990499Y-86949559D01*
X119990499Y-86908482D01*
X119990498Y-86908475D01*
X119975646Y-86814696D01*
X119918050Y-86701658D01*
X119918046Y-86701654D01*
X119918045Y-86701652D01*
X119828347Y-86611954D01*
X119828344Y-86611952D01*
X119828342Y-86611950D01*
X119751517Y-86572805D01*
X119715301Y-86554352D01*
X119621524Y-86539500D01*
X117758482Y-86539500D01*
X117677519Y-86552323D01*
X117664696Y-86554354D01*
X117551658Y-86611950D01*
X117551657Y-86611951D01*
X117551652Y-86611954D01*
X117461954Y-86701652D01*
X117461951Y-86701657D01*
X117461950Y-86701658D01*
X117447240Y-86730528D01*
X117404352Y-86814698D01*
X117389500Y-86908475D01*
X117389500Y-88771517D01*
X117397370Y-88821204D01*
X117404354Y-88865304D01*
X117461950Y-88978342D01*
X117461952Y-88978344D01*
X117461954Y-88978347D01*
X117551652Y-89068045D01*
X117551654Y-89068046D01*
X117551658Y-89068050D01*
X117664672Y-89125634D01*
X117664698Y-89125647D01*
X117758475Y-89140499D01*
X117758481Y-89140500D01*
X119621518Y-89140499D01*
X119715304Y-89125646D01*
X119828342Y-89068050D01*
X119918050Y-88978342D01*
X119975646Y-88865304D01*
X119975646Y-88865302D01*
X119975647Y-88865301D01*
X119990499Y-88771525D01*
X119990500Y-88771519D01*
X119990499Y-88730441D01*
X120010182Y-88663405D01*
X120062985Y-88617649D01*
X120132143Y-88607704D01*
X120195700Y-88636727D01*
X120216073Y-88659317D01*
X120229954Y-88679141D01*
X120390858Y-88840045D01*
X120390861Y-88840047D01*
X120577266Y-88970568D01*
X120783504Y-89066739D01*
X120783509Y-89066740D01*
X120783511Y-89066741D01*
X120836415Y-89080916D01*
X121003308Y-89125635D01*
X121165230Y-89139801D01*
X121229998Y-89145468D01*
X121230000Y-89145468D01*
X121230002Y-89145468D01*
X121286796Y-89140499D01*
X121456692Y-89125635D01*
X121676496Y-89066739D01*
X121882734Y-88970568D01*
X122069139Y-88840047D01*
X122230047Y-88679139D01*
X122360568Y-88492734D01*
X122387618Y-88434724D01*
X122433790Y-88382285D01*
X122500983Y-88363133D01*
X122567865Y-88383348D01*
X122612382Y-88434725D01*
X122639429Y-88492728D01*
X122639432Y-88492734D01*
X122769954Y-88679141D01*
X122930858Y-88840045D01*
X122930861Y-88840047D01*
X123117266Y-88970568D01*
X123323504Y-89066739D01*
X123323509Y-89066740D01*
X123323511Y-89066741D01*
X123376415Y-89080916D01*
X123543308Y-89125635D01*
X123705230Y-89139801D01*
X123769998Y-89145468D01*
X123770000Y-89145468D01*
X123770002Y-89145468D01*
X123826796Y-89140499D01*
X123996692Y-89125635D01*
X124216496Y-89066739D01*
X124334339Y-89011787D01*
X124403413Y-89001296D01*
X124467197Y-89029815D01*
X124505437Y-89088291D01*
X124506514Y-89092071D01*
X124533608Y-89193186D01*
X124599500Y-89307314D01*
X127942686Y-92650500D01*
X128056814Y-92716392D01*
X128184107Y-92750500D01*
X128184108Y-92750500D01*
X137241324Y-92750500D01*
X137308363Y-92770185D01*
X137329005Y-92786819D01*
X139092686Y-94550500D01*
X139206814Y-94616392D01*
X139334108Y-94650500D01*
X139465893Y-94650500D01*
X140258054Y-94650500D01*
X140325093Y-94670185D01*
X140370848Y-94722989D01*
X140380792Y-94792147D01*
X140359629Y-94845621D01*
X140352508Y-94855793D01*
X140312897Y-94912362D01*
X140220426Y-95110668D01*
X140220422Y-95110677D01*
X140163793Y-95322020D01*
X140163793Y-95322024D01*
X140144723Y-95539997D01*
X140144723Y-95540002D01*
X140149245Y-95591686D01*
X140161632Y-95733281D01*
X140163793Y-95757975D01*
X140163793Y-95757979D01*
X140220422Y-95969322D01*
X140220424Y-95969326D01*
X140220425Y-95969330D01*
X140258358Y-96050677D01*
X140312897Y-96167638D01*
X140326525Y-96187101D01*
X140438402Y-96346877D01*
X140593123Y-96501598D01*
X140772361Y-96627102D01*
X140970670Y-96719575D01*
X141182023Y-96776207D01*
X141364926Y-96792208D01*
X141399998Y-96795277D01*
X141400000Y-96795277D01*
X141400002Y-96795277D01*
X141428254Y-96792805D01*
X141617977Y-96776207D01*
X141829330Y-96719575D01*
X142027639Y-96627102D01*
X142206877Y-96501598D01*
X142361598Y-96346877D01*
X142487102Y-96167639D01*
X142579575Y-95969330D01*
X142636207Y-95757977D01*
X142655277Y-95540000D01*
X142643080Y-95400589D01*
X142656846Y-95332092D01*
X142705462Y-95281909D01*
X142773490Y-95265975D01*
X142839334Y-95289350D01*
X142854289Y-95302103D01*
X143224144Y-95671958D01*
X143257629Y-95733281D01*
X143252645Y-95802973D01*
X143210773Y-95858906D01*
X143194090Y-95869435D01*
X143099149Y-95919265D01*
X143099148Y-95919266D01*
X143003545Y-96003963D01*
X142971816Y-96032072D01*
X142875182Y-96172068D01*
X142814860Y-96331125D01*
X142814859Y-96331130D01*
X142794355Y-96500000D01*
X142814859Y-96668869D01*
X142814860Y-96668874D01*
X142875182Y-96827931D01*
X142976078Y-96974103D01*
X142973807Y-96975670D01*
X142998034Y-97027190D01*
X142999500Y-97046204D01*
X142999500Y-97211323D01*
X142979815Y-97278362D01*
X142963181Y-97299004D01*
X142193416Y-98068768D01*
X142132093Y-98102253D01*
X142073642Y-98100862D01*
X141897977Y-98053793D01*
X141680002Y-98034723D01*
X141679998Y-98034723D01*
X141534682Y-98047436D01*
X141462023Y-98053793D01*
X141462020Y-98053793D01*
X141250677Y-98110422D01*
X141250668Y-98110426D01*
X141052361Y-98202898D01*
X141052357Y-98202900D01*
X140873121Y-98328402D01*
X140718402Y-98483121D01*
X140592900Y-98662357D01*
X140592898Y-98662361D01*
X140522382Y-98813583D01*
X140476209Y-98866022D01*
X140409016Y-98885174D01*
X140342135Y-98864958D01*
X140297618Y-98813583D01*
X140266682Y-98747241D01*
X140227102Y-98662362D01*
X140227100Y-98662359D01*
X140227099Y-98662357D01*
X140101599Y-98483124D01*
X140025482Y-98407007D01*
X139946877Y-98328402D01*
X139808978Y-98231844D01*
X139767638Y-98202897D01*
X139650583Y-98148314D01*
X139569330Y-98110425D01*
X139569326Y-98110424D01*
X139569322Y-98110422D01*
X139357977Y-98053793D01*
X139140002Y-98034723D01*
X139139998Y-98034723D01*
X138994682Y-98047436D01*
X138922023Y-98053793D01*
X138922020Y-98053793D01*
X138710677Y-98110422D01*
X138710668Y-98110426D01*
X138512361Y-98202898D01*
X138512357Y-98202900D01*
X138333121Y-98328402D01*
X138178402Y-98483121D01*
X138052900Y-98662357D01*
X138052898Y-98662361D01*
X137982382Y-98813583D01*
X137936209Y-98866022D01*
X137869016Y-98885174D01*
X137802135Y-98864958D01*
X137757618Y-98813583D01*
X137726682Y-98747241D01*
X137687102Y-98662362D01*
X137687100Y-98662359D01*
X137687099Y-98662357D01*
X137561599Y-98483124D01*
X137485482Y-98407007D01*
X137406877Y-98328402D01*
X137268978Y-98231844D01*
X137227638Y-98202897D01*
X137110583Y-98148314D01*
X137029330Y-98110425D01*
X137029326Y-98110424D01*
X137029322Y-98110422D01*
X136817977Y-98053793D01*
X136600002Y-98034723D01*
X136599998Y-98034723D01*
X136454682Y-98047436D01*
X136382023Y-98053793D01*
X136382020Y-98053793D01*
X136170677Y-98110422D01*
X136170668Y-98110426D01*
X135972361Y-98202898D01*
X135972357Y-98202900D01*
X135793121Y-98328402D01*
X135638402Y-98483121D01*
X135512900Y-98662357D01*
X135512898Y-98662361D01*
X135442382Y-98813583D01*
X135396209Y-98866022D01*
X135329016Y-98885174D01*
X135262135Y-98864958D01*
X135217618Y-98813583D01*
X135186682Y-98747241D01*
X135147102Y-98662362D01*
X135147100Y-98662359D01*
X135147099Y-98662357D01*
X135021599Y-98483124D01*
X134945482Y-98407007D01*
X134866877Y-98328402D01*
X134728978Y-98231844D01*
X134687638Y-98202897D01*
X134570583Y-98148314D01*
X134489330Y-98110425D01*
X134489326Y-98110424D01*
X134489322Y-98110422D01*
X134277977Y-98053793D01*
X134060002Y-98034723D01*
X134059998Y-98034723D01*
X133914682Y-98047436D01*
X133842023Y-98053793D01*
X133842020Y-98053793D01*
X133630677Y-98110422D01*
X133630668Y-98110426D01*
X133432361Y-98202898D01*
X133432357Y-98202900D01*
X133253121Y-98328402D01*
X133098402Y-98483121D01*
X132972900Y-98662357D01*
X132972898Y-98662361D01*
X132902382Y-98813583D01*
X132856209Y-98866022D01*
X132789016Y-98885174D01*
X132722135Y-98864958D01*
X132677618Y-98813583D01*
X132646682Y-98747241D01*
X132607102Y-98662362D01*
X132607100Y-98662359D01*
X132607099Y-98662357D01*
X132481599Y-98483124D01*
X132405482Y-98407007D01*
X132326877Y-98328402D01*
X132188978Y-98231844D01*
X132147638Y-98202897D01*
X132030583Y-98148314D01*
X131949330Y-98110425D01*
X131949326Y-98110424D01*
X131949322Y-98110422D01*
X131737977Y-98053793D01*
X131520002Y-98034723D01*
X131519998Y-98034723D01*
X131374682Y-98047436D01*
X131302023Y-98053793D01*
X131302020Y-98053793D01*
X131090677Y-98110422D01*
X131090668Y-98110426D01*
X130892361Y-98202898D01*
X130892357Y-98202900D01*
X130713121Y-98328402D01*
X130558402Y-98483121D01*
X130432900Y-98662357D01*
X130432898Y-98662361D01*
X130362382Y-98813583D01*
X130316209Y-98866022D01*
X130249016Y-98885174D01*
X130182135Y-98864958D01*
X130137618Y-98813583D01*
X130106682Y-98747241D01*
X130067102Y-98662362D01*
X130067100Y-98662359D01*
X130067099Y-98662357D01*
X129941599Y-98483124D01*
X129865482Y-98407007D01*
X129786877Y-98328402D01*
X129648978Y-98231844D01*
X129607638Y-98202897D01*
X129490583Y-98148314D01*
X129409330Y-98110425D01*
X129409326Y-98110424D01*
X129409322Y-98110422D01*
X129197977Y-98053793D01*
X128980002Y-98034723D01*
X128979998Y-98034723D01*
X128834682Y-98047436D01*
X128762023Y-98053793D01*
X128762020Y-98053793D01*
X128550677Y-98110422D01*
X128550668Y-98110426D01*
X128352361Y-98202898D01*
X128352357Y-98202900D01*
X128173121Y-98328402D01*
X128018402Y-98483121D01*
X127892900Y-98662357D01*
X127892898Y-98662361D01*
X127822382Y-98813583D01*
X127776209Y-98866022D01*
X127709016Y-98885174D01*
X127642135Y-98864958D01*
X127597618Y-98813583D01*
X127566682Y-98747241D01*
X127527102Y-98662362D01*
X127527100Y-98662359D01*
X127527099Y-98662357D01*
X127401599Y-98483124D01*
X127325482Y-98407007D01*
X127246877Y-98328402D01*
X127108978Y-98231844D01*
X127067638Y-98202897D01*
X126950583Y-98148314D01*
X126869330Y-98110425D01*
X126869326Y-98110424D01*
X126869322Y-98110422D01*
X126657977Y-98053793D01*
X126440002Y-98034723D01*
X126439998Y-98034723D01*
X126294682Y-98047436D01*
X126222023Y-98053793D01*
X126222020Y-98053793D01*
X126010677Y-98110422D01*
X126010668Y-98110426D01*
X125812361Y-98202898D01*
X125812357Y-98202900D01*
X125633121Y-98328402D01*
X125478402Y-98483121D01*
X125352900Y-98662357D01*
X125352898Y-98662361D01*
X125282382Y-98813583D01*
X125236209Y-98866022D01*
X125169016Y-98885174D01*
X125102135Y-98864958D01*
X125057618Y-98813583D01*
X125026682Y-98747241D01*
X124987102Y-98662362D01*
X124987100Y-98662359D01*
X124987099Y-98662357D01*
X124861599Y-98483124D01*
X124785482Y-98407007D01*
X124706877Y-98328402D01*
X124568978Y-98231844D01*
X124527638Y-98202897D01*
X124410583Y-98148314D01*
X124329330Y-98110425D01*
X124329326Y-98110424D01*
X124329322Y-98110422D01*
X124117977Y-98053793D01*
X123900002Y-98034723D01*
X123899998Y-98034723D01*
X123754682Y-98047436D01*
X123682023Y-98053793D01*
X123682020Y-98053793D01*
X123470677Y-98110422D01*
X123470668Y-98110426D01*
X123272361Y-98202898D01*
X123272357Y-98202900D01*
X123093121Y-98328402D01*
X122938402Y-98483121D01*
X122812900Y-98662357D01*
X122812898Y-98662361D01*
X122742382Y-98813583D01*
X122696209Y-98866022D01*
X122629016Y-98885174D01*
X122562135Y-98864958D01*
X122517618Y-98813583D01*
X122486682Y-98747241D01*
X122447102Y-98662362D01*
X122447100Y-98662359D01*
X122447099Y-98662357D01*
X122321599Y-98483124D01*
X122245482Y-98407007D01*
X122166877Y-98328402D01*
X122028978Y-98231844D01*
X121987638Y-98202897D01*
X121870583Y-98148314D01*
X121789330Y-98110425D01*
X121789326Y-98110424D01*
X121789322Y-98110422D01*
X121577977Y-98053793D01*
X121360002Y-98034723D01*
X121359998Y-98034723D01*
X121214682Y-98047436D01*
X121142023Y-98053793D01*
X121142020Y-98053793D01*
X120930677Y-98110422D01*
X120930668Y-98110426D01*
X120732361Y-98202898D01*
X120732357Y-98202900D01*
X120553121Y-98328402D01*
X120398402Y-98483121D01*
X120272900Y-98662357D01*
X120272898Y-98662361D01*
X120202382Y-98813583D01*
X120156209Y-98866022D01*
X120089016Y-98885174D01*
X120022135Y-98864958D01*
X119977618Y-98813583D01*
X119946682Y-98747241D01*
X119907102Y-98662362D01*
X119907100Y-98662359D01*
X119907099Y-98662357D01*
X119781599Y-98483124D01*
X119705482Y-98407007D01*
X119626877Y-98328402D01*
X119488978Y-98231844D01*
X119447638Y-98202897D01*
X119330583Y-98148314D01*
X119249330Y-98110425D01*
X119249326Y-98110424D01*
X119249322Y-98110422D01*
X119037977Y-98053793D01*
X118820002Y-98034723D01*
X118819998Y-98034723D01*
X118674682Y-98047436D01*
X118602023Y-98053793D01*
X118602020Y-98053793D01*
X118390677Y-98110422D01*
X118390668Y-98110426D01*
X118192361Y-98202898D01*
X118192357Y-98202900D01*
X118013121Y-98328402D01*
X117858402Y-98483121D01*
X117732900Y-98662357D01*
X117732898Y-98662361D01*
X117640426Y-98860668D01*
X117640422Y-98860677D01*
X117583793Y-99072020D01*
X117583793Y-99072024D01*
X117564723Y-99289997D01*
X117564723Y-99290002D01*
X117569914Y-99349331D01*
X117582701Y-99495500D01*
X117583793Y-99507975D01*
X117583793Y-99507979D01*
X117640422Y-99719322D01*
X117640424Y-99719326D01*
X117640425Y-99719330D01*
X117673379Y-99790000D01*
X117732897Y-99917638D01*
X117748205Y-99939500D01*
X117858402Y-100096877D01*
X118013123Y-100251598D01*
X118159263Y-100353926D01*
X118202887Y-100408502D01*
X118210081Y-100478000D01*
X118178558Y-100540355D01*
X118118328Y-100575769D01*
X118088140Y-100579500D01*
X117938482Y-100579500D01*
X117857519Y-100592323D01*
X117844696Y-100594354D01*
X117731658Y-100651950D01*
X117731657Y-100651951D01*
X117731652Y-100651954D01*
X117641954Y-100741652D01*
X117641951Y-100741657D01*
X117641950Y-100741658D01*
X117630981Y-100763186D01*
X117584352Y-100854698D01*
X117569500Y-100948475D01*
X117569500Y-102711517D01*
X117577780Y-102763793D01*
X117584354Y-102805304D01*
X117641950Y-102918342D01*
X117641952Y-102918344D01*
X117641954Y-102918347D01*
X117731652Y-103008045D01*
X117731654Y-103008046D01*
X117731658Y-103008050D01*
X117824554Y-103055383D01*
X117844698Y-103065647D01*
X117938475Y-103080499D01*
X117938481Y-103080500D01*
X118095500Y-103080499D01*
X118162539Y-103100183D01*
X118208294Y-103152987D01*
X118219500Y-103204499D01*
X118219500Y-112096210D01*
X118199815Y-112163249D01*
X118166407Y-112196044D01*
X118167011Y-112196807D01*
X118161343Y-112201288D01*
X118037287Y-112325344D01*
X118000433Y-112385096D01*
X117948485Y-112431821D01*
X117894894Y-112444000D01*
X117192588Y-112444000D01*
X117125549Y-112424315D01*
X117079794Y-112371511D01*
X117068588Y-112319734D01*
X117068589Y-112319337D01*
X117069749Y-111779402D01*
X117083525Y-111722868D01*
X117132539Y-111627762D01*
X117163331Y-111486122D01*
X117156414Y-111341338D01*
X117112260Y-111203277D01*
X117001411Y-111030846D01*
X116987421Y-111009083D01*
X116971429Y-110972103D01*
X116970270Y-110967465D01*
X116969575Y-110964686D01*
X116969574Y-110964685D01*
X116969574Y-110964683D01*
X116968833Y-110962806D01*
X116968677Y-110962334D01*
X116968421Y-110961715D01*
X116967637Y-110959776D01*
X116967384Y-110959136D01*
X116967165Y-110958681D01*
X116966392Y-110956815D01*
X116966392Y-110956814D01*
X116936076Y-110904306D01*
X116935050Y-110902493D01*
X116905612Y-110849464D01*
X116904398Y-110847826D01*
X116904121Y-110847405D01*
X116903727Y-110846891D01*
X116902453Y-110845202D01*
X116902069Y-110844684D01*
X116901739Y-110844301D01*
X116900496Y-110842681D01*
X116857618Y-110799804D01*
X116856212Y-110798375D01*
X116814007Y-110754726D01*
X116814006Y-110754725D01*
X116814002Y-110754721D01*
X116812413Y-110753459D01*
X116812042Y-110753128D01*
X116811514Y-110752723D01*
X116809877Y-110751445D01*
X116809355Y-110751030D01*
X116808928Y-110750740D01*
X116807317Y-110749503D01*
X116807314Y-110749500D01*
X116790091Y-110739556D01*
X116768697Y-110723937D01*
X116746608Y-110703862D01*
X116746605Y-110703860D01*
X116746603Y-110703859D01*
X116617768Y-110637462D01*
X116617763Y-110637460D01*
X116582595Y-110629815D01*
X116476122Y-110606669D01*
X116476119Y-110606669D01*
X116331337Y-110613586D01*
X116280593Y-110629815D01*
X116237467Y-110643607D01*
X116199696Y-110649500D01*
X95524500Y-110649500D01*
X95457461Y-110629815D01*
X95411706Y-110577011D01*
X95400500Y-110525500D01*
X95400500Y-107390781D01*
X95993809Y-107390781D01*
X96013425Y-107677568D01*
X96013425Y-107677572D01*
X96013426Y-107677574D01*
X96022154Y-107719575D01*
X96071912Y-107959027D01*
X96071913Y-107959030D01*
X96168176Y-108229886D01*
X96168175Y-108229886D01*
X96300430Y-108485125D01*
X96300434Y-108485131D01*
X96466201Y-108719970D01*
X96662416Y-108930064D01*
X96704477Y-108964283D01*
X96885401Y-109111476D01*
X96885403Y-109111477D01*
X96885404Y-109111478D01*
X97131016Y-109260838D01*
X97131020Y-109260840D01*
X97394675Y-109375360D01*
X97394680Y-109375362D01*
X97671483Y-109452919D01*
X97920429Y-109487136D01*
X97956267Y-109492062D01*
X97956268Y-109492062D01*
X98243733Y-109492062D01*
X98274435Y-109487841D01*
X98528517Y-109452919D01*
X98805320Y-109375362D01*
X98910786Y-109329552D01*
X99068979Y-109260840D01*
X99068983Y-109260838D01*
X99068985Y-109260837D01*
X99314599Y-109111476D01*
X99537587Y-108930061D01*
X99733796Y-108719973D01*
X99899570Y-108485124D01*
X100031822Y-108229890D01*
X100031822Y-108229889D01*
X100031824Y-108229886D01*
X100108679Y-108013635D01*
X100128088Y-107959025D01*
X100186574Y-107677574D01*
X100206191Y-107390781D01*
X100186574Y-107103988D01*
X100128088Y-106822537D01*
X100031823Y-106551675D01*
X100031824Y-106551675D01*
X99899569Y-106296436D01*
X99899565Y-106296430D01*
X99733798Y-106061591D01*
X99569545Y-105885720D01*
X99537587Y-105851501D01*
X99537585Y-105851500D01*
X99537583Y-105851497D01*
X99314595Y-105670083D01*
X99068983Y-105520723D01*
X99068979Y-105520721D01*
X98805324Y-105406201D01*
X98528522Y-105328644D01*
X98528518Y-105328643D01*
X98528517Y-105328643D01*
X98347721Y-105303793D01*
X98243733Y-105289500D01*
X98243732Y-105289500D01*
X97956268Y-105289500D01*
X97956267Y-105289500D01*
X97671483Y-105328643D01*
X97671477Y-105328644D01*
X97394675Y-105406201D01*
X97131020Y-105520721D01*
X97131016Y-105520723D01*
X96885404Y-105670083D01*
X96662416Y-105851497D01*
X96466201Y-106061591D01*
X96300434Y-106296430D01*
X96300430Y-106296436D01*
X96168175Y-106551675D01*
X96071913Y-106822531D01*
X96071912Y-106822534D01*
X96013425Y-107103993D01*
X95993809Y-107390781D01*
X95400500Y-107390781D01*
X95400500Y-104909997D01*
X102035034Y-104909997D01*
X102035034Y-104910002D01*
X102054858Y-105136599D01*
X102054860Y-105136610D01*
X102113730Y-105356317D01*
X102113735Y-105356331D01*
X102209863Y-105562478D01*
X102260974Y-105635472D01*
X102940000Y-104956446D01*
X102940000Y-104962661D01*
X102967259Y-105064394D01*
X103019920Y-105155606D01*
X103094394Y-105230080D01*
X103185606Y-105282741D01*
X103287339Y-105310000D01*
X103293553Y-105310000D01*
X102614526Y-105989025D01*
X102687513Y-106040132D01*
X102687521Y-106040136D01*
X102893668Y-106136264D01*
X102893682Y-106136269D01*
X103113389Y-106195139D01*
X103113400Y-106195141D01*
X103339998Y-106214966D01*
X103340002Y-106214966D01*
X103566599Y-106195141D01*
X103566610Y-106195139D01*
X103786317Y-106136269D01*
X103786331Y-106136264D01*
X103992478Y-106040136D01*
X104065471Y-105989024D01*
X103386447Y-105310000D01*
X103392661Y-105310000D01*
X103494394Y-105282741D01*
X103585606Y-105230080D01*
X103660080Y-105155606D01*
X103712741Y-105064394D01*
X103740000Y-104962661D01*
X103740000Y-104956447D01*
X104419024Y-105635471D01*
X104470136Y-105562478D01*
X104566264Y-105356331D01*
X104566269Y-105356317D01*
X104625139Y-105136610D01*
X104625141Y-105136599D01*
X104644966Y-104910002D01*
X104644966Y-104909997D01*
X104625141Y-104683400D01*
X104625139Y-104683389D01*
X104566269Y-104463682D01*
X104566264Y-104463668D01*
X104470136Y-104257521D01*
X104470132Y-104257513D01*
X104419025Y-104184526D01*
X103740000Y-104863551D01*
X103740000Y-104857339D01*
X103712741Y-104755606D01*
X103660080Y-104664394D01*
X103585606Y-104589920D01*
X103494394Y-104537259D01*
X103392661Y-104510000D01*
X103386448Y-104510000D01*
X104065472Y-103830974D01*
X103992478Y-103779863D01*
X103786331Y-103683735D01*
X103786317Y-103683730D01*
X103566610Y-103624860D01*
X103566599Y-103624858D01*
X103340002Y-103605034D01*
X103339998Y-103605034D01*
X103113400Y-103624858D01*
X103113389Y-103624860D01*
X102893682Y-103683730D01*
X102893673Y-103683734D01*
X102687516Y-103779866D01*
X102687512Y-103779868D01*
X102614526Y-103830973D01*
X102614526Y-103830974D01*
X103293553Y-104510000D01*
X103287339Y-104510000D01*
X103185606Y-104537259D01*
X103094394Y-104589920D01*
X103019920Y-104664394D01*
X102967259Y-104755606D01*
X102940000Y-104857339D01*
X102940000Y-104863552D01*
X102260974Y-104184526D01*
X102260973Y-104184526D01*
X102209868Y-104257512D01*
X102209866Y-104257516D01*
X102113734Y-104463673D01*
X102113730Y-104463682D01*
X102054860Y-104683389D01*
X102054858Y-104683400D01*
X102035034Y-104909997D01*
X95400500Y-104909997D01*
X95400500Y-93939997D01*
X95714723Y-93939997D01*
X95714723Y-93940002D01*
X95733793Y-94157975D01*
X95733793Y-94157979D01*
X95790422Y-94369322D01*
X95790424Y-94369326D01*
X95790425Y-94369330D01*
X95836661Y-94468484D01*
X95882897Y-94567638D01*
X95882898Y-94567639D01*
X96008402Y-94746877D01*
X96163123Y-94901598D01*
X96331954Y-95019815D01*
X96342361Y-95027102D01*
X96493583Y-95097618D01*
X96546022Y-95143790D01*
X96565174Y-95210984D01*
X96544958Y-95277865D01*
X96493583Y-95322382D01*
X96342361Y-95392898D01*
X96342357Y-95392900D01*
X96163121Y-95518402D01*
X96008402Y-95673121D01*
X95882900Y-95852357D01*
X95882898Y-95852361D01*
X95790426Y-96050668D01*
X95790422Y-96050677D01*
X95733793Y-96262020D01*
X95733793Y-96262024D01*
X95714723Y-96479997D01*
X95714723Y-96480002D01*
X95716725Y-96502883D01*
X95733444Y-96693993D01*
X95733793Y-96697975D01*
X95733793Y-96697979D01*
X95790422Y-96909322D01*
X95790424Y-96909326D01*
X95790425Y-96909330D01*
X95817750Y-96967929D01*
X95882897Y-97107638D01*
X95882898Y-97107639D01*
X96008402Y-97286877D01*
X96163123Y-97441598D01*
X96300254Y-97537618D01*
X96342361Y-97567102D01*
X96493583Y-97637618D01*
X96546022Y-97683790D01*
X96565174Y-97750984D01*
X96544958Y-97817865D01*
X96493583Y-97862382D01*
X96342361Y-97932898D01*
X96342357Y-97932900D01*
X96163121Y-98058402D01*
X96008402Y-98213121D01*
X95882900Y-98392357D01*
X95882898Y-98392361D01*
X95790426Y-98590668D01*
X95790422Y-98590677D01*
X95733793Y-98802020D01*
X95733793Y-98802023D01*
X95731198Y-98831686D01*
X95714723Y-99019997D01*
X95714723Y-99020002D01*
X95719274Y-99072020D01*
X95732585Y-99224174D01*
X95733793Y-99237975D01*
X95733793Y-99237979D01*
X95790422Y-99449322D01*
X95790424Y-99449326D01*
X95790425Y-99449330D01*
X95820887Y-99514656D01*
X95882897Y-99647638D01*
X95882898Y-99647639D01*
X96008402Y-99826877D01*
X96163123Y-99981598D01*
X96342361Y-100107102D01*
X96540670Y-100199575D01*
X96540676Y-100199576D01*
X96540677Y-100199577D01*
X96571364Y-100207799D01*
X96752023Y-100256207D01*
X96924153Y-100271266D01*
X96969998Y-100275277D01*
X96970000Y-100275277D01*
X96970002Y-100275277D01*
X97004165Y-100272288D01*
X97187977Y-100256207D01*
X97399330Y-100199575D01*
X97597639Y-100107102D01*
X97776877Y-99981598D01*
X97931598Y-99826877D01*
X98057102Y-99647639D01*
X98094661Y-99567095D01*
X98140834Y-99514656D01*
X98207043Y-99495500D01*
X98921346Y-99495500D01*
X98988385Y-99515185D01*
X99032346Y-99564229D01*
X99064936Y-99629679D01*
X99064943Y-99629691D01*
X99199020Y-99807238D01*
X99363437Y-99957123D01*
X99363439Y-99957125D01*
X99552595Y-100074245D01*
X99552607Y-100074251D01*
X99605774Y-100094847D01*
X99661177Y-100137419D01*
X99684768Y-100203185D01*
X99669058Y-100271266D01*
X99619034Y-100320046D01*
X99613387Y-100322856D01*
X99437517Y-100404865D01*
X99251179Y-100535342D01*
X99090342Y-100696179D01*
X98959865Y-100882517D01*
X98863734Y-101088673D01*
X98863730Y-101088682D01*
X98811127Y-101284999D01*
X98811128Y-101285000D01*
X99774314Y-101285000D01*
X99769920Y-101289394D01*
X99717259Y-101380606D01*
X99690000Y-101482339D01*
X99690000Y-101587661D01*
X99717259Y-101689394D01*
X99769920Y-101780606D01*
X99774314Y-101785000D01*
X98811128Y-101785000D01*
X98863730Y-101981317D01*
X98863734Y-101981326D01*
X98959865Y-102187482D01*
X99090342Y-102373820D01*
X99251179Y-102534657D01*
X99437517Y-102665134D01*
X99643673Y-102761265D01*
X99643682Y-102761269D01*
X99839999Y-102813872D01*
X99840000Y-102813871D01*
X99840000Y-101850686D01*
X99844394Y-101855080D01*
X99935606Y-101907741D01*
X100037339Y-101935000D01*
X100142661Y-101935000D01*
X100244394Y-101907741D01*
X100335606Y-101855080D01*
X100340000Y-101850686D01*
X100340000Y-102813872D01*
X100536317Y-102761269D01*
X100536326Y-102761265D01*
X100742482Y-102665134D01*
X100928820Y-102534657D01*
X101089657Y-102373820D01*
X101220134Y-102187482D01*
X101316265Y-101981326D01*
X101316269Y-101981317D01*
X101368872Y-101785000D01*
X100405686Y-101785000D01*
X100410080Y-101780606D01*
X100462741Y-101689394D01*
X100490000Y-101587661D01*
X100490000Y-101482339D01*
X100462741Y-101380606D01*
X100410080Y-101289394D01*
X100405686Y-101285000D01*
X101368872Y-101285000D01*
X101368872Y-101284999D01*
X101316269Y-101088682D01*
X101316265Y-101088673D01*
X101220134Y-100882517D01*
X101089657Y-100696179D01*
X100928820Y-100535342D01*
X100742482Y-100404865D01*
X100566612Y-100322856D01*
X100514173Y-100276684D01*
X100495021Y-100209490D01*
X100515237Y-100142609D01*
X100568402Y-100097274D01*
X100574206Y-100094854D01*
X100601440Y-100084304D01*
X100627392Y-100074251D01*
X100627396Y-100074248D01*
X100627401Y-100074247D01*
X100816562Y-99957124D01*
X100980981Y-99807236D01*
X101115058Y-99629689D01*
X101214229Y-99430528D01*
X101275115Y-99216536D01*
X101295643Y-98995000D01*
X101275115Y-98773464D01*
X101214229Y-98559472D01*
X101198861Y-98528609D01*
X101115061Y-98360316D01*
X101115056Y-98360308D01*
X100980979Y-98182761D01*
X100816562Y-98032876D01*
X100816560Y-98032874D01*
X100627404Y-97915754D01*
X100627395Y-97915750D01*
X100506387Y-97868872D01*
X100433475Y-97840625D01*
X100378075Y-97798054D01*
X100354484Y-97732288D01*
X100370195Y-97664207D01*
X100420219Y-97615428D01*
X100433466Y-97609377D01*
X100627401Y-97534247D01*
X100816562Y-97417124D01*
X100980981Y-97267236D01*
X101115058Y-97089689D01*
X101214229Y-96890528D01*
X101275115Y-96676536D01*
X101295643Y-96455000D01*
X101294850Y-96446447D01*
X101275115Y-96233464D01*
X101275114Y-96233462D01*
X101263007Y-96190911D01*
X101214229Y-96019472D01*
X101207716Y-96006392D01*
X101115061Y-95820316D01*
X101115056Y-95820308D01*
X100980979Y-95642761D01*
X100816562Y-95492876D01*
X100816560Y-95492874D01*
X100627404Y-95375754D01*
X100627395Y-95375750D01*
X100514699Y-95332092D01*
X100433475Y-95300625D01*
X100378075Y-95258054D01*
X100354484Y-95192288D01*
X100370195Y-95124207D01*
X100420219Y-95075428D01*
X100433466Y-95069377D01*
X100627401Y-94994247D01*
X100816562Y-94877124D01*
X100974523Y-94733123D01*
X100980979Y-94727238D01*
X100987000Y-94719266D01*
X101115058Y-94549689D01*
X101214229Y-94350528D01*
X101275115Y-94136536D01*
X101295643Y-93915000D01*
X101292540Y-93881518D01*
X101275115Y-93693464D01*
X101275114Y-93693462D01*
X101272310Y-93683608D01*
X101214229Y-93479472D01*
X101198861Y-93448609D01*
X101115061Y-93280316D01*
X101115056Y-93280308D01*
X100980979Y-93102761D01*
X100816562Y-92952876D01*
X100816560Y-92952874D01*
X100627404Y-92835754D01*
X100627395Y-92835750D01*
X100514836Y-92792145D01*
X100433475Y-92760625D01*
X100378075Y-92718054D01*
X100354484Y-92652288D01*
X100370195Y-92584207D01*
X100420219Y-92535428D01*
X100433466Y-92529377D01*
X100627401Y-92454247D01*
X100816562Y-92337124D01*
X100980981Y-92187236D01*
X101115058Y-92009689D01*
X101214229Y-91810528D01*
X101275115Y-91596536D01*
X101295643Y-91375000D01*
X101275115Y-91153464D01*
X101214229Y-90939472D01*
X101214224Y-90939461D01*
X101115061Y-90740316D01*
X101115056Y-90740308D01*
X100980979Y-90562761D01*
X100816562Y-90412876D01*
X100816560Y-90412874D01*
X100627404Y-90295754D01*
X100627395Y-90295750D01*
X100533956Y-90259552D01*
X100433475Y-90220625D01*
X100378075Y-90178054D01*
X100354484Y-90112288D01*
X100370195Y-90044207D01*
X100420219Y-89995428D01*
X100433466Y-89989377D01*
X100627401Y-89914247D01*
X100816562Y-89797124D01*
X100956282Y-89669751D01*
X100980979Y-89647238D01*
X101001409Y-89620185D01*
X101115058Y-89469689D01*
X101214229Y-89270528D01*
X101275115Y-89056536D01*
X101295643Y-88835000D01*
X101294826Y-88826188D01*
X101275115Y-88613464D01*
X101275114Y-88613462D01*
X101271213Y-88599752D01*
X101214229Y-88399472D01*
X101214224Y-88399461D01*
X101115061Y-88200316D01*
X101115056Y-88200308D01*
X100980979Y-88022761D01*
X100816562Y-87872876D01*
X100816560Y-87872874D01*
X100627404Y-87755754D01*
X100627395Y-87755750D01*
X100574157Y-87735126D01*
X100518755Y-87692553D01*
X100495164Y-87626786D01*
X100510875Y-87558706D01*
X100560899Y-87509927D01*
X100618949Y-87495499D01*
X100921518Y-87495499D01*
X101015304Y-87480646D01*
X101128342Y-87423050D01*
X101218050Y-87333342D01*
X101275646Y-87220304D01*
X101275646Y-87220302D01*
X101275647Y-87220301D01*
X101288286Y-87140500D01*
X101290500Y-87126519D01*
X101290499Y-85463482D01*
X101275646Y-85369696D01*
X101218050Y-85256658D01*
X101218046Y-85256654D01*
X101218045Y-85256652D01*
X101128347Y-85166954D01*
X101128344Y-85166952D01*
X101128342Y-85166950D01*
X101034693Y-85119233D01*
X101015301Y-85109352D01*
X100921524Y-85094500D01*
X99258482Y-85094500D01*
X99177519Y-85107323D01*
X99164696Y-85109354D01*
X99051658Y-85166950D01*
X99051657Y-85166951D01*
X99051652Y-85166954D01*
X98961954Y-85256652D01*
X98961951Y-85256657D01*
X98961950Y-85256658D01*
X98949001Y-85282072D01*
X98904352Y-85369698D01*
X98889500Y-85463475D01*
X98889500Y-87126517D01*
X98899122Y-87187266D01*
X98904354Y-87220304D01*
X98961950Y-87333342D01*
X98961952Y-87333344D01*
X98961954Y-87333347D01*
X99051652Y-87423045D01*
X99051654Y-87423046D01*
X99051658Y-87423050D01*
X99159052Y-87477770D01*
X99164698Y-87480647D01*
X99258475Y-87495499D01*
X99258481Y-87495500D01*
X99561049Y-87495499D01*
X99628086Y-87515183D01*
X99673841Y-87567987D01*
X99683785Y-87637146D01*
X99654760Y-87700701D01*
X99605842Y-87735125D01*
X99552607Y-87755748D01*
X99552595Y-87755754D01*
X99363439Y-87872874D01*
X99363437Y-87872876D01*
X99199020Y-88022761D01*
X99064943Y-88200308D01*
X99064938Y-88200316D01*
X98965775Y-88399461D01*
X98965769Y-88399476D01*
X98904885Y-88613462D01*
X98904884Y-88613464D01*
X98884357Y-88834999D01*
X98884357Y-88835000D01*
X98904884Y-89056535D01*
X98904885Y-89056537D01*
X98965769Y-89270523D01*
X98965775Y-89270538D01*
X99064938Y-89469683D01*
X99064943Y-89469691D01*
X99199020Y-89647238D01*
X99363437Y-89797123D01*
X99363439Y-89797125D01*
X99552595Y-89914245D01*
X99552596Y-89914245D01*
X99552599Y-89914247D01*
X99746524Y-89989374D01*
X99801924Y-90031946D01*
X99825515Y-90097713D01*
X99809804Y-90165793D01*
X99759780Y-90214572D01*
X99746533Y-90220622D01*
X99621987Y-90268872D01*
X99552601Y-90295752D01*
X99552595Y-90295754D01*
X99363439Y-90412874D01*
X99363437Y-90412876D01*
X99199020Y-90562761D01*
X99064943Y-90740308D01*
X99064938Y-90740316D01*
X99019897Y-90830772D01*
X98972394Y-90882009D01*
X98908897Y-90899500D01*
X98344499Y-90899500D01*
X98277460Y-90879815D01*
X98231705Y-90827011D01*
X98220499Y-90775500D01*
X98220499Y-90518482D01*
X98220498Y-90518475D01*
X98205646Y-90424696D01*
X98148050Y-90311658D01*
X98148046Y-90311654D01*
X98148045Y-90311652D01*
X98058347Y-90221954D01*
X98058344Y-90221952D01*
X98058342Y-90221950D01*
X97965217Y-90174500D01*
X97945301Y-90164352D01*
X97851524Y-90149500D01*
X96088482Y-90149500D01*
X96007519Y-90162323D01*
X95994696Y-90164354D01*
X95881658Y-90221950D01*
X95881657Y-90221951D01*
X95881652Y-90221954D01*
X95791954Y-90311652D01*
X95791951Y-90311657D01*
X95734352Y-90424698D01*
X95719500Y-90518475D01*
X95719500Y-92281517D01*
X95730292Y-92349657D01*
X95734354Y-92375304D01*
X95791950Y-92488342D01*
X95791952Y-92488344D01*
X95791954Y-92488347D01*
X95881652Y-92578045D01*
X95881654Y-92578046D01*
X95881658Y-92578050D01*
X95985568Y-92630995D01*
X95994698Y-92635647D01*
X96088475Y-92650499D01*
X96088481Y-92650500D01*
X96238140Y-92650499D01*
X96305177Y-92670183D01*
X96350932Y-92722987D01*
X96360876Y-92792145D01*
X96331851Y-92855701D01*
X96309262Y-92876074D01*
X96163118Y-92978405D01*
X96008402Y-93133121D01*
X95882900Y-93312357D01*
X95882898Y-93312361D01*
X95790426Y-93510668D01*
X95790422Y-93510677D01*
X95733793Y-93722020D01*
X95733793Y-93722024D01*
X95714723Y-93939997D01*
X95400500Y-93939997D01*
X95400500Y-82539997D01*
X103165034Y-82539997D01*
X103165034Y-82540002D01*
X103184858Y-82766599D01*
X103184860Y-82766610D01*
X103243730Y-82986317D01*
X103243735Y-82986331D01*
X103339863Y-83192478D01*
X103390974Y-83265472D01*
X104070000Y-82586446D01*
X104070000Y-82592661D01*
X104097259Y-82694394D01*
X104149920Y-82785606D01*
X104224394Y-82860080D01*
X104315606Y-82912741D01*
X104417339Y-82940000D01*
X104423553Y-82940000D01*
X103744526Y-83619025D01*
X103817513Y-83670132D01*
X103817521Y-83670136D01*
X104023668Y-83766264D01*
X104023682Y-83766269D01*
X104243389Y-83825139D01*
X104243400Y-83825141D01*
X104469998Y-83844966D01*
X104470002Y-83844966D01*
X104696599Y-83825141D01*
X104696610Y-83825139D01*
X104916317Y-83766269D01*
X104916331Y-83766264D01*
X105122478Y-83670136D01*
X105195471Y-83619024D01*
X104516447Y-82940000D01*
X104522661Y-82940000D01*
X104624394Y-82912741D01*
X104715606Y-82860080D01*
X104790080Y-82785606D01*
X104842741Y-82694394D01*
X104870000Y-82592661D01*
X104870000Y-82586447D01*
X105549024Y-83265471D01*
X105600136Y-83192478D01*
X105696264Y-82986331D01*
X105696269Y-82986317D01*
X105755139Y-82766610D01*
X105755141Y-82766599D01*
X105774966Y-82540002D01*
X105774966Y-82539997D01*
X105755141Y-82313400D01*
X105755139Y-82313389D01*
X105696269Y-82093682D01*
X105696264Y-82093668D01*
X105600136Y-81887521D01*
X105600132Y-81887513D01*
X105549025Y-81814526D01*
X104870000Y-82493551D01*
X104870000Y-82487339D01*
X104842741Y-82385606D01*
X104790080Y-82294394D01*
X104715606Y-82219920D01*
X104624394Y-82167259D01*
X104522661Y-82140000D01*
X104516448Y-82140000D01*
X105195472Y-81460974D01*
X105122478Y-81409863D01*
X104916331Y-81313735D01*
X104916317Y-81313730D01*
X104696610Y-81254860D01*
X104696599Y-81254858D01*
X104470002Y-81235034D01*
X104469998Y-81235034D01*
X104243400Y-81254858D01*
X104243389Y-81254860D01*
X104023682Y-81313730D01*
X104023673Y-81313734D01*
X103817516Y-81409866D01*
X103817512Y-81409868D01*
X103744526Y-81460973D01*
X103744526Y-81460974D01*
X104423553Y-82140000D01*
X104417339Y-82140000D01*
X104315606Y-82167259D01*
X104224394Y-82219920D01*
X104149920Y-82294394D01*
X104097259Y-82385606D01*
X104070000Y-82487339D01*
X104070000Y-82493552D01*
X103390974Y-81814526D01*
X103390973Y-81814526D01*
X103339868Y-81887512D01*
X103339866Y-81887516D01*
X103243734Y-82093673D01*
X103243730Y-82093682D01*
X103184860Y-82313389D01*
X103184858Y-82313400D01*
X103165034Y-82539997D01*
X95400500Y-82539997D01*
X95400500Y-76500000D01*
X95983809Y-76500000D01*
X96003425Y-76786787D01*
X96003425Y-76786791D01*
X96003426Y-76786793D01*
X96016154Y-76848045D01*
X96061912Y-77068246D01*
X96061913Y-77068249D01*
X96158176Y-77339105D01*
X96158175Y-77339105D01*
X96290430Y-77594344D01*
X96290434Y-77594350D01*
X96456201Y-77829189D01*
X96513052Y-77890061D01*
X96631653Y-78017052D01*
X96652416Y-78039283D01*
X96686544Y-78067048D01*
X96875401Y-78220695D01*
X96875403Y-78220696D01*
X96875404Y-78220697D01*
X97121016Y-78370057D01*
X97121020Y-78370059D01*
X97329626Y-78460668D01*
X97384680Y-78484581D01*
X97661483Y-78562138D01*
X97911854Y-78596550D01*
X97946267Y-78601281D01*
X97946268Y-78601281D01*
X98233733Y-78601281D01*
X98264435Y-78597060D01*
X98518517Y-78562138D01*
X98795320Y-78484581D01*
X99051807Y-78373174D01*
X99058979Y-78370059D01*
X99058983Y-78370057D01*
X99058985Y-78370056D01*
X99304599Y-78220695D01*
X99527587Y-78039280D01*
X99723796Y-77829192D01*
X99889570Y-77594343D01*
X100021822Y-77339109D01*
X100021822Y-77339108D01*
X100021824Y-77339105D01*
X100113732Y-77080500D01*
X100118088Y-77068244D01*
X100176574Y-76786793D01*
X100196191Y-76500000D01*
X100176574Y-76213207D01*
X100118088Y-75931756D01*
X100091867Y-75857979D01*
X100053910Y-75751179D01*
X100021823Y-75660894D01*
X100021824Y-75660894D01*
X99889569Y-75405655D01*
X99889565Y-75405649D01*
X99723798Y-75170810D01*
X99610280Y-75049262D01*
X99527587Y-74960720D01*
X99527585Y-74960719D01*
X99527583Y-74960716D01*
X99304595Y-74779302D01*
X99058983Y-74629942D01*
X99058979Y-74629940D01*
X98795324Y-74515420D01*
X98518522Y-74437863D01*
X98518518Y-74437862D01*
X98518517Y-74437862D01*
X98276767Y-74404634D01*
X98233733Y-74398719D01*
X98233732Y-74398719D01*
X97946268Y-74398719D01*
X97946267Y-74398719D01*
X97661483Y-74437862D01*
X97661477Y-74437863D01*
X97384675Y-74515420D01*
X97121020Y-74629940D01*
X97121016Y-74629942D01*
X96875404Y-74779302D01*
X96652416Y-74960716D01*
X96456201Y-75170810D01*
X96290434Y-75405649D01*
X96290430Y-75405655D01*
X96158175Y-75660894D01*
X96061913Y-75931750D01*
X96061912Y-75931753D01*
X96003425Y-76213212D01*
X95983809Y-76500000D01*
X95400500Y-76500000D01*
X95400500Y-72124500D01*
X95420185Y-72057461D01*
X95472989Y-72011706D01*
X95524500Y-72000500D01*
X192375500Y-72000500D01*
X192442539Y-72020185D01*
G37*
G04 #@! TD.AperFunction*
G04 #@! TA.AperFunction,Conductor*
G36*
X178447865Y-88383348D02*
G01*
X178492382Y-88434725D01*
X178519429Y-88492728D01*
X178519432Y-88492734D01*
X178649954Y-88679141D01*
X178810858Y-88840045D01*
X178810861Y-88840047D01*
X178997266Y-88970568D01*
X179203504Y-89066739D01*
X179203509Y-89066740D01*
X179203511Y-89066741D01*
X179256415Y-89080916D01*
X179423308Y-89125635D01*
X179585230Y-89139801D01*
X179649998Y-89145468D01*
X179650000Y-89145468D01*
X179650002Y-89145468D01*
X179706796Y-89140499D01*
X179876692Y-89125635D01*
X180096496Y-89066739D01*
X180302734Y-88970568D01*
X180489139Y-88840047D01*
X180650047Y-88679139D01*
X180675088Y-88643377D01*
X180729665Y-88599752D01*
X180776663Y-88590500D01*
X185327770Y-88590500D01*
X185394809Y-88610185D01*
X185415451Y-88626819D01*
X186720951Y-89932319D01*
X186754436Y-89993642D01*
X186749452Y-90063334D01*
X186720951Y-90107681D01*
X182117048Y-94711583D01*
X182102660Y-94733118D01*
X182075888Y-94773186D01*
X182034919Y-94834499D01*
X182034912Y-94834511D01*
X181978343Y-94971082D01*
X181978340Y-94971092D01*
X181949500Y-95116079D01*
X181949500Y-99997770D01*
X181929815Y-100064809D01*
X181913181Y-100085451D01*
X180955451Y-101043181D01*
X180894128Y-101076666D01*
X180867770Y-101079500D01*
X180845624Y-101079500D01*
X180778585Y-101059815D01*
X180744048Y-101026622D01*
X180741598Y-101023123D01*
X180666950Y-100948475D01*
X180586877Y-100868402D01*
X180407639Y-100742898D01*
X180404967Y-100741652D01*
X180374133Y-100727273D01*
X180321694Y-100681100D01*
X180302543Y-100613907D01*
X180322760Y-100547026D01*
X180374135Y-100502509D01*
X180457580Y-100463598D01*
X180651082Y-100328105D01*
X180818105Y-100161082D01*
X180953600Y-99967578D01*
X181053429Y-99753492D01*
X181053432Y-99753486D01*
X181110636Y-99540000D01*
X180213012Y-99540000D01*
X180245925Y-99482993D01*
X180280000Y-99355826D01*
X180280000Y-99224174D01*
X180245925Y-99097007D01*
X180213012Y-99040000D01*
X181110636Y-99040000D01*
X181110635Y-99039999D01*
X181053432Y-98826513D01*
X181053429Y-98826507D01*
X180953600Y-98612422D01*
X180953599Y-98612420D01*
X180818113Y-98418926D01*
X180818108Y-98418920D01*
X180651082Y-98251894D01*
X180457578Y-98116399D01*
X180243492Y-98016570D01*
X180243486Y-98016567D01*
X180030000Y-97959364D01*
X180030000Y-98856988D01*
X179972993Y-98824075D01*
X179845826Y-98790000D01*
X179714174Y-98790000D01*
X179587007Y-98824075D01*
X179530000Y-98856988D01*
X179530000Y-97959364D01*
X179529999Y-97959364D01*
X179316513Y-98016567D01*
X179316507Y-98016570D01*
X179102422Y-98116399D01*
X179102420Y-98116400D01*
X178908926Y-98251886D01*
X178908920Y-98251891D01*
X178741891Y-98418920D01*
X178741886Y-98418926D01*
X178606400Y-98612420D01*
X178606399Y-98612422D01*
X178567489Y-98695866D01*
X178521317Y-98748305D01*
X178454123Y-98767457D01*
X178387242Y-98747241D01*
X178342725Y-98695866D01*
X178327102Y-98662362D01*
X178327100Y-98662359D01*
X178327099Y-98662357D01*
X178201599Y-98483124D01*
X178125482Y-98407007D01*
X178046877Y-98328402D01*
X177908978Y-98231844D01*
X177867638Y-98202897D01*
X177750583Y-98148314D01*
X177669330Y-98110425D01*
X177669326Y-98110424D01*
X177669322Y-98110422D01*
X177457977Y-98053793D01*
X177240002Y-98034723D01*
X177239998Y-98034723D01*
X177094682Y-98047436D01*
X177022023Y-98053793D01*
X177022020Y-98053793D01*
X176810677Y-98110422D01*
X176810668Y-98110426D01*
X176612361Y-98202898D01*
X176612357Y-98202900D01*
X176433121Y-98328402D01*
X176278402Y-98483121D01*
X176152900Y-98662357D01*
X176152898Y-98662361D01*
X176082382Y-98813583D01*
X176036209Y-98866022D01*
X175969016Y-98885174D01*
X175902135Y-98864958D01*
X175857618Y-98813583D01*
X175826682Y-98747241D01*
X175787102Y-98662362D01*
X175787100Y-98662359D01*
X175787099Y-98662357D01*
X175661599Y-98483124D01*
X175585482Y-98407007D01*
X175506877Y-98328402D01*
X175368978Y-98231844D01*
X175327638Y-98202897D01*
X175210583Y-98148314D01*
X175129330Y-98110425D01*
X175129326Y-98110424D01*
X175129322Y-98110422D01*
X174917977Y-98053793D01*
X174700002Y-98034723D01*
X174699998Y-98034723D01*
X174554682Y-98047436D01*
X174482023Y-98053793D01*
X174482020Y-98053793D01*
X174270677Y-98110422D01*
X174270668Y-98110426D01*
X174072361Y-98202898D01*
X174072357Y-98202900D01*
X173893121Y-98328402D01*
X173738402Y-98483121D01*
X173612900Y-98662357D01*
X173612898Y-98662361D01*
X173542382Y-98813583D01*
X173496209Y-98866022D01*
X173429016Y-98885174D01*
X173362135Y-98864958D01*
X173317618Y-98813583D01*
X173286682Y-98747241D01*
X173247102Y-98662362D01*
X173247100Y-98662359D01*
X173247099Y-98662357D01*
X173121599Y-98483124D01*
X173045482Y-98407007D01*
X172966877Y-98328402D01*
X172787639Y-98202898D01*
X172732093Y-98176996D01*
X172679655Y-98130824D01*
X172660500Y-98064615D01*
X172660500Y-97394109D01*
X172660500Y-97394108D01*
X172651006Y-97358676D01*
X172648547Y-97349499D01*
X172627512Y-97270995D01*
X172626392Y-97266814D01*
X172560500Y-97152686D01*
X171598725Y-96190911D01*
X171565240Y-96129588D01*
X171570224Y-96059896D01*
X171612096Y-96003963D01*
X171656729Y-95982834D01*
X171750225Y-95959790D01*
X171786979Y-95940500D01*
X171900849Y-95880736D01*
X171900850Y-95880734D01*
X171900852Y-95880734D01*
X172028183Y-95767929D01*
X172124818Y-95627930D01*
X172185140Y-95468872D01*
X172200187Y-95344943D01*
X172227809Y-95280767D01*
X172235591Y-95272222D01*
X172306621Y-95201191D01*
X172367942Y-95167708D01*
X172437634Y-95172692D01*
X172493567Y-95214564D01*
X172517984Y-95280028D01*
X172514490Y-95316644D01*
X172514734Y-95316687D01*
X172514194Y-95319745D01*
X172514080Y-95320949D01*
X172513795Y-95322013D01*
X172513793Y-95322024D01*
X172494723Y-95539997D01*
X172494723Y-95540002D01*
X172499245Y-95591686D01*
X172511632Y-95733281D01*
X172513793Y-95757975D01*
X172513793Y-95757979D01*
X172570422Y-95969322D01*
X172570424Y-95969326D01*
X172570425Y-95969330D01*
X172608358Y-96050677D01*
X172662897Y-96167638D01*
X172676525Y-96187101D01*
X172788402Y-96346877D01*
X172943123Y-96501598D01*
X173122361Y-96627102D01*
X173320670Y-96719575D01*
X173532023Y-96776207D01*
X173714926Y-96792208D01*
X173749998Y-96795277D01*
X173750000Y-96795277D01*
X173750002Y-96795277D01*
X173778254Y-96792805D01*
X173967977Y-96776207D01*
X174179330Y-96719575D01*
X174377639Y-96627102D01*
X174556877Y-96501598D01*
X174711598Y-96346877D01*
X174837102Y-96167639D01*
X174929575Y-95969330D01*
X174986207Y-95757977D01*
X175005277Y-95540000D01*
X175003387Y-95518402D01*
X174994639Y-95418405D01*
X174986207Y-95322023D01*
X174938450Y-95143793D01*
X174929577Y-95110677D01*
X174929572Y-95110663D01*
X174909167Y-95066904D01*
X174898675Y-94997827D01*
X174927195Y-94934043D01*
X174985672Y-94895804D01*
X175021549Y-94890500D01*
X176731324Y-94890500D01*
X176798363Y-94910185D01*
X176819005Y-94926819D01*
X176899498Y-95007312D01*
X176899500Y-95007314D01*
X177739500Y-95847314D01*
X177832686Y-95940500D01*
X177877801Y-95966547D01*
X177946814Y-96006392D01*
X178074107Y-96040500D01*
X178074108Y-96040500D01*
X178274616Y-96040500D01*
X178341655Y-96060185D01*
X178386997Y-96112095D01*
X178412898Y-96167639D01*
X178538402Y-96346877D01*
X178693123Y-96501598D01*
X178872361Y-96627102D01*
X179070670Y-96719575D01*
X179282023Y-96776207D01*
X179464926Y-96792208D01*
X179499998Y-96795277D01*
X179500000Y-96795277D01*
X179500002Y-96795277D01*
X179528254Y-96792805D01*
X179717977Y-96776207D01*
X179929330Y-96719575D01*
X180127639Y-96627102D01*
X180306877Y-96501598D01*
X180461598Y-96346877D01*
X180587102Y-96167639D01*
X180679575Y-95969330D01*
X180736207Y-95757977D01*
X180755277Y-95540000D01*
X180753387Y-95518402D01*
X180744639Y-95418405D01*
X180736207Y-95322023D01*
X180688450Y-95143793D01*
X180679577Y-95110677D01*
X180679576Y-95110676D01*
X180679575Y-95110670D01*
X180587102Y-94912362D01*
X180587100Y-94912359D01*
X180587099Y-94912357D01*
X180461599Y-94733124D01*
X180392312Y-94663837D01*
X180306877Y-94578402D01*
X180160733Y-94476071D01*
X180117112Y-94421497D01*
X180109919Y-94351998D01*
X180141441Y-94289644D01*
X180201671Y-94254230D01*
X180231859Y-94250499D01*
X180381518Y-94250499D01*
X180475304Y-94235646D01*
X180588342Y-94178050D01*
X180678050Y-94088342D01*
X180735646Y-93975304D01*
X180735646Y-93975302D01*
X180735647Y-93975301D01*
X180750499Y-93881524D01*
X180750500Y-93881519D01*
X180750499Y-92118482D01*
X180735646Y-92024696D01*
X180678050Y-91911658D01*
X180678046Y-91911654D01*
X180678045Y-91911652D01*
X180588347Y-91821954D01*
X180588344Y-91821952D01*
X180588342Y-91821950D01*
X180485396Y-91769496D01*
X180475301Y-91764352D01*
X180381524Y-91749500D01*
X180381519Y-91749500D01*
X179008676Y-91749500D01*
X178941637Y-91729815D01*
X178920995Y-91713181D01*
X176431974Y-89224160D01*
X176398489Y-89162837D01*
X176403473Y-89093145D01*
X176445345Y-89037212D01*
X176510809Y-89012795D01*
X176572057Y-89024096D01*
X176663504Y-89066739D01*
X176663509Y-89066740D01*
X176663511Y-89066741D01*
X176716415Y-89080916D01*
X176883308Y-89125635D01*
X177045230Y-89139801D01*
X177109998Y-89145468D01*
X177110000Y-89145468D01*
X177110002Y-89145468D01*
X177166796Y-89140499D01*
X177336692Y-89125635D01*
X177556496Y-89066739D01*
X177762734Y-88970568D01*
X177949139Y-88840047D01*
X178110047Y-88679139D01*
X178240568Y-88492734D01*
X178267618Y-88434724D01*
X178313790Y-88382285D01*
X178380983Y-88363133D01*
X178447865Y-88383348D01*
G37*
G04 #@! TD.AperFunction*
G04 #@! TA.AperFunction,Conductor*
G36*
X184164809Y-79420185D02*
G01*
X184185451Y-79436819D01*
X184903181Y-80154548D01*
X184936666Y-80215871D01*
X184939500Y-80242229D01*
X184939500Y-86965500D01*
X184919815Y-87032539D01*
X184867011Y-87078294D01*
X184815500Y-87089500D01*
X180776663Y-87089500D01*
X180709624Y-87069815D01*
X180675088Y-87036623D01*
X180650045Y-87000858D01*
X180489141Y-86839954D01*
X180302734Y-86709432D01*
X180302732Y-86709431D01*
X180096497Y-86613261D01*
X180096488Y-86613258D01*
X179876697Y-86554366D01*
X179876693Y-86554365D01*
X179876692Y-86554365D01*
X179876691Y-86554364D01*
X179876686Y-86554364D01*
X179650002Y-86534532D01*
X179649998Y-86534532D01*
X179423313Y-86554364D01*
X179423302Y-86554366D01*
X179203511Y-86613258D01*
X179203502Y-86613261D01*
X178997267Y-86709431D01*
X178997265Y-86709432D01*
X178810858Y-86839954D01*
X178649954Y-87000858D01*
X178519432Y-87187265D01*
X178519431Y-87187267D01*
X178492382Y-87245275D01*
X178446209Y-87297714D01*
X178379016Y-87316866D01*
X178312135Y-87296650D01*
X178267618Y-87245275D01*
X178255973Y-87220302D01*
X178240568Y-87187266D01*
X178123926Y-87020682D01*
X178110045Y-87000858D01*
X177949141Y-86839954D01*
X177762734Y-86709432D01*
X177762732Y-86709431D01*
X177556497Y-86613261D01*
X177556488Y-86613258D01*
X177336697Y-86554366D01*
X177336693Y-86554365D01*
X177336692Y-86554365D01*
X177336691Y-86554364D01*
X177336686Y-86554364D01*
X177110002Y-86534532D01*
X177109998Y-86534532D01*
X176883313Y-86554364D01*
X176883302Y-86554366D01*
X176663511Y-86613258D01*
X176663502Y-86613261D01*
X176457261Y-86709434D01*
X176457260Y-86709434D01*
X176433263Y-86726237D01*
X176367056Y-86748563D01*
X176299289Y-86731550D01*
X176254756Y-86686660D01*
X176225677Y-86636294D01*
X176200500Y-86592686D01*
X176107314Y-86499500D01*
X173707314Y-84099500D01*
X173642996Y-84062366D01*
X173593187Y-84033608D01*
X173529539Y-84016554D01*
X173465892Y-83999500D01*
X173465891Y-83999500D01*
X172920442Y-83999500D01*
X172853403Y-83979815D01*
X172807648Y-83927011D01*
X172797704Y-83857853D01*
X172826729Y-83794297D01*
X172849320Y-83773924D01*
X172869139Y-83760047D01*
X173030047Y-83599139D01*
X173160568Y-83412734D01*
X173187618Y-83354724D01*
X173233790Y-83302285D01*
X173300983Y-83283133D01*
X173367865Y-83303348D01*
X173412382Y-83354725D01*
X173439429Y-83412728D01*
X173439432Y-83412734D01*
X173569954Y-83599141D01*
X173730858Y-83760045D01*
X173730861Y-83760047D01*
X173917266Y-83890568D01*
X174123504Y-83986739D01*
X174123509Y-83986740D01*
X174123511Y-83986741D01*
X174157201Y-83995768D01*
X174343308Y-84045635D01*
X174505230Y-84059801D01*
X174569998Y-84065468D01*
X174570000Y-84065468D01*
X174570002Y-84065468D01*
X174626673Y-84060509D01*
X174796692Y-84045635D01*
X175016496Y-83986739D01*
X175222734Y-83890568D01*
X175409139Y-83760047D01*
X175570047Y-83599139D01*
X175700568Y-83412734D01*
X175727618Y-83354724D01*
X175773790Y-83302285D01*
X175840983Y-83283133D01*
X175907865Y-83303348D01*
X175952382Y-83354725D01*
X175979429Y-83412728D01*
X175979432Y-83412734D01*
X176109954Y-83599141D01*
X176270858Y-83760045D01*
X176270861Y-83760047D01*
X176457266Y-83890568D01*
X176663504Y-83986739D01*
X176663509Y-83986740D01*
X176663511Y-83986741D01*
X176697201Y-83995768D01*
X176883308Y-84045635D01*
X177045230Y-84059801D01*
X177109998Y-84065468D01*
X177110000Y-84065468D01*
X177110002Y-84065468D01*
X177166673Y-84060509D01*
X177336692Y-84045635D01*
X177556496Y-83986739D01*
X177762734Y-83890568D01*
X177949139Y-83760047D01*
X178110047Y-83599139D01*
X178220057Y-83442025D01*
X178274632Y-83398402D01*
X178344130Y-83391208D01*
X178406485Y-83422730D01*
X178425440Y-83445328D01*
X178498812Y-83557633D01*
X179129396Y-82927049D01*
X179141116Y-82970787D01*
X179213011Y-83095313D01*
X179314687Y-83196989D01*
X179439213Y-83268884D01*
X179482949Y-83280603D01*
X178851201Y-83912351D01*
X178881649Y-83936050D01*
X179085697Y-84046476D01*
X179085706Y-84046479D01*
X179305139Y-84121811D01*
X179533993Y-84160000D01*
X179766007Y-84160000D01*
X179994860Y-84121811D01*
X180214293Y-84046479D01*
X180214301Y-84046476D01*
X180418355Y-83936047D01*
X180448797Y-83912351D01*
X180448798Y-83912350D01*
X179817051Y-83280603D01*
X179860787Y-83268884D01*
X179985313Y-83196989D01*
X180086989Y-83095313D01*
X180158884Y-82970787D01*
X180170603Y-82927050D01*
X180801186Y-83557633D01*
X180885482Y-83428611D01*
X180978682Y-83216135D01*
X181035638Y-82991218D01*
X181054798Y-82760005D01*
X181054798Y-82759994D01*
X181035638Y-82528781D01*
X180978682Y-82303864D01*
X180885484Y-82091393D01*
X180801186Y-81962365D01*
X180170602Y-82592948D01*
X180158884Y-82549213D01*
X180086989Y-82424687D01*
X179985313Y-82323011D01*
X179860787Y-82251116D01*
X179817049Y-82239396D01*
X180448797Y-81607647D01*
X180448797Y-81607645D01*
X180418360Y-81583955D01*
X180418354Y-81583951D01*
X180214302Y-81473523D01*
X180214293Y-81473520D01*
X179994860Y-81398188D01*
X179766007Y-81360000D01*
X179533993Y-81360000D01*
X179305139Y-81398188D01*
X179085706Y-81473520D01*
X179085697Y-81473523D01*
X178881650Y-81583949D01*
X178851200Y-81607647D01*
X179482950Y-82239396D01*
X179439213Y-82251116D01*
X179314687Y-82323011D01*
X179213011Y-82424687D01*
X179141116Y-82549213D01*
X179129396Y-82592950D01*
X178498812Y-81962366D01*
X178425440Y-82074671D01*
X178372293Y-82120027D01*
X178303062Y-82129451D01*
X178239726Y-82099949D01*
X178220056Y-82077972D01*
X178110045Y-81920858D01*
X177949141Y-81759954D01*
X177762734Y-81629432D01*
X177762732Y-81629431D01*
X177556497Y-81533261D01*
X177556488Y-81533258D01*
X177336697Y-81474366D01*
X177336693Y-81474365D01*
X177336692Y-81474365D01*
X177336691Y-81474364D01*
X177336686Y-81474364D01*
X177110002Y-81454532D01*
X177109998Y-81454532D01*
X176883313Y-81474364D01*
X176883302Y-81474366D01*
X176663511Y-81533258D01*
X176663502Y-81533261D01*
X176457267Y-81629431D01*
X176457265Y-81629432D01*
X176270858Y-81759954D01*
X176109954Y-81920858D01*
X175979432Y-82107265D01*
X175979431Y-82107267D01*
X175952382Y-82165275D01*
X175906209Y-82217714D01*
X175839016Y-82236866D01*
X175772135Y-82216650D01*
X175727618Y-82165275D01*
X175710913Y-82129451D01*
X175700568Y-82107266D01*
X175570047Y-81920861D01*
X175570045Y-81920858D01*
X175409141Y-81759954D01*
X175222734Y-81629432D01*
X175222732Y-81629431D01*
X175016497Y-81533261D01*
X175016488Y-81533258D01*
X174796697Y-81474366D01*
X174796693Y-81474365D01*
X174796692Y-81474365D01*
X174796691Y-81474364D01*
X174796686Y-81474364D01*
X174570002Y-81454532D01*
X174569998Y-81454532D01*
X174343313Y-81474364D01*
X174343302Y-81474366D01*
X174123511Y-81533258D01*
X174123502Y-81533261D01*
X173917267Y-81629431D01*
X173917265Y-81629432D01*
X173730858Y-81759954D01*
X173569954Y-81920858D01*
X173439432Y-82107265D01*
X173439431Y-82107267D01*
X173412382Y-82165275D01*
X173366209Y-82217714D01*
X173299016Y-82236866D01*
X173232135Y-82216650D01*
X173187618Y-82165275D01*
X173170913Y-82129451D01*
X173160568Y-82107266D01*
X173030047Y-81920861D01*
X173030045Y-81920858D01*
X172869141Y-81759954D01*
X172682734Y-81629432D01*
X172682732Y-81629431D01*
X172476497Y-81533261D01*
X172476488Y-81533258D01*
X172256697Y-81474366D01*
X172256693Y-81474365D01*
X172256692Y-81474365D01*
X172256691Y-81474364D01*
X172256686Y-81474364D01*
X172030002Y-81454532D01*
X172029998Y-81454532D01*
X171803313Y-81474364D01*
X171803302Y-81474366D01*
X171583511Y-81533258D01*
X171583502Y-81533261D01*
X171377267Y-81629431D01*
X171377265Y-81629432D01*
X171190858Y-81759954D01*
X171029954Y-81920858D01*
X170899432Y-82107265D01*
X170899431Y-82107267D01*
X170872382Y-82165275D01*
X170826209Y-82217714D01*
X170759016Y-82236866D01*
X170692135Y-82216650D01*
X170647618Y-82165275D01*
X170630913Y-82129451D01*
X170620568Y-82107266D01*
X170490047Y-81920861D01*
X170490045Y-81920858D01*
X170329141Y-81759954D01*
X170142735Y-81629433D01*
X170142736Y-81629433D01*
X170142734Y-81629432D01*
X169990499Y-81558443D01*
X169986549Y-81556601D01*
X169934110Y-81510428D01*
X169914959Y-81443234D01*
X169935175Y-81376353D01*
X169951269Y-81356543D01*
X171270995Y-80036819D01*
X171332318Y-80003334D01*
X171358676Y-80000500D01*
X172361555Y-80000500D01*
X172428594Y-80020185D01*
X172443779Y-80031682D01*
X172499148Y-80080734D01*
X172649775Y-80159790D01*
X172814944Y-80200500D01*
X172985056Y-80200500D01*
X173150225Y-80159790D01*
X173229692Y-80118081D01*
X173300849Y-80080736D01*
X173300850Y-80080734D01*
X173300852Y-80080734D01*
X173428183Y-79967929D01*
X173524818Y-79827930D01*
X173585140Y-79668872D01*
X173604485Y-79509552D01*
X173632107Y-79445375D01*
X173690041Y-79406319D01*
X173727581Y-79400500D01*
X184097770Y-79400500D01*
X184164809Y-79420185D01*
G37*
G04 #@! TD.AperFunction*
M02*
