G04 #@! TF.GenerationSoftware,KiCad,Pcbnew,8.0.4*
G04 #@! TF.CreationDate,2024-08-09T20:42:01+03:00*
G04 #@! TF.ProjectId,mpf-ii-bus-adapter,6d70662d-6969-42d6-9275-732d61646170,A*
G04 #@! TF.SameCoordinates,Original*
G04 #@! TF.FileFunction,Legend,Top*
G04 #@! TF.FilePolarity,Positive*
%FSLAX46Y46*%
G04 Gerber Fmt 4.6, Leading zero omitted, Abs format (unit mm)*
G04 Created by KiCad (PCBNEW 8.0.4) date 2024-08-09 20:42:01*
%MOMM*%
%LPD*%
G01*
G04 APERTURE LIST*
G04 Aperture macros list*
%AMRoundRect*
0 Rectangle with rounded corners*
0 $1 Rounding radius*
0 $2 $3 $4 $5 $6 $7 $8 $9 X,Y pos of 4 corners*
0 Add a 4 corners polygon primitive as box body*
4,1,4,$2,$3,$4,$5,$6,$7,$8,$9,$2,$3,0*
0 Add four circle primitives for the rounded corners*
1,1,$1+$1,$2,$3*
1,1,$1+$1,$4,$5*
1,1,$1+$1,$6,$7*
1,1,$1+$1,$8,$9*
0 Add four rect primitives between the rounded corners*
20,1,$1+$1,$2,$3,$4,$5,0*
20,1,$1+$1,$4,$5,$6,$7,0*
20,1,$1+$1,$6,$7,$8,$9,0*
20,1,$1+$1,$8,$9,$2,$3,0*%
G04 Aperture macros list end*
%ADD10C,0.100000*%
%ADD11C,0.150000*%
%ADD12C,0.120000*%
%ADD13C,0.000000*%
%ADD14C,0.152400*%
%ADD15C,0.050000*%
%ADD16R,1.700000X1.700000*%
%ADD17O,1.700000X1.700000*%
%ADD18C,1.600000*%
%ADD19R,1.800000X1.800000*%
%ADD20C,1.800000*%
%ADD21O,1.600000X1.600000*%
%ADD22R,1.600000X1.600000*%
%ADD23RoundRect,0.350000X0.350000X3.206000X-0.350000X3.206000X-0.350000X-3.206000X0.350000X-3.206000X0*%
%ADD24RoundRect,0.235000X0.235000X3.321000X-0.235000X3.321000X-0.235000X-3.321000X0.235000X-3.321000X0*%
%ADD25RoundRect,0.250000X0.250000X3.306000X-0.250000X3.306000X-0.250000X-3.306000X0.250000X-3.306000X0*%
G04 APERTURE END LIST*
D10*
X169403884Y-73272419D02*
X169403884Y-72605752D01*
X169403884Y-72700990D02*
X169451503Y-72653371D01*
X169451503Y-72653371D02*
X169546741Y-72605752D01*
X169546741Y-72605752D02*
X169689598Y-72605752D01*
X169689598Y-72605752D02*
X169784836Y-72653371D01*
X169784836Y-72653371D02*
X169832455Y-72748609D01*
X169832455Y-72748609D02*
X169832455Y-73272419D01*
X169832455Y-72748609D02*
X169880074Y-72653371D01*
X169880074Y-72653371D02*
X169975312Y-72605752D01*
X169975312Y-72605752D02*
X170118169Y-72605752D01*
X170118169Y-72605752D02*
X170213408Y-72653371D01*
X170213408Y-72653371D02*
X170261027Y-72748609D01*
X170261027Y-72748609D02*
X170261027Y-73272419D01*
X170737217Y-72605752D02*
X170737217Y-73605752D01*
X170737217Y-72653371D02*
X170832455Y-72605752D01*
X170832455Y-72605752D02*
X171022931Y-72605752D01*
X171022931Y-72605752D02*
X171118169Y-72653371D01*
X171118169Y-72653371D02*
X171165788Y-72700990D01*
X171165788Y-72700990D02*
X171213407Y-72796228D01*
X171213407Y-72796228D02*
X171213407Y-73081942D01*
X171213407Y-73081942D02*
X171165788Y-73177180D01*
X171165788Y-73177180D02*
X171118169Y-73224800D01*
X171118169Y-73224800D02*
X171022931Y-73272419D01*
X171022931Y-73272419D02*
X170832455Y-73272419D01*
X170832455Y-73272419D02*
X170737217Y-73224800D01*
X171499122Y-72605752D02*
X171880074Y-72605752D01*
X171641979Y-73272419D02*
X171641979Y-72415276D01*
X171641979Y-72415276D02*
X171689598Y-72320038D01*
X171689598Y-72320038D02*
X171784836Y-72272419D01*
X171784836Y-72272419D02*
X171880074Y-72272419D01*
X172213408Y-72891466D02*
X172975313Y-72891466D01*
X173451503Y-73272419D02*
X173451503Y-72605752D01*
X173451503Y-72272419D02*
X173403884Y-72320038D01*
X173403884Y-72320038D02*
X173451503Y-72367657D01*
X173451503Y-72367657D02*
X173499122Y-72320038D01*
X173499122Y-72320038D02*
X173451503Y-72272419D01*
X173451503Y-72272419D02*
X173451503Y-72367657D01*
X173927693Y-73272419D02*
X173927693Y-72605752D01*
X173927693Y-72272419D02*
X173880074Y-72320038D01*
X173880074Y-72320038D02*
X173927693Y-72367657D01*
X173927693Y-72367657D02*
X173975312Y-72320038D01*
X173975312Y-72320038D02*
X173927693Y-72272419D01*
X173927693Y-72272419D02*
X173927693Y-72367657D01*
X174165788Y-73367657D02*
X174927692Y-73367657D01*
X175165788Y-73272419D02*
X175165788Y-72605752D01*
X175165788Y-72796228D02*
X175213407Y-72700990D01*
X175213407Y-72700990D02*
X175261026Y-72653371D01*
X175261026Y-72653371D02*
X175356264Y-72605752D01*
X175356264Y-72605752D02*
X175451502Y-72605752D01*
X176165788Y-73224800D02*
X176070550Y-73272419D01*
X176070550Y-73272419D02*
X175880074Y-73272419D01*
X175880074Y-73272419D02*
X175784836Y-73224800D01*
X175784836Y-73224800D02*
X175737217Y-73129561D01*
X175737217Y-73129561D02*
X175737217Y-72748609D01*
X175737217Y-72748609D02*
X175784836Y-72653371D01*
X175784836Y-72653371D02*
X175880074Y-72605752D01*
X175880074Y-72605752D02*
X176070550Y-72605752D01*
X176070550Y-72605752D02*
X176165788Y-72653371D01*
X176165788Y-72653371D02*
X176213407Y-72748609D01*
X176213407Y-72748609D02*
X176213407Y-72843847D01*
X176213407Y-72843847D02*
X175737217Y-72939085D01*
X176499122Y-72605752D02*
X176880074Y-72605752D01*
X176641979Y-72272419D02*
X176641979Y-73129561D01*
X176641979Y-73129561D02*
X176689598Y-73224800D01*
X176689598Y-73224800D02*
X176784836Y-73272419D01*
X176784836Y-73272419D02*
X176880074Y-73272419D01*
X177213408Y-73272419D02*
X177213408Y-72605752D01*
X177213408Y-72796228D02*
X177261027Y-72700990D01*
X177261027Y-72700990D02*
X177308646Y-72653371D01*
X177308646Y-72653371D02*
X177403884Y-72605752D01*
X177403884Y-72605752D02*
X177499122Y-72605752D01*
X177975313Y-73272419D02*
X177880075Y-73224800D01*
X177880075Y-73224800D02*
X177832456Y-73177180D01*
X177832456Y-73177180D02*
X177784837Y-73081942D01*
X177784837Y-73081942D02*
X177784837Y-72796228D01*
X177784837Y-72796228D02*
X177832456Y-72700990D01*
X177832456Y-72700990D02*
X177880075Y-72653371D01*
X177880075Y-72653371D02*
X177975313Y-72605752D01*
X177975313Y-72605752D02*
X178118170Y-72605752D01*
X178118170Y-72605752D02*
X178213408Y-72653371D01*
X178213408Y-72653371D02*
X178261027Y-72700990D01*
X178261027Y-72700990D02*
X178308646Y-72796228D01*
X178308646Y-72796228D02*
X178308646Y-73081942D01*
X178308646Y-73081942D02*
X178261027Y-73177180D01*
X178261027Y-73177180D02*
X178213408Y-73224800D01*
X178213408Y-73224800D02*
X178118170Y-73272419D01*
X178118170Y-73272419D02*
X177975313Y-73272419D01*
X178499123Y-73367657D02*
X179261027Y-73367657D01*
X179927694Y-72272419D02*
X179737218Y-72272419D01*
X179737218Y-72272419D02*
X179641980Y-72320038D01*
X179641980Y-72320038D02*
X179594361Y-72367657D01*
X179594361Y-72367657D02*
X179499123Y-72510514D01*
X179499123Y-72510514D02*
X179451504Y-72700990D01*
X179451504Y-72700990D02*
X179451504Y-73081942D01*
X179451504Y-73081942D02*
X179499123Y-73177180D01*
X179499123Y-73177180D02*
X179546742Y-73224800D01*
X179546742Y-73224800D02*
X179641980Y-73272419D01*
X179641980Y-73272419D02*
X179832456Y-73272419D01*
X179832456Y-73272419D02*
X179927694Y-73224800D01*
X179927694Y-73224800D02*
X179975313Y-73177180D01*
X179975313Y-73177180D02*
X180022932Y-73081942D01*
X180022932Y-73081942D02*
X180022932Y-72843847D01*
X180022932Y-72843847D02*
X179975313Y-72748609D01*
X179975313Y-72748609D02*
X179927694Y-72700990D01*
X179927694Y-72700990D02*
X179832456Y-72653371D01*
X179832456Y-72653371D02*
X179641980Y-72653371D01*
X179641980Y-72653371D02*
X179546742Y-72700990D01*
X179546742Y-72700990D02*
X179499123Y-72748609D01*
X179499123Y-72748609D02*
X179451504Y-72843847D01*
X180927694Y-72272419D02*
X180451504Y-72272419D01*
X180451504Y-72272419D02*
X180403885Y-72748609D01*
X180403885Y-72748609D02*
X180451504Y-72700990D01*
X180451504Y-72700990D02*
X180546742Y-72653371D01*
X180546742Y-72653371D02*
X180784837Y-72653371D01*
X180784837Y-72653371D02*
X180880075Y-72700990D01*
X180880075Y-72700990D02*
X180927694Y-72748609D01*
X180927694Y-72748609D02*
X180975313Y-72843847D01*
X180975313Y-72843847D02*
X180975313Y-73081942D01*
X180975313Y-73081942D02*
X180927694Y-73177180D01*
X180927694Y-73177180D02*
X180880075Y-73224800D01*
X180880075Y-73224800D02*
X180784837Y-73272419D01*
X180784837Y-73272419D02*
X180546742Y-73272419D01*
X180546742Y-73272419D02*
X180451504Y-73224800D01*
X180451504Y-73224800D02*
X180403885Y-73177180D01*
X181594361Y-72272419D02*
X181689599Y-72272419D01*
X181689599Y-72272419D02*
X181784837Y-72320038D01*
X181784837Y-72320038D02*
X181832456Y-72367657D01*
X181832456Y-72367657D02*
X181880075Y-72462895D01*
X181880075Y-72462895D02*
X181927694Y-72653371D01*
X181927694Y-72653371D02*
X181927694Y-72891466D01*
X181927694Y-72891466D02*
X181880075Y-73081942D01*
X181880075Y-73081942D02*
X181832456Y-73177180D01*
X181832456Y-73177180D02*
X181784837Y-73224800D01*
X181784837Y-73224800D02*
X181689599Y-73272419D01*
X181689599Y-73272419D02*
X181594361Y-73272419D01*
X181594361Y-73272419D02*
X181499123Y-73224800D01*
X181499123Y-73224800D02*
X181451504Y-73177180D01*
X181451504Y-73177180D02*
X181403885Y-73081942D01*
X181403885Y-73081942D02*
X181356266Y-72891466D01*
X181356266Y-72891466D02*
X181356266Y-72653371D01*
X181356266Y-72653371D02*
X181403885Y-72462895D01*
X181403885Y-72462895D02*
X181451504Y-72367657D01*
X181451504Y-72367657D02*
X181499123Y-72320038D01*
X181499123Y-72320038D02*
X181594361Y-72272419D01*
X182308647Y-72367657D02*
X182356266Y-72320038D01*
X182356266Y-72320038D02*
X182451504Y-72272419D01*
X182451504Y-72272419D02*
X182689599Y-72272419D01*
X182689599Y-72272419D02*
X182784837Y-72320038D01*
X182784837Y-72320038D02*
X182832456Y-72367657D01*
X182832456Y-72367657D02*
X182880075Y-72462895D01*
X182880075Y-72462895D02*
X182880075Y-72558133D01*
X182880075Y-72558133D02*
X182832456Y-72700990D01*
X182832456Y-72700990D02*
X182261028Y-73272419D01*
X182261028Y-73272419D02*
X182880075Y-73272419D01*
X184213409Y-73272419D02*
X184118171Y-73224800D01*
X184118171Y-73224800D02*
X184070552Y-73177180D01*
X184070552Y-73177180D02*
X184022933Y-73081942D01*
X184022933Y-73081942D02*
X184022933Y-72796228D01*
X184022933Y-72796228D02*
X184070552Y-72700990D01*
X184070552Y-72700990D02*
X184118171Y-72653371D01*
X184118171Y-72653371D02*
X184213409Y-72605752D01*
X184213409Y-72605752D02*
X184356266Y-72605752D01*
X184356266Y-72605752D02*
X184451504Y-72653371D01*
X184451504Y-72653371D02*
X184499123Y-72700990D01*
X184499123Y-72700990D02*
X184546742Y-72796228D01*
X184546742Y-72796228D02*
X184546742Y-73081942D01*
X184546742Y-73081942D02*
X184499123Y-73177180D01*
X184499123Y-73177180D02*
X184451504Y-73224800D01*
X184451504Y-73224800D02*
X184356266Y-73272419D01*
X184356266Y-73272419D02*
X184213409Y-73272419D01*
X184975314Y-72605752D02*
X184975314Y-73272419D01*
X184975314Y-72700990D02*
X185022933Y-72653371D01*
X185022933Y-72653371D02*
X185118171Y-72605752D01*
X185118171Y-72605752D02*
X185261028Y-72605752D01*
X185261028Y-72605752D02*
X185356266Y-72653371D01*
X185356266Y-72653371D02*
X185403885Y-72748609D01*
X185403885Y-72748609D02*
X185403885Y-73272419D01*
X187165790Y-72320038D02*
X187070552Y-72272419D01*
X187070552Y-72272419D02*
X186927695Y-72272419D01*
X186927695Y-72272419D02*
X186784838Y-72320038D01*
X186784838Y-72320038D02*
X186689600Y-72415276D01*
X186689600Y-72415276D02*
X186641981Y-72510514D01*
X186641981Y-72510514D02*
X186594362Y-72700990D01*
X186594362Y-72700990D02*
X186594362Y-72843847D01*
X186594362Y-72843847D02*
X186641981Y-73034323D01*
X186641981Y-73034323D02*
X186689600Y-73129561D01*
X186689600Y-73129561D02*
X186784838Y-73224800D01*
X186784838Y-73224800D02*
X186927695Y-73272419D01*
X186927695Y-73272419D02*
X187022933Y-73272419D01*
X187022933Y-73272419D02*
X187165790Y-73224800D01*
X187165790Y-73224800D02*
X187213409Y-73177180D01*
X187213409Y-73177180D02*
X187213409Y-72843847D01*
X187213409Y-72843847D02*
X187022933Y-72843847D01*
X187641981Y-73272419D02*
X187641981Y-72605752D01*
X187641981Y-72272419D02*
X187594362Y-72320038D01*
X187594362Y-72320038D02*
X187641981Y-72367657D01*
X187641981Y-72367657D02*
X187689600Y-72320038D01*
X187689600Y-72320038D02*
X187641981Y-72272419D01*
X187641981Y-72272419D02*
X187641981Y-72367657D01*
X187975314Y-72605752D02*
X188356266Y-72605752D01*
X188118171Y-72272419D02*
X188118171Y-73129561D01*
X188118171Y-73129561D02*
X188165790Y-73224800D01*
X188165790Y-73224800D02*
X188261028Y-73272419D01*
X188261028Y-73272419D02*
X188356266Y-73272419D01*
X188689600Y-73272419D02*
X188689600Y-72272419D01*
X188689600Y-72748609D02*
X189261028Y-72748609D01*
X189261028Y-73272419D02*
X189261028Y-72272419D01*
X190165790Y-72605752D02*
X190165790Y-73272419D01*
X189737219Y-72605752D02*
X189737219Y-73129561D01*
X189737219Y-73129561D02*
X189784838Y-73224800D01*
X189784838Y-73224800D02*
X189880076Y-73272419D01*
X189880076Y-73272419D02*
X190022933Y-73272419D01*
X190022933Y-73272419D02*
X190118171Y-73224800D01*
X190118171Y-73224800D02*
X190165790Y-73177180D01*
X190641981Y-73272419D02*
X190641981Y-72272419D01*
X190641981Y-72653371D02*
X190737219Y-72605752D01*
X190737219Y-72605752D02*
X190927695Y-72605752D01*
X190927695Y-72605752D02*
X191022933Y-72653371D01*
X191022933Y-72653371D02*
X191070552Y-72700990D01*
X191070552Y-72700990D02*
X191118171Y-72796228D01*
X191118171Y-72796228D02*
X191118171Y-73081942D01*
X191118171Y-73081942D02*
X191070552Y-73177180D01*
X191070552Y-73177180D02*
X191022933Y-73224800D01*
X191022933Y-73224800D02*
X190927695Y-73272419D01*
X190927695Y-73272419D02*
X190737219Y-73272419D01*
X190737219Y-73272419D02*
X190641981Y-73224800D01*
X188603884Y-103291466D02*
X189365789Y-103291466D01*
X188984836Y-103672419D02*
X188984836Y-102910514D01*
X190318169Y-102672419D02*
X189841979Y-102672419D01*
X189841979Y-102672419D02*
X189794360Y-103148609D01*
X189794360Y-103148609D02*
X189841979Y-103100990D01*
X189841979Y-103100990D02*
X189937217Y-103053371D01*
X189937217Y-103053371D02*
X190175312Y-103053371D01*
X190175312Y-103053371D02*
X190270550Y-103100990D01*
X190270550Y-103100990D02*
X190318169Y-103148609D01*
X190318169Y-103148609D02*
X190365788Y-103243847D01*
X190365788Y-103243847D02*
X190365788Y-103481942D01*
X190365788Y-103481942D02*
X190318169Y-103577180D01*
X190318169Y-103577180D02*
X190270550Y-103624800D01*
X190270550Y-103624800D02*
X190175312Y-103672419D01*
X190175312Y-103672419D02*
X189937217Y-103672419D01*
X189937217Y-103672419D02*
X189841979Y-103624800D01*
X189841979Y-103624800D02*
X189794360Y-103577180D01*
X190699122Y-103005752D02*
X190937217Y-103672419D01*
X190937217Y-103672419D02*
X191175312Y-103005752D01*
X96603884Y-73372419D02*
X96603884Y-72372419D01*
X96603884Y-72372419D02*
X96937217Y-73086704D01*
X96937217Y-73086704D02*
X97270550Y-72372419D01*
X97270550Y-72372419D02*
X97270550Y-73372419D01*
X97746741Y-73372419D02*
X97746741Y-72372419D01*
X97746741Y-72372419D02*
X98127693Y-72372419D01*
X98127693Y-72372419D02*
X98222931Y-72420038D01*
X98222931Y-72420038D02*
X98270550Y-72467657D01*
X98270550Y-72467657D02*
X98318169Y-72562895D01*
X98318169Y-72562895D02*
X98318169Y-72705752D01*
X98318169Y-72705752D02*
X98270550Y-72800990D01*
X98270550Y-72800990D02*
X98222931Y-72848609D01*
X98222931Y-72848609D02*
X98127693Y-72896228D01*
X98127693Y-72896228D02*
X97746741Y-72896228D01*
X99080074Y-72848609D02*
X98746741Y-72848609D01*
X98746741Y-73372419D02*
X98746741Y-72372419D01*
X98746741Y-72372419D02*
X99222931Y-72372419D01*
X99603884Y-72991466D02*
X100365789Y-72991466D01*
X100841979Y-73372419D02*
X100841979Y-72372419D01*
X101318169Y-73372419D02*
X101318169Y-72372419D01*
X102889597Y-72848609D02*
X103032454Y-72896228D01*
X103032454Y-72896228D02*
X103080073Y-72943847D01*
X103080073Y-72943847D02*
X103127692Y-73039085D01*
X103127692Y-73039085D02*
X103127692Y-73181942D01*
X103127692Y-73181942D02*
X103080073Y-73277180D01*
X103080073Y-73277180D02*
X103032454Y-73324800D01*
X103032454Y-73324800D02*
X102937216Y-73372419D01*
X102937216Y-73372419D02*
X102556264Y-73372419D01*
X102556264Y-73372419D02*
X102556264Y-72372419D01*
X102556264Y-72372419D02*
X102889597Y-72372419D01*
X102889597Y-72372419D02*
X102984835Y-72420038D01*
X102984835Y-72420038D02*
X103032454Y-72467657D01*
X103032454Y-72467657D02*
X103080073Y-72562895D01*
X103080073Y-72562895D02*
X103080073Y-72658133D01*
X103080073Y-72658133D02*
X103032454Y-72753371D01*
X103032454Y-72753371D02*
X102984835Y-72800990D01*
X102984835Y-72800990D02*
X102889597Y-72848609D01*
X102889597Y-72848609D02*
X102556264Y-72848609D01*
X103984835Y-72705752D02*
X103984835Y-73372419D01*
X103556264Y-72705752D02*
X103556264Y-73229561D01*
X103556264Y-73229561D02*
X103603883Y-73324800D01*
X103603883Y-73324800D02*
X103699121Y-73372419D01*
X103699121Y-73372419D02*
X103841978Y-73372419D01*
X103841978Y-73372419D02*
X103937216Y-73324800D01*
X103937216Y-73324800D02*
X103984835Y-73277180D01*
X104413407Y-73324800D02*
X104508645Y-73372419D01*
X104508645Y-73372419D02*
X104699121Y-73372419D01*
X104699121Y-73372419D02*
X104794359Y-73324800D01*
X104794359Y-73324800D02*
X104841978Y-73229561D01*
X104841978Y-73229561D02*
X104841978Y-73181942D01*
X104841978Y-73181942D02*
X104794359Y-73086704D01*
X104794359Y-73086704D02*
X104699121Y-73039085D01*
X104699121Y-73039085D02*
X104556264Y-73039085D01*
X104556264Y-73039085D02*
X104461026Y-72991466D01*
X104461026Y-72991466D02*
X104413407Y-72896228D01*
X104413407Y-72896228D02*
X104413407Y-72848609D01*
X104413407Y-72848609D02*
X104461026Y-72753371D01*
X104461026Y-72753371D02*
X104556264Y-72705752D01*
X104556264Y-72705752D02*
X104699121Y-72705752D01*
X104699121Y-72705752D02*
X104794359Y-72753371D01*
X105984836Y-73086704D02*
X106461026Y-73086704D01*
X105889598Y-73372419D02*
X106222931Y-72372419D01*
X106222931Y-72372419D02*
X106556264Y-73372419D01*
X107318169Y-73372419D02*
X107318169Y-72372419D01*
X107318169Y-73324800D02*
X107222931Y-73372419D01*
X107222931Y-73372419D02*
X107032455Y-73372419D01*
X107032455Y-73372419D02*
X106937217Y-73324800D01*
X106937217Y-73324800D02*
X106889598Y-73277180D01*
X106889598Y-73277180D02*
X106841979Y-73181942D01*
X106841979Y-73181942D02*
X106841979Y-72896228D01*
X106841979Y-72896228D02*
X106889598Y-72800990D01*
X106889598Y-72800990D02*
X106937217Y-72753371D01*
X106937217Y-72753371D02*
X107032455Y-72705752D01*
X107032455Y-72705752D02*
X107222931Y-72705752D01*
X107222931Y-72705752D02*
X107318169Y-72753371D01*
X108222931Y-73372419D02*
X108222931Y-72848609D01*
X108222931Y-72848609D02*
X108175312Y-72753371D01*
X108175312Y-72753371D02*
X108080074Y-72705752D01*
X108080074Y-72705752D02*
X107889598Y-72705752D01*
X107889598Y-72705752D02*
X107794360Y-72753371D01*
X108222931Y-73324800D02*
X108127693Y-73372419D01*
X108127693Y-73372419D02*
X107889598Y-73372419D01*
X107889598Y-73372419D02*
X107794360Y-73324800D01*
X107794360Y-73324800D02*
X107746741Y-73229561D01*
X107746741Y-73229561D02*
X107746741Y-73134323D01*
X107746741Y-73134323D02*
X107794360Y-73039085D01*
X107794360Y-73039085D02*
X107889598Y-72991466D01*
X107889598Y-72991466D02*
X108127693Y-72991466D01*
X108127693Y-72991466D02*
X108222931Y-72943847D01*
X108699122Y-72705752D02*
X108699122Y-73705752D01*
X108699122Y-72753371D02*
X108794360Y-72705752D01*
X108794360Y-72705752D02*
X108984836Y-72705752D01*
X108984836Y-72705752D02*
X109080074Y-72753371D01*
X109080074Y-72753371D02*
X109127693Y-72800990D01*
X109127693Y-72800990D02*
X109175312Y-72896228D01*
X109175312Y-72896228D02*
X109175312Y-73181942D01*
X109175312Y-73181942D02*
X109127693Y-73277180D01*
X109127693Y-73277180D02*
X109080074Y-73324800D01*
X109080074Y-73324800D02*
X108984836Y-73372419D01*
X108984836Y-73372419D02*
X108794360Y-73372419D01*
X108794360Y-73372419D02*
X108699122Y-73324800D01*
X109461027Y-72705752D02*
X109841979Y-72705752D01*
X109603884Y-72372419D02*
X109603884Y-73229561D01*
X109603884Y-73229561D02*
X109651503Y-73324800D01*
X109651503Y-73324800D02*
X109746741Y-73372419D01*
X109746741Y-73372419D02*
X109841979Y-73372419D01*
X110556265Y-73324800D02*
X110461027Y-73372419D01*
X110461027Y-73372419D02*
X110270551Y-73372419D01*
X110270551Y-73372419D02*
X110175313Y-73324800D01*
X110175313Y-73324800D02*
X110127694Y-73229561D01*
X110127694Y-73229561D02*
X110127694Y-72848609D01*
X110127694Y-72848609D02*
X110175313Y-72753371D01*
X110175313Y-72753371D02*
X110270551Y-72705752D01*
X110270551Y-72705752D02*
X110461027Y-72705752D01*
X110461027Y-72705752D02*
X110556265Y-72753371D01*
X110556265Y-72753371D02*
X110603884Y-72848609D01*
X110603884Y-72848609D02*
X110603884Y-72943847D01*
X110603884Y-72943847D02*
X110127694Y-73039085D01*
X111032456Y-73372419D02*
X111032456Y-72705752D01*
X111032456Y-72896228D02*
X111080075Y-72800990D01*
X111080075Y-72800990D02*
X111127694Y-72753371D01*
X111127694Y-72753371D02*
X111222932Y-72705752D01*
X111222932Y-72705752D02*
X111318170Y-72705752D01*
X111699123Y-73324800D02*
X111699123Y-73372419D01*
X111699123Y-73372419D02*
X111651504Y-73467657D01*
X111651504Y-73467657D02*
X111603885Y-73515276D01*
X113461027Y-73372419D02*
X113127694Y-72896228D01*
X112889599Y-73372419D02*
X112889599Y-72372419D01*
X112889599Y-72372419D02*
X113270551Y-72372419D01*
X113270551Y-72372419D02*
X113365789Y-72420038D01*
X113365789Y-72420038D02*
X113413408Y-72467657D01*
X113413408Y-72467657D02*
X113461027Y-72562895D01*
X113461027Y-72562895D02*
X113461027Y-72705752D01*
X113461027Y-72705752D02*
X113413408Y-72800990D01*
X113413408Y-72800990D02*
X113365789Y-72848609D01*
X113365789Y-72848609D02*
X113270551Y-72896228D01*
X113270551Y-72896228D02*
X112889599Y-72896228D01*
X114270551Y-73324800D02*
X114175313Y-73372419D01*
X114175313Y-73372419D02*
X113984837Y-73372419D01*
X113984837Y-73372419D02*
X113889599Y-73324800D01*
X113889599Y-73324800D02*
X113841980Y-73229561D01*
X113841980Y-73229561D02*
X113841980Y-72848609D01*
X113841980Y-72848609D02*
X113889599Y-72753371D01*
X113889599Y-72753371D02*
X113984837Y-72705752D01*
X113984837Y-72705752D02*
X114175313Y-72705752D01*
X114175313Y-72705752D02*
X114270551Y-72753371D01*
X114270551Y-72753371D02*
X114318170Y-72848609D01*
X114318170Y-72848609D02*
X114318170Y-72943847D01*
X114318170Y-72943847D02*
X113841980Y-73039085D01*
X114651504Y-72705752D02*
X114889599Y-73372419D01*
X114889599Y-73372419D02*
X115127694Y-72705752D01*
X116222933Y-73086704D02*
X116699123Y-73086704D01*
X116127695Y-73372419D02*
X116461028Y-72372419D01*
X116461028Y-72372419D02*
X116794361Y-73372419D01*
X189227693Y-94820038D02*
X189132455Y-94772419D01*
X189132455Y-94772419D02*
X188989598Y-94772419D01*
X188989598Y-94772419D02*
X188846741Y-94820038D01*
X188846741Y-94820038D02*
X188751503Y-94915276D01*
X188751503Y-94915276D02*
X188703884Y-95010514D01*
X188703884Y-95010514D02*
X188656265Y-95200990D01*
X188656265Y-95200990D02*
X188656265Y-95343847D01*
X188656265Y-95343847D02*
X188703884Y-95534323D01*
X188703884Y-95534323D02*
X188751503Y-95629561D01*
X188751503Y-95629561D02*
X188846741Y-95724800D01*
X188846741Y-95724800D02*
X188989598Y-95772419D01*
X188989598Y-95772419D02*
X189084836Y-95772419D01*
X189084836Y-95772419D02*
X189227693Y-95724800D01*
X189227693Y-95724800D02*
X189275312Y-95677180D01*
X189275312Y-95677180D02*
X189275312Y-95343847D01*
X189275312Y-95343847D02*
X189084836Y-95343847D01*
X189703884Y-95772419D02*
X189703884Y-94772419D01*
X189703884Y-94772419D02*
X190275312Y-95772419D01*
X190275312Y-95772419D02*
X190275312Y-94772419D01*
X190751503Y-95772419D02*
X190751503Y-94772419D01*
X190751503Y-94772419D02*
X190989598Y-94772419D01*
X190989598Y-94772419D02*
X191132455Y-94820038D01*
X191132455Y-94820038D02*
X191227693Y-94915276D01*
X191227693Y-94915276D02*
X191275312Y-95010514D01*
X191275312Y-95010514D02*
X191322931Y-95200990D01*
X191322931Y-95200990D02*
X191322931Y-95343847D01*
X191322931Y-95343847D02*
X191275312Y-95534323D01*
X191275312Y-95534323D02*
X191227693Y-95629561D01*
X191227693Y-95629561D02*
X191132455Y-95724800D01*
X191132455Y-95724800D02*
X190989598Y-95772419D01*
X190989598Y-95772419D02*
X190751503Y-95772419D01*
D11*
X118666666Y-77854819D02*
X118666666Y-78569104D01*
X118666666Y-78569104D02*
X118619047Y-78711961D01*
X118619047Y-78711961D02*
X118523809Y-78807200D01*
X118523809Y-78807200D02*
X118380952Y-78854819D01*
X118380952Y-78854819D02*
X118285714Y-78854819D01*
X119571428Y-78188152D02*
X119571428Y-78854819D01*
X119333333Y-77807200D02*
X119095238Y-78521485D01*
X119095238Y-78521485D02*
X119714285Y-78521485D01*
X150290476Y-77754819D02*
X150290476Y-78469104D01*
X150290476Y-78469104D02*
X150242857Y-78611961D01*
X150242857Y-78611961D02*
X150147619Y-78707200D01*
X150147619Y-78707200D02*
X150004762Y-78754819D01*
X150004762Y-78754819D02*
X149909524Y-78754819D01*
X151290476Y-78754819D02*
X150719048Y-78754819D01*
X151004762Y-78754819D02*
X151004762Y-77754819D01*
X151004762Y-77754819D02*
X150909524Y-77897676D01*
X150909524Y-77897676D02*
X150814286Y-77992914D01*
X150814286Y-77992914D02*
X150719048Y-78040533D01*
X151909524Y-77754819D02*
X152004762Y-77754819D01*
X152004762Y-77754819D02*
X152100000Y-77802438D01*
X152100000Y-77802438D02*
X152147619Y-77850057D01*
X152147619Y-77850057D02*
X152195238Y-77945295D01*
X152195238Y-77945295D02*
X152242857Y-78135771D01*
X152242857Y-78135771D02*
X152242857Y-78373866D01*
X152242857Y-78373866D02*
X152195238Y-78564342D01*
X152195238Y-78564342D02*
X152147619Y-78659580D01*
X152147619Y-78659580D02*
X152100000Y-78707200D01*
X152100000Y-78707200D02*
X152004762Y-78754819D01*
X152004762Y-78754819D02*
X151909524Y-78754819D01*
X151909524Y-78754819D02*
X151814286Y-78707200D01*
X151814286Y-78707200D02*
X151766667Y-78659580D01*
X151766667Y-78659580D02*
X151719048Y-78564342D01*
X151719048Y-78564342D02*
X151671429Y-78373866D01*
X151671429Y-78373866D02*
X151671429Y-78135771D01*
X151671429Y-78135771D02*
X151719048Y-77945295D01*
X151719048Y-77945295D02*
X151766667Y-77850057D01*
X151766667Y-77850057D02*
X151814286Y-77802438D01*
X151814286Y-77802438D02*
X151909524Y-77754819D01*
X185603333Y-95124580D02*
X185555714Y-95172200D01*
X185555714Y-95172200D02*
X185412857Y-95219819D01*
X185412857Y-95219819D02*
X185317619Y-95219819D01*
X185317619Y-95219819D02*
X185174762Y-95172200D01*
X185174762Y-95172200D02*
X185079524Y-95076961D01*
X185079524Y-95076961D02*
X185031905Y-94981723D01*
X185031905Y-94981723D02*
X184984286Y-94791247D01*
X184984286Y-94791247D02*
X184984286Y-94648390D01*
X184984286Y-94648390D02*
X185031905Y-94457914D01*
X185031905Y-94457914D02*
X185079524Y-94362676D01*
X185079524Y-94362676D02*
X185174762Y-94267438D01*
X185174762Y-94267438D02*
X185317619Y-94219819D01*
X185317619Y-94219819D02*
X185412857Y-94219819D01*
X185412857Y-94219819D02*
X185555714Y-94267438D01*
X185555714Y-94267438D02*
X185603333Y-94315057D01*
X185936667Y-94219819D02*
X186555714Y-94219819D01*
X186555714Y-94219819D02*
X186222381Y-94600771D01*
X186222381Y-94600771D02*
X186365238Y-94600771D01*
X186365238Y-94600771D02*
X186460476Y-94648390D01*
X186460476Y-94648390D02*
X186508095Y-94696009D01*
X186508095Y-94696009D02*
X186555714Y-94791247D01*
X186555714Y-94791247D02*
X186555714Y-95029342D01*
X186555714Y-95029342D02*
X186508095Y-95124580D01*
X186508095Y-95124580D02*
X186460476Y-95172200D01*
X186460476Y-95172200D02*
X186365238Y-95219819D01*
X186365238Y-95219819D02*
X186079524Y-95219819D01*
X186079524Y-95219819D02*
X185984286Y-95172200D01*
X185984286Y-95172200D02*
X185936667Y-95124580D01*
X166133333Y-78659580D02*
X166085714Y-78707200D01*
X166085714Y-78707200D02*
X165942857Y-78754819D01*
X165942857Y-78754819D02*
X165847619Y-78754819D01*
X165847619Y-78754819D02*
X165704762Y-78707200D01*
X165704762Y-78707200D02*
X165609524Y-78611961D01*
X165609524Y-78611961D02*
X165561905Y-78516723D01*
X165561905Y-78516723D02*
X165514286Y-78326247D01*
X165514286Y-78326247D02*
X165514286Y-78183390D01*
X165514286Y-78183390D02*
X165561905Y-77992914D01*
X165561905Y-77992914D02*
X165609524Y-77897676D01*
X165609524Y-77897676D02*
X165704762Y-77802438D01*
X165704762Y-77802438D02*
X165847619Y-77754819D01*
X165847619Y-77754819D02*
X165942857Y-77754819D01*
X165942857Y-77754819D02*
X166085714Y-77802438D01*
X166085714Y-77802438D02*
X166133333Y-77850057D01*
X166514286Y-77850057D02*
X166561905Y-77802438D01*
X166561905Y-77802438D02*
X166657143Y-77754819D01*
X166657143Y-77754819D02*
X166895238Y-77754819D01*
X166895238Y-77754819D02*
X166990476Y-77802438D01*
X166990476Y-77802438D02*
X167038095Y-77850057D01*
X167038095Y-77850057D02*
X167085714Y-77945295D01*
X167085714Y-77945295D02*
X167085714Y-78040533D01*
X167085714Y-78040533D02*
X167038095Y-78183390D01*
X167038095Y-78183390D02*
X166466667Y-78754819D01*
X166466667Y-78754819D02*
X167085714Y-78754819D01*
X104333333Y-75859580D02*
X104285714Y-75907200D01*
X104285714Y-75907200D02*
X104142857Y-75954819D01*
X104142857Y-75954819D02*
X104047619Y-75954819D01*
X104047619Y-75954819D02*
X103904762Y-75907200D01*
X103904762Y-75907200D02*
X103809524Y-75811961D01*
X103809524Y-75811961D02*
X103761905Y-75716723D01*
X103761905Y-75716723D02*
X103714286Y-75526247D01*
X103714286Y-75526247D02*
X103714286Y-75383390D01*
X103714286Y-75383390D02*
X103761905Y-75192914D01*
X103761905Y-75192914D02*
X103809524Y-75097676D01*
X103809524Y-75097676D02*
X103904762Y-75002438D01*
X103904762Y-75002438D02*
X104047619Y-74954819D01*
X104047619Y-74954819D02*
X104142857Y-74954819D01*
X104142857Y-74954819D02*
X104285714Y-75002438D01*
X104285714Y-75002438D02*
X104333333Y-75050057D01*
X105190476Y-75288152D02*
X105190476Y-75954819D01*
X104952381Y-74907200D02*
X104714286Y-75621485D01*
X104714286Y-75621485D02*
X105333333Y-75621485D01*
X138454819Y-95209523D02*
X139169104Y-95209523D01*
X139169104Y-95209523D02*
X139311961Y-95257142D01*
X139311961Y-95257142D02*
X139407200Y-95352380D01*
X139407200Y-95352380D02*
X139454819Y-95495237D01*
X139454819Y-95495237D02*
X139454819Y-95590475D01*
X138550057Y-94780951D02*
X138502438Y-94733332D01*
X138502438Y-94733332D02*
X138454819Y-94638094D01*
X138454819Y-94638094D02*
X138454819Y-94399999D01*
X138454819Y-94399999D02*
X138502438Y-94304761D01*
X138502438Y-94304761D02*
X138550057Y-94257142D01*
X138550057Y-94257142D02*
X138645295Y-94209523D01*
X138645295Y-94209523D02*
X138740533Y-94209523D01*
X138740533Y-94209523D02*
X138883390Y-94257142D01*
X138883390Y-94257142D02*
X139454819Y-94828570D01*
X139454819Y-94828570D02*
X139454819Y-94209523D01*
X138454819Y-93352380D02*
X138454819Y-93542856D01*
X138454819Y-93542856D02*
X138502438Y-93638094D01*
X138502438Y-93638094D02*
X138550057Y-93685713D01*
X138550057Y-93685713D02*
X138692914Y-93780951D01*
X138692914Y-93780951D02*
X138883390Y-93828570D01*
X138883390Y-93828570D02*
X139264342Y-93828570D01*
X139264342Y-93828570D02*
X139359580Y-93780951D01*
X139359580Y-93780951D02*
X139407200Y-93733332D01*
X139407200Y-93733332D02*
X139454819Y-93638094D01*
X139454819Y-93638094D02*
X139454819Y-93447618D01*
X139454819Y-93447618D02*
X139407200Y-93352380D01*
X139407200Y-93352380D02*
X139359580Y-93304761D01*
X139359580Y-93304761D02*
X139264342Y-93257142D01*
X139264342Y-93257142D02*
X139026247Y-93257142D01*
X139026247Y-93257142D02*
X138931009Y-93304761D01*
X138931009Y-93304761D02*
X138883390Y-93352380D01*
X138883390Y-93352380D02*
X138835771Y-93447618D01*
X138835771Y-93447618D02*
X138835771Y-93638094D01*
X138835771Y-93638094D02*
X138883390Y-93733332D01*
X138883390Y-93733332D02*
X138931009Y-93780951D01*
X138931009Y-93780951D02*
X139026247Y-93828570D01*
X111000476Y-90964819D02*
X111000476Y-91679104D01*
X111000476Y-91679104D02*
X110952857Y-91821961D01*
X110952857Y-91821961D02*
X110857619Y-91917200D01*
X110857619Y-91917200D02*
X110714762Y-91964819D01*
X110714762Y-91964819D02*
X110619524Y-91964819D01*
X112000476Y-91964819D02*
X111429048Y-91964819D01*
X111714762Y-91964819D02*
X111714762Y-90964819D01*
X111714762Y-90964819D02*
X111619524Y-91107676D01*
X111619524Y-91107676D02*
X111524286Y-91202914D01*
X111524286Y-91202914D02*
X111429048Y-91250533D01*
X112333810Y-90964819D02*
X113000476Y-90964819D01*
X113000476Y-90964819D02*
X112571905Y-91964819D01*
X153954819Y-94333333D02*
X154669104Y-94333333D01*
X154669104Y-94333333D02*
X154811961Y-94380952D01*
X154811961Y-94380952D02*
X154907200Y-94476190D01*
X154907200Y-94476190D02*
X154954819Y-94619047D01*
X154954819Y-94619047D02*
X154954819Y-94714285D01*
X154954819Y-93809523D02*
X154954819Y-93619047D01*
X154954819Y-93619047D02*
X154907200Y-93523809D01*
X154907200Y-93523809D02*
X154859580Y-93476190D01*
X154859580Y-93476190D02*
X154716723Y-93380952D01*
X154716723Y-93380952D02*
X154526247Y-93333333D01*
X154526247Y-93333333D02*
X154145295Y-93333333D01*
X154145295Y-93333333D02*
X154050057Y-93380952D01*
X154050057Y-93380952D02*
X154002438Y-93428571D01*
X154002438Y-93428571D02*
X153954819Y-93523809D01*
X153954819Y-93523809D02*
X153954819Y-93714285D01*
X153954819Y-93714285D02*
X154002438Y-93809523D01*
X154002438Y-93809523D02*
X154050057Y-93857142D01*
X154050057Y-93857142D02*
X154145295Y-93904761D01*
X154145295Y-93904761D02*
X154383390Y-93904761D01*
X154383390Y-93904761D02*
X154478628Y-93857142D01*
X154478628Y-93857142D02*
X154526247Y-93809523D01*
X154526247Y-93809523D02*
X154573866Y-93714285D01*
X154573866Y-93714285D02*
X154573866Y-93523809D01*
X154573866Y-93523809D02*
X154526247Y-93428571D01*
X154526247Y-93428571D02*
X154478628Y-93380952D01*
X154478628Y-93380952D02*
X154383390Y-93333333D01*
X159454819Y-95059523D02*
X160169104Y-95059523D01*
X160169104Y-95059523D02*
X160311961Y-95107142D01*
X160311961Y-95107142D02*
X160407200Y-95202380D01*
X160407200Y-95202380D02*
X160454819Y-95345237D01*
X160454819Y-95345237D02*
X160454819Y-95440475D01*
X160454819Y-94059523D02*
X160454819Y-94630951D01*
X160454819Y-94345237D02*
X159454819Y-94345237D01*
X159454819Y-94345237D02*
X159597676Y-94440475D01*
X159597676Y-94440475D02*
X159692914Y-94535713D01*
X159692914Y-94535713D02*
X159740533Y-94630951D01*
X160454819Y-93107142D02*
X160454819Y-93678570D01*
X160454819Y-93392856D02*
X159454819Y-93392856D01*
X159454819Y-93392856D02*
X159597676Y-93488094D01*
X159597676Y-93488094D02*
X159692914Y-93583332D01*
X159692914Y-93583332D02*
X159740533Y-93678570D01*
X158390476Y-77954819D02*
X158390476Y-78669104D01*
X158390476Y-78669104D02*
X158342857Y-78811961D01*
X158342857Y-78811961D02*
X158247619Y-78907200D01*
X158247619Y-78907200D02*
X158104762Y-78954819D01*
X158104762Y-78954819D02*
X158009524Y-78954819D01*
X159390476Y-78954819D02*
X158819048Y-78954819D01*
X159104762Y-78954819D02*
X159104762Y-77954819D01*
X159104762Y-77954819D02*
X159009524Y-78097676D01*
X159009524Y-78097676D02*
X158914286Y-78192914D01*
X158914286Y-78192914D02*
X158819048Y-78240533D01*
X160295238Y-77954819D02*
X159819048Y-77954819D01*
X159819048Y-77954819D02*
X159771429Y-78431009D01*
X159771429Y-78431009D02*
X159819048Y-78383390D01*
X159819048Y-78383390D02*
X159914286Y-78335771D01*
X159914286Y-78335771D02*
X160152381Y-78335771D01*
X160152381Y-78335771D02*
X160247619Y-78383390D01*
X160247619Y-78383390D02*
X160295238Y-78431009D01*
X160295238Y-78431009D02*
X160342857Y-78526247D01*
X160342857Y-78526247D02*
X160342857Y-78764342D01*
X160342857Y-78764342D02*
X160295238Y-78859580D01*
X160295238Y-78859580D02*
X160247619Y-78907200D01*
X160247619Y-78907200D02*
X160152381Y-78954819D01*
X160152381Y-78954819D02*
X159914286Y-78954819D01*
X159914286Y-78954819D02*
X159819048Y-78907200D01*
X159819048Y-78907200D02*
X159771429Y-78859580D01*
X146716666Y-84834819D02*
X146716666Y-85549104D01*
X146716666Y-85549104D02*
X146669047Y-85691961D01*
X146669047Y-85691961D02*
X146573809Y-85787200D01*
X146573809Y-85787200D02*
X146430952Y-85834819D01*
X146430952Y-85834819D02*
X146335714Y-85834819D01*
X147145238Y-84930057D02*
X147192857Y-84882438D01*
X147192857Y-84882438D02*
X147288095Y-84834819D01*
X147288095Y-84834819D02*
X147526190Y-84834819D01*
X147526190Y-84834819D02*
X147621428Y-84882438D01*
X147621428Y-84882438D02*
X147669047Y-84930057D01*
X147669047Y-84930057D02*
X147716666Y-85025295D01*
X147716666Y-85025295D02*
X147716666Y-85120533D01*
X147716666Y-85120533D02*
X147669047Y-85263390D01*
X147669047Y-85263390D02*
X147097619Y-85834819D01*
X147097619Y-85834819D02*
X147716666Y-85834819D01*
X112360588Y-88169819D02*
X111789160Y-88169819D01*
X112074874Y-88169819D02*
X112074874Y-87169819D01*
X112074874Y-87169819D02*
X111979636Y-87312676D01*
X111979636Y-87312676D02*
X111884398Y-87407914D01*
X111884398Y-87407914D02*
X111789160Y-87455533D01*
X185039160Y-90465057D02*
X185086779Y-90417438D01*
X185086779Y-90417438D02*
X185182017Y-90369819D01*
X185182017Y-90369819D02*
X185420112Y-90369819D01*
X185420112Y-90369819D02*
X185515350Y-90417438D01*
X185515350Y-90417438D02*
X185562969Y-90465057D01*
X185562969Y-90465057D02*
X185610588Y-90560295D01*
X185610588Y-90560295D02*
X185610588Y-90655533D01*
X185610588Y-90655533D02*
X185562969Y-90798390D01*
X185562969Y-90798390D02*
X184991541Y-91369819D01*
X184991541Y-91369819D02*
X185610588Y-91369819D01*
X186515350Y-90369819D02*
X186039160Y-90369819D01*
X186039160Y-90369819D02*
X185991541Y-90846009D01*
X185991541Y-90846009D02*
X186039160Y-90798390D01*
X186039160Y-90798390D02*
X186134398Y-90750771D01*
X186134398Y-90750771D02*
X186372493Y-90750771D01*
X186372493Y-90750771D02*
X186467731Y-90798390D01*
X186467731Y-90798390D02*
X186515350Y-90846009D01*
X186515350Y-90846009D02*
X186562969Y-90941247D01*
X186562969Y-90941247D02*
X186562969Y-91179342D01*
X186562969Y-91179342D02*
X186515350Y-91274580D01*
X186515350Y-91274580D02*
X186467731Y-91322200D01*
X186467731Y-91322200D02*
X186372493Y-91369819D01*
X186372493Y-91369819D02*
X186134398Y-91369819D01*
X186134398Y-91369819D02*
X186039160Y-91322200D01*
X186039160Y-91322200D02*
X185991541Y-91274580D01*
X185289160Y-80065057D02*
X185336779Y-80017438D01*
X185336779Y-80017438D02*
X185432017Y-79969819D01*
X185432017Y-79969819D02*
X185670112Y-79969819D01*
X185670112Y-79969819D02*
X185765350Y-80017438D01*
X185765350Y-80017438D02*
X185812969Y-80065057D01*
X185812969Y-80065057D02*
X185860588Y-80160295D01*
X185860588Y-80160295D02*
X185860588Y-80255533D01*
X185860588Y-80255533D02*
X185812969Y-80398390D01*
X185812969Y-80398390D02*
X185241541Y-80969819D01*
X185241541Y-80969819D02*
X185860588Y-80969819D01*
X186717731Y-79969819D02*
X186527255Y-79969819D01*
X186527255Y-79969819D02*
X186432017Y-80017438D01*
X186432017Y-80017438D02*
X186384398Y-80065057D01*
X186384398Y-80065057D02*
X186289160Y-80207914D01*
X186289160Y-80207914D02*
X186241541Y-80398390D01*
X186241541Y-80398390D02*
X186241541Y-80779342D01*
X186241541Y-80779342D02*
X186289160Y-80874580D01*
X186289160Y-80874580D02*
X186336779Y-80922200D01*
X186336779Y-80922200D02*
X186432017Y-80969819D01*
X186432017Y-80969819D02*
X186622493Y-80969819D01*
X186622493Y-80969819D02*
X186717731Y-80922200D01*
X186717731Y-80922200D02*
X186765350Y-80874580D01*
X186765350Y-80874580D02*
X186812969Y-80779342D01*
X186812969Y-80779342D02*
X186812969Y-80541247D01*
X186812969Y-80541247D02*
X186765350Y-80446009D01*
X186765350Y-80446009D02*
X186717731Y-80398390D01*
X186717731Y-80398390D02*
X186622493Y-80350771D01*
X186622493Y-80350771D02*
X186432017Y-80350771D01*
X186432017Y-80350771D02*
X186336779Y-80398390D01*
X186336779Y-80398390D02*
X186289160Y-80446009D01*
X186289160Y-80446009D02*
X186241541Y-80541247D01*
X111912969Y-80569819D02*
X111436779Y-80569819D01*
X111436779Y-80569819D02*
X111389160Y-81046009D01*
X111389160Y-81046009D02*
X111436779Y-80998390D01*
X111436779Y-80998390D02*
X111532017Y-80950771D01*
X111532017Y-80950771D02*
X111770112Y-80950771D01*
X111770112Y-80950771D02*
X111865350Y-80998390D01*
X111865350Y-80998390D02*
X111912969Y-81046009D01*
X111912969Y-81046009D02*
X111960588Y-81141247D01*
X111960588Y-81141247D02*
X111960588Y-81379342D01*
X111960588Y-81379342D02*
X111912969Y-81474580D01*
X111912969Y-81474580D02*
X111865350Y-81522200D01*
X111865350Y-81522200D02*
X111770112Y-81569819D01*
X111770112Y-81569819D02*
X111532017Y-81569819D01*
X111532017Y-81569819D02*
X111436779Y-81522200D01*
X111436779Y-81522200D02*
X111389160Y-81474580D01*
X112579636Y-80569819D02*
X112674874Y-80569819D01*
X112674874Y-80569819D02*
X112770112Y-80617438D01*
X112770112Y-80617438D02*
X112817731Y-80665057D01*
X112817731Y-80665057D02*
X112865350Y-80760295D01*
X112865350Y-80760295D02*
X112912969Y-80950771D01*
X112912969Y-80950771D02*
X112912969Y-81188866D01*
X112912969Y-81188866D02*
X112865350Y-81379342D01*
X112865350Y-81379342D02*
X112817731Y-81474580D01*
X112817731Y-81474580D02*
X112770112Y-81522200D01*
X112770112Y-81522200D02*
X112674874Y-81569819D01*
X112674874Y-81569819D02*
X112579636Y-81569819D01*
X112579636Y-81569819D02*
X112484398Y-81522200D01*
X112484398Y-81522200D02*
X112436779Y-81474580D01*
X112436779Y-81474580D02*
X112389160Y-81379342D01*
X112389160Y-81379342D02*
X112341541Y-81188866D01*
X112341541Y-81188866D02*
X112341541Y-80950771D01*
X112341541Y-80950771D02*
X112389160Y-80760295D01*
X112389160Y-80760295D02*
X112436779Y-80665057D01*
X112436779Y-80665057D02*
X112484398Y-80617438D01*
X112484398Y-80617438D02*
X112579636Y-80569819D01*
X105083333Y-107359580D02*
X105035714Y-107407200D01*
X105035714Y-107407200D02*
X104892857Y-107454819D01*
X104892857Y-107454819D02*
X104797619Y-107454819D01*
X104797619Y-107454819D02*
X104654762Y-107407200D01*
X104654762Y-107407200D02*
X104559524Y-107311961D01*
X104559524Y-107311961D02*
X104511905Y-107216723D01*
X104511905Y-107216723D02*
X104464286Y-107026247D01*
X104464286Y-107026247D02*
X104464286Y-106883390D01*
X104464286Y-106883390D02*
X104511905Y-106692914D01*
X104511905Y-106692914D02*
X104559524Y-106597676D01*
X104559524Y-106597676D02*
X104654762Y-106502438D01*
X104654762Y-106502438D02*
X104797619Y-106454819D01*
X104797619Y-106454819D02*
X104892857Y-106454819D01*
X104892857Y-106454819D02*
X105035714Y-106502438D01*
X105035714Y-106502438D02*
X105083333Y-106550057D01*
X106035714Y-107454819D02*
X105464286Y-107454819D01*
X105750000Y-107454819D02*
X105750000Y-106454819D01*
X105750000Y-106454819D02*
X105654762Y-106597676D01*
X105654762Y-106597676D02*
X105559524Y-106692914D01*
X105559524Y-106692914D02*
X105464286Y-106740533D01*
X115944819Y-100893333D02*
X116659104Y-100893333D01*
X116659104Y-100893333D02*
X116801961Y-100940952D01*
X116801961Y-100940952D02*
X116897200Y-101036190D01*
X116897200Y-101036190D02*
X116944819Y-101179047D01*
X116944819Y-101179047D02*
X116944819Y-101274285D01*
X115944819Y-99940952D02*
X115944819Y-100417142D01*
X115944819Y-100417142D02*
X116421009Y-100464761D01*
X116421009Y-100464761D02*
X116373390Y-100417142D01*
X116373390Y-100417142D02*
X116325771Y-100321904D01*
X116325771Y-100321904D02*
X116325771Y-100083809D01*
X116325771Y-100083809D02*
X116373390Y-99988571D01*
X116373390Y-99988571D02*
X116421009Y-99940952D01*
X116421009Y-99940952D02*
X116516247Y-99893333D01*
X116516247Y-99893333D02*
X116754342Y-99893333D01*
X116754342Y-99893333D02*
X116849580Y-99940952D01*
X116849580Y-99940952D02*
X116897200Y-99988571D01*
X116897200Y-99988571D02*
X116944819Y-100083809D01*
X116944819Y-100083809D02*
X116944819Y-100321904D01*
X116944819Y-100321904D02*
X116897200Y-100417142D01*
X116897200Y-100417142D02*
X116849580Y-100464761D01*
X96160476Y-88524819D02*
X96160476Y-89239104D01*
X96160476Y-89239104D02*
X96112857Y-89381961D01*
X96112857Y-89381961D02*
X96017619Y-89477200D01*
X96017619Y-89477200D02*
X95874762Y-89524819D01*
X95874762Y-89524819D02*
X95779524Y-89524819D01*
X97160476Y-89524819D02*
X96589048Y-89524819D01*
X96874762Y-89524819D02*
X96874762Y-88524819D01*
X96874762Y-88524819D02*
X96779524Y-88667676D01*
X96779524Y-88667676D02*
X96684286Y-88762914D01*
X96684286Y-88762914D02*
X96589048Y-88810533D01*
X98017619Y-88524819D02*
X97827143Y-88524819D01*
X97827143Y-88524819D02*
X97731905Y-88572438D01*
X97731905Y-88572438D02*
X97684286Y-88620057D01*
X97684286Y-88620057D02*
X97589048Y-88762914D01*
X97589048Y-88762914D02*
X97541429Y-88953390D01*
X97541429Y-88953390D02*
X97541429Y-89334342D01*
X97541429Y-89334342D02*
X97589048Y-89429580D01*
X97589048Y-89429580D02*
X97636667Y-89477200D01*
X97636667Y-89477200D02*
X97731905Y-89524819D01*
X97731905Y-89524819D02*
X97922381Y-89524819D01*
X97922381Y-89524819D02*
X98017619Y-89477200D01*
X98017619Y-89477200D02*
X98065238Y-89429580D01*
X98065238Y-89429580D02*
X98112857Y-89334342D01*
X98112857Y-89334342D02*
X98112857Y-89096247D01*
X98112857Y-89096247D02*
X98065238Y-89001009D01*
X98065238Y-89001009D02*
X98017619Y-88953390D01*
X98017619Y-88953390D02*
X97922381Y-88905771D01*
X97922381Y-88905771D02*
X97731905Y-88905771D01*
X97731905Y-88905771D02*
X97636667Y-88953390D01*
X97636667Y-88953390D02*
X97589048Y-89001009D01*
X97589048Y-89001009D02*
X97541429Y-89096247D01*
X142566666Y-77754819D02*
X142566666Y-78469104D01*
X142566666Y-78469104D02*
X142519047Y-78611961D01*
X142519047Y-78611961D02*
X142423809Y-78707200D01*
X142423809Y-78707200D02*
X142280952Y-78754819D01*
X142280952Y-78754819D02*
X142185714Y-78754819D01*
X142947619Y-77754819D02*
X143566666Y-77754819D01*
X143566666Y-77754819D02*
X143233333Y-78135771D01*
X143233333Y-78135771D02*
X143376190Y-78135771D01*
X143376190Y-78135771D02*
X143471428Y-78183390D01*
X143471428Y-78183390D02*
X143519047Y-78231009D01*
X143519047Y-78231009D02*
X143566666Y-78326247D01*
X143566666Y-78326247D02*
X143566666Y-78564342D01*
X143566666Y-78564342D02*
X143519047Y-78659580D01*
X143519047Y-78659580D02*
X143471428Y-78707200D01*
X143471428Y-78707200D02*
X143376190Y-78754819D01*
X143376190Y-78754819D02*
X143090476Y-78754819D01*
X143090476Y-78754819D02*
X142995238Y-78707200D01*
X142995238Y-78707200D02*
X142947619Y-78659580D01*
X148854819Y-94809523D02*
X149569104Y-94809523D01*
X149569104Y-94809523D02*
X149711961Y-94857142D01*
X149711961Y-94857142D02*
X149807200Y-94952380D01*
X149807200Y-94952380D02*
X149854819Y-95095237D01*
X149854819Y-95095237D02*
X149854819Y-95190475D01*
X149854819Y-93809523D02*
X149854819Y-94380951D01*
X149854819Y-94095237D02*
X148854819Y-94095237D01*
X148854819Y-94095237D02*
X148997676Y-94190475D01*
X148997676Y-94190475D02*
X149092914Y-94285713D01*
X149092914Y-94285713D02*
X149140533Y-94380951D01*
X149188152Y-92952380D02*
X149854819Y-92952380D01*
X148807200Y-93190475D02*
X149521485Y-93428570D01*
X149521485Y-93428570D02*
X149521485Y-92809523D01*
X176454819Y-94583333D02*
X177169104Y-94583333D01*
X177169104Y-94583333D02*
X177311961Y-94630952D01*
X177311961Y-94630952D02*
X177407200Y-94726190D01*
X177407200Y-94726190D02*
X177454819Y-94869047D01*
X177454819Y-94869047D02*
X177454819Y-94964285D01*
X176883390Y-93964285D02*
X176835771Y-94059523D01*
X176835771Y-94059523D02*
X176788152Y-94107142D01*
X176788152Y-94107142D02*
X176692914Y-94154761D01*
X176692914Y-94154761D02*
X176645295Y-94154761D01*
X176645295Y-94154761D02*
X176550057Y-94107142D01*
X176550057Y-94107142D02*
X176502438Y-94059523D01*
X176502438Y-94059523D02*
X176454819Y-93964285D01*
X176454819Y-93964285D02*
X176454819Y-93773809D01*
X176454819Y-93773809D02*
X176502438Y-93678571D01*
X176502438Y-93678571D02*
X176550057Y-93630952D01*
X176550057Y-93630952D02*
X176645295Y-93583333D01*
X176645295Y-93583333D02*
X176692914Y-93583333D01*
X176692914Y-93583333D02*
X176788152Y-93630952D01*
X176788152Y-93630952D02*
X176835771Y-93678571D01*
X176835771Y-93678571D02*
X176883390Y-93773809D01*
X176883390Y-93773809D02*
X176883390Y-93964285D01*
X176883390Y-93964285D02*
X176931009Y-94059523D01*
X176931009Y-94059523D02*
X176978628Y-94107142D01*
X176978628Y-94107142D02*
X177073866Y-94154761D01*
X177073866Y-94154761D02*
X177264342Y-94154761D01*
X177264342Y-94154761D02*
X177359580Y-94107142D01*
X177359580Y-94107142D02*
X177407200Y-94059523D01*
X177407200Y-94059523D02*
X177454819Y-93964285D01*
X177454819Y-93964285D02*
X177454819Y-93773809D01*
X177454819Y-93773809D02*
X177407200Y-93678571D01*
X177407200Y-93678571D02*
X177359580Y-93630952D01*
X177359580Y-93630952D02*
X177264342Y-93583333D01*
X177264342Y-93583333D02*
X177073866Y-93583333D01*
X177073866Y-93583333D02*
X176978628Y-93630952D01*
X176978628Y-93630952D02*
X176931009Y-93678571D01*
X176931009Y-93678571D02*
X176883390Y-93773809D01*
X187264819Y-99904523D02*
X187979104Y-99904523D01*
X187979104Y-99904523D02*
X188121961Y-99952142D01*
X188121961Y-99952142D02*
X188217200Y-100047380D01*
X188217200Y-100047380D02*
X188264819Y-100190237D01*
X188264819Y-100190237D02*
X188264819Y-100285475D01*
X187360057Y-99475951D02*
X187312438Y-99428332D01*
X187312438Y-99428332D02*
X187264819Y-99333094D01*
X187264819Y-99333094D02*
X187264819Y-99094999D01*
X187264819Y-99094999D02*
X187312438Y-98999761D01*
X187312438Y-98999761D02*
X187360057Y-98952142D01*
X187360057Y-98952142D02*
X187455295Y-98904523D01*
X187455295Y-98904523D02*
X187550533Y-98904523D01*
X187550533Y-98904523D02*
X187693390Y-98952142D01*
X187693390Y-98952142D02*
X188264819Y-99523570D01*
X188264819Y-99523570D02*
X188264819Y-98904523D01*
X187264819Y-98571189D02*
X187264819Y-97904523D01*
X187264819Y-97904523D02*
X188264819Y-98333094D01*
X190133333Y-84959580D02*
X190085714Y-85007200D01*
X190085714Y-85007200D02*
X189942857Y-85054819D01*
X189942857Y-85054819D02*
X189847619Y-85054819D01*
X189847619Y-85054819D02*
X189704762Y-85007200D01*
X189704762Y-85007200D02*
X189609524Y-84911961D01*
X189609524Y-84911961D02*
X189561905Y-84816723D01*
X189561905Y-84816723D02*
X189514286Y-84626247D01*
X189514286Y-84626247D02*
X189514286Y-84483390D01*
X189514286Y-84483390D02*
X189561905Y-84292914D01*
X189561905Y-84292914D02*
X189609524Y-84197676D01*
X189609524Y-84197676D02*
X189704762Y-84102438D01*
X189704762Y-84102438D02*
X189847619Y-84054819D01*
X189847619Y-84054819D02*
X189942857Y-84054819D01*
X189942857Y-84054819D02*
X190085714Y-84102438D01*
X190085714Y-84102438D02*
X190133333Y-84150057D01*
X191038095Y-84054819D02*
X190561905Y-84054819D01*
X190561905Y-84054819D02*
X190514286Y-84531009D01*
X190514286Y-84531009D02*
X190561905Y-84483390D01*
X190561905Y-84483390D02*
X190657143Y-84435771D01*
X190657143Y-84435771D02*
X190895238Y-84435771D01*
X190895238Y-84435771D02*
X190990476Y-84483390D01*
X190990476Y-84483390D02*
X191038095Y-84531009D01*
X191038095Y-84531009D02*
X191085714Y-84626247D01*
X191085714Y-84626247D02*
X191085714Y-84864342D01*
X191085714Y-84864342D02*
X191038095Y-84959580D01*
X191038095Y-84959580D02*
X190990476Y-85007200D01*
X190990476Y-85007200D02*
X190895238Y-85054819D01*
X190895238Y-85054819D02*
X190657143Y-85054819D01*
X190657143Y-85054819D02*
X190561905Y-85007200D01*
X190561905Y-85007200D02*
X190514286Y-84959580D01*
X170704819Y-95059523D02*
X171419104Y-95059523D01*
X171419104Y-95059523D02*
X171561961Y-95107142D01*
X171561961Y-95107142D02*
X171657200Y-95202380D01*
X171657200Y-95202380D02*
X171704819Y-95345237D01*
X171704819Y-95345237D02*
X171704819Y-95440475D01*
X171704819Y-94059523D02*
X171704819Y-94630951D01*
X171704819Y-94345237D02*
X170704819Y-94345237D01*
X170704819Y-94345237D02*
X170847676Y-94440475D01*
X170847676Y-94440475D02*
X170942914Y-94535713D01*
X170942914Y-94535713D02*
X170990533Y-94630951D01*
X170800057Y-93678570D02*
X170752438Y-93630951D01*
X170752438Y-93630951D02*
X170704819Y-93535713D01*
X170704819Y-93535713D02*
X170704819Y-93297618D01*
X170704819Y-93297618D02*
X170752438Y-93202380D01*
X170752438Y-93202380D02*
X170800057Y-93154761D01*
X170800057Y-93154761D02*
X170895295Y-93107142D01*
X170895295Y-93107142D02*
X170990533Y-93107142D01*
X170990533Y-93107142D02*
X171133390Y-93154761D01*
X171133390Y-93154761D02*
X171704819Y-93726189D01*
X171704819Y-93726189D02*
X171704819Y-93107142D01*
X143704819Y-94333333D02*
X144419104Y-94333333D01*
X144419104Y-94333333D02*
X144561961Y-94380952D01*
X144561961Y-94380952D02*
X144657200Y-94476190D01*
X144657200Y-94476190D02*
X144704819Y-94619047D01*
X144704819Y-94619047D02*
X144704819Y-94714285D01*
X143704819Y-93428571D02*
X143704819Y-93619047D01*
X143704819Y-93619047D02*
X143752438Y-93714285D01*
X143752438Y-93714285D02*
X143800057Y-93761904D01*
X143800057Y-93761904D02*
X143942914Y-93857142D01*
X143942914Y-93857142D02*
X144133390Y-93904761D01*
X144133390Y-93904761D02*
X144514342Y-93904761D01*
X144514342Y-93904761D02*
X144609580Y-93857142D01*
X144609580Y-93857142D02*
X144657200Y-93809523D01*
X144657200Y-93809523D02*
X144704819Y-93714285D01*
X144704819Y-93714285D02*
X144704819Y-93523809D01*
X144704819Y-93523809D02*
X144657200Y-93428571D01*
X144657200Y-93428571D02*
X144609580Y-93380952D01*
X144609580Y-93380952D02*
X144514342Y-93333333D01*
X144514342Y-93333333D02*
X144276247Y-93333333D01*
X144276247Y-93333333D02*
X144181009Y-93380952D01*
X144181009Y-93380952D02*
X144133390Y-93428571D01*
X144133390Y-93428571D02*
X144085771Y-93523809D01*
X144085771Y-93523809D02*
X144085771Y-93714285D01*
X144085771Y-93714285D02*
X144133390Y-93809523D01*
X144133390Y-93809523D02*
X144181009Y-93857142D01*
X144181009Y-93857142D02*
X144276247Y-93904761D01*
X130833333Y-78854819D02*
X130500000Y-78378628D01*
X130261905Y-78854819D02*
X130261905Y-77854819D01*
X130261905Y-77854819D02*
X130642857Y-77854819D01*
X130642857Y-77854819D02*
X130738095Y-77902438D01*
X130738095Y-77902438D02*
X130785714Y-77950057D01*
X130785714Y-77950057D02*
X130833333Y-78045295D01*
X130833333Y-78045295D02*
X130833333Y-78188152D01*
X130833333Y-78188152D02*
X130785714Y-78283390D01*
X130785714Y-78283390D02*
X130738095Y-78331009D01*
X130738095Y-78331009D02*
X130642857Y-78378628D01*
X130642857Y-78378628D02*
X130261905Y-78378628D01*
X131785714Y-78854819D02*
X131214286Y-78854819D01*
X131500000Y-78854819D02*
X131500000Y-77854819D01*
X131500000Y-77854819D02*
X131404762Y-77997676D01*
X131404762Y-77997676D02*
X131309524Y-78092914D01*
X131309524Y-78092914D02*
X131214286Y-78140533D01*
X164954819Y-94583333D02*
X165669104Y-94583333D01*
X165669104Y-94583333D02*
X165811961Y-94630952D01*
X165811961Y-94630952D02*
X165907200Y-94726190D01*
X165907200Y-94726190D02*
X165954819Y-94869047D01*
X165954819Y-94869047D02*
X165954819Y-94964285D01*
X164954819Y-94202380D02*
X164954819Y-93535714D01*
X164954819Y-93535714D02*
X165954819Y-93964285D01*
X172490476Y-77954819D02*
X172490476Y-78669104D01*
X172490476Y-78669104D02*
X172442857Y-78811961D01*
X172442857Y-78811961D02*
X172347619Y-78907200D01*
X172347619Y-78907200D02*
X172204762Y-78954819D01*
X172204762Y-78954819D02*
X172109524Y-78954819D01*
X173490476Y-78954819D02*
X172919048Y-78954819D01*
X173204762Y-78954819D02*
X173204762Y-77954819D01*
X173204762Y-77954819D02*
X173109524Y-78097676D01*
X173109524Y-78097676D02*
X173014286Y-78192914D01*
X173014286Y-78192914D02*
X172919048Y-78240533D01*
X173823810Y-77954819D02*
X174442857Y-77954819D01*
X174442857Y-77954819D02*
X174109524Y-78335771D01*
X174109524Y-78335771D02*
X174252381Y-78335771D01*
X174252381Y-78335771D02*
X174347619Y-78383390D01*
X174347619Y-78383390D02*
X174395238Y-78431009D01*
X174395238Y-78431009D02*
X174442857Y-78526247D01*
X174442857Y-78526247D02*
X174442857Y-78764342D01*
X174442857Y-78764342D02*
X174395238Y-78859580D01*
X174395238Y-78859580D02*
X174347619Y-78907200D01*
X174347619Y-78907200D02*
X174252381Y-78954819D01*
X174252381Y-78954819D02*
X173966667Y-78954819D01*
X173966667Y-78954819D02*
X173871429Y-78907200D01*
X173871429Y-78907200D02*
X173823810Y-78859580D01*
X102988095Y-91954819D02*
X102988095Y-92764342D01*
X102988095Y-92764342D02*
X103035714Y-92859580D01*
X103035714Y-92859580D02*
X103083333Y-92907200D01*
X103083333Y-92907200D02*
X103178571Y-92954819D01*
X103178571Y-92954819D02*
X103369047Y-92954819D01*
X103369047Y-92954819D02*
X103464285Y-92907200D01*
X103464285Y-92907200D02*
X103511904Y-92859580D01*
X103511904Y-92859580D02*
X103559523Y-92764342D01*
X103559523Y-92764342D02*
X103559523Y-91954819D01*
X104559523Y-92954819D02*
X103988095Y-92954819D01*
X104273809Y-92954819D02*
X104273809Y-91954819D01*
X104273809Y-91954819D02*
X104178571Y-92097676D01*
X104178571Y-92097676D02*
X104083333Y-92192914D01*
X104083333Y-92192914D02*
X103988095Y-92240533D01*
D12*
X115170000Y-77140000D02*
X115170000Y-75810000D01*
X116500000Y-77140000D02*
X115170000Y-77140000D01*
X117770000Y-74480000D02*
X122910000Y-74480000D01*
X117770000Y-77140000D02*
X117770000Y-74480000D01*
X117770000Y-77140000D02*
X122910000Y-77140000D01*
X122910000Y-77140000D02*
X122910000Y-74480000D01*
X148780000Y-76970000D02*
X148780000Y-75640000D01*
X150110000Y-76970000D02*
X148780000Y-76970000D01*
X151380000Y-74310000D02*
X153980000Y-74310000D01*
X151380000Y-76970000D02*
X151380000Y-74310000D01*
X151380000Y-76970000D02*
X153980000Y-76970000D01*
X153980000Y-76970000D02*
X153980000Y-74310000D01*
X184800000Y-97030000D02*
X184815000Y-97030000D01*
X184800000Y-101570000D02*
X184800000Y-97030000D01*
X184800000Y-101570000D02*
X184815000Y-101570000D01*
X186925000Y-97030000D02*
X186940000Y-97030000D01*
X186925000Y-101570000D02*
X186940000Y-101570000D01*
X186940000Y-101570000D02*
X186940000Y-97030000D01*
X164040000Y-74945000D02*
X164040000Y-74930000D01*
X164040000Y-77070000D02*
X164040000Y-77055000D01*
X168580000Y-74930000D02*
X164040000Y-74930000D01*
X168580000Y-74945000D02*
X168580000Y-74930000D01*
X168580000Y-77070000D02*
X164040000Y-77070000D01*
X168580000Y-77070000D02*
X168580000Y-77055000D01*
X103400000Y-77770000D02*
X103400000Y-82310000D01*
X103415000Y-77770000D02*
X103400000Y-77770000D01*
X103415000Y-82310000D02*
X103400000Y-82310000D01*
X105540000Y-77770000D02*
X105525000Y-77770000D01*
X105540000Y-77770000D02*
X105540000Y-82310000D01*
X105540000Y-82310000D02*
X105525000Y-82310000D01*
D13*
G36*
X183323136Y-107725152D02*
G01*
X183351405Y-107748436D01*
X183346089Y-107783020D01*
X183339272Y-107792445D01*
X183294919Y-107816227D01*
X183259026Y-107814391D01*
X183197213Y-107817995D01*
X183162906Y-107833816D01*
X183142203Y-107852320D01*
X183129439Y-107878437D01*
X183122746Y-107921271D01*
X183120255Y-107989927D01*
X183120000Y-108042900D01*
X183120000Y-108221907D01*
X183060000Y-108221907D01*
X183000000Y-108221907D01*
X183000000Y-107971708D01*
X183000000Y-107721509D01*
X183105000Y-107720969D01*
X183177817Y-107720211D01*
X183243149Y-107718900D01*
X183266189Y-107718158D01*
X183323136Y-107725152D01*
G37*
G36*
X185549165Y-107721195D02*
G01*
X185587003Y-107737935D01*
X185591411Y-107754746D01*
X185568099Y-107783662D01*
X185520307Y-107814605D01*
X185478365Y-107814259D01*
X185417557Y-107817928D01*
X185382906Y-107833816D01*
X185362203Y-107852320D01*
X185349439Y-107878437D01*
X185342746Y-107921271D01*
X185340255Y-107989927D01*
X185340000Y-108042900D01*
X185340000Y-108221907D01*
X185280000Y-108221907D01*
X185220000Y-108221907D01*
X185220000Y-107969988D01*
X185220000Y-107718070D01*
X185295000Y-107723975D01*
X185364370Y-107723843D01*
X185429199Y-107715413D01*
X185431525Y-107714861D01*
X185498823Y-107710806D01*
X185549165Y-107721195D01*
G37*
G36*
X185462124Y-106926883D02*
G01*
X185479995Y-106941341D01*
X185480000Y-106941602D01*
X185492242Y-106952099D01*
X185518685Y-106941602D01*
X185571023Y-106926145D01*
X185636454Y-106921853D01*
X185694685Y-106929128D01*
X185715472Y-106937674D01*
X185725989Y-106959964D01*
X185707830Y-106986420D01*
X185670704Y-107009953D01*
X185624321Y-107023470D01*
X185597322Y-107023961D01*
X185546659Y-107023744D01*
X185512758Y-107039655D01*
X185492455Y-107077616D01*
X185482590Y-107143545D01*
X185480000Y-107243364D01*
X185480000Y-107243585D01*
X185479508Y-107328196D01*
X185476675Y-107380523D01*
X185469468Y-107408314D01*
X185455852Y-107419316D01*
X185433791Y-107421276D01*
X185433333Y-107421276D01*
X185391331Y-107416102D01*
X185373333Y-107407932D01*
X185368122Y-107383772D01*
X185363865Y-107327969D01*
X185361009Y-107248907D01*
X185360000Y-107157735D01*
X185360000Y-106920882D01*
X185420000Y-106920882D01*
X185462124Y-106926883D01*
G37*
G36*
X186078353Y-106936154D02*
G01*
X186122784Y-106959622D01*
X186153804Y-106988878D01*
X186155384Y-107010063D01*
X186137333Y-107031632D01*
X186102488Y-107053690D01*
X186063648Y-107042931D01*
X185986885Y-107019505D01*
X185919396Y-107030897D01*
X185868662Y-107072819D01*
X185842165Y-107140985D01*
X185840000Y-107171079D01*
X185855956Y-107247632D01*
X185898838Y-107299482D01*
X185961165Y-107322343D01*
X186035456Y-107311927D01*
X186063648Y-107299228D01*
X186103572Y-107288596D01*
X186137333Y-107310191D01*
X186156928Y-107335355D01*
X186149832Y-107356331D01*
X186120000Y-107381755D01*
X186052582Y-107412023D01*
X185967745Y-107420346D01*
X185881567Y-107406651D01*
X185827612Y-107383054D01*
X185769040Y-107325817D01*
X185731109Y-107244339D01*
X185720000Y-107166113D01*
X185734495Y-107091783D01*
X185771739Y-107018359D01*
X185822370Y-106962464D01*
X185841703Y-106950024D01*
X185916761Y-106926240D01*
X186001071Y-106921802D01*
X186078353Y-106936154D01*
G37*
G36*
X184920000Y-107097021D02*
G01*
X184922349Y-107195693D01*
X184931338Y-107260974D01*
X184949878Y-107299332D01*
X184980878Y-107317232D01*
X185020900Y-107321197D01*
X185073557Y-107312185D01*
X185109091Y-107281720D01*
X185130089Y-107224661D01*
X185139137Y-107135866D01*
X185140000Y-107084436D01*
X185140505Y-107003993D01*
X185143670Y-106955499D01*
X185151965Y-106930871D01*
X185167861Y-106922027D01*
X185190000Y-106920882D01*
X185240000Y-106920882D01*
X185240000Y-107171079D01*
X185240000Y-107421276D01*
X185191666Y-107421276D01*
X185150993Y-107412113D01*
X185134166Y-107396256D01*
X185120811Y-107381274D01*
X185098500Y-107396256D01*
X185057979Y-107413610D01*
X184996821Y-107419867D01*
X184932808Y-107415078D01*
X184883720Y-107399295D01*
X184878266Y-107395620D01*
X184841679Y-107357347D01*
X184817852Y-107304391D01*
X184804686Y-107228885D01*
X184800082Y-107122964D01*
X184800000Y-107102340D01*
X184800000Y-106920882D01*
X184860000Y-106920882D01*
X184920000Y-106920882D01*
X184920000Y-107097021D01*
G37*
G36*
X181677871Y-106931797D02*
G01*
X181748348Y-106971114D01*
X181798092Y-107033517D01*
X181811631Y-107070380D01*
X181817542Y-107121671D01*
X181817417Y-107191450D01*
X181815007Y-107226043D01*
X181803492Y-107296082D01*
X181780843Y-107342387D01*
X181747567Y-107374976D01*
X181675639Y-107410828D01*
X181590187Y-107422326D01*
X181507268Y-107409089D01*
X181455404Y-107381923D01*
X181397214Y-107313015D01*
X181366086Y-107226533D01*
X181363940Y-107171079D01*
X181480000Y-107171079D01*
X181487982Y-107240608D01*
X181509267Y-107287428D01*
X181511428Y-107289744D01*
X181559384Y-107315175D01*
X181618195Y-107318987D01*
X181668866Y-107301140D01*
X181680884Y-107290107D01*
X181696943Y-107251474D01*
X181705957Y-107192400D01*
X181706666Y-107171079D01*
X181696974Y-107089718D01*
X181666504Y-107040839D01*
X181613169Y-107021531D01*
X181598979Y-107020961D01*
X181534686Y-107035728D01*
X181495403Y-107080774D01*
X181480247Y-107157213D01*
X181480000Y-107171079D01*
X181363940Y-107171079D01*
X181362498Y-107133837D01*
X181386928Y-107046287D01*
X181438349Y-106976575D01*
X181513240Y-106932108D01*
X181596291Y-106917988D01*
X181677871Y-106931797D01*
G37*
G36*
X183293111Y-106927819D02*
G01*
X183360474Y-106960648D01*
X183370909Y-106970012D01*
X183393339Y-106995361D01*
X183407664Y-107023346D01*
X183415683Y-107063183D01*
X183419195Y-107124088D01*
X183419998Y-107215278D01*
X183420000Y-107221538D01*
X183420000Y-107423935D01*
X183365000Y-107417602D01*
X183338258Y-107413065D01*
X183321660Y-107401504D01*
X183312346Y-107374675D01*
X183307456Y-107324332D01*
X183304129Y-107242232D01*
X183304126Y-107242132D01*
X183298283Y-107143907D01*
X183286858Y-107079166D01*
X183266806Y-107041439D01*
X183235082Y-107024259D01*
X183200000Y-107020961D01*
X183156973Y-107026538D01*
X183128010Y-107047582D01*
X183110066Y-107090561D01*
X183100096Y-107161943D01*
X183095873Y-107242132D01*
X183092547Y-107324268D01*
X183087660Y-107374637D01*
X183078352Y-107401486D01*
X183061763Y-107413058D01*
X183035032Y-107417598D01*
X183035000Y-107417602D01*
X182980000Y-107423935D01*
X182980000Y-107172409D01*
X182980000Y-106920882D01*
X183028819Y-106920882D01*
X183071182Y-106928283D01*
X183090033Y-106940952D01*
X183116595Y-106950134D01*
X183139898Y-106940952D01*
X183213789Y-106920525D01*
X183293111Y-106927819D01*
G37*
G36*
X184573715Y-106935178D02*
G01*
X184644904Y-106978845D01*
X184690958Y-107053053D01*
X184700368Y-107082378D01*
X184712012Y-107188329D01*
X184690861Y-107285888D01*
X184639058Y-107365249D01*
X184638443Y-107365866D01*
X184596057Y-107400700D01*
X184549309Y-107417128D01*
X184480683Y-107421276D01*
X184480000Y-107421276D01*
X184411723Y-107417347D01*
X184365084Y-107401225D01*
X184322125Y-107366405D01*
X184318461Y-107362769D01*
X184286514Y-107326738D01*
X184268900Y-107290609D01*
X184261453Y-107240717D01*
X184260000Y-107171079D01*
X184260530Y-107148890D01*
X184366478Y-107148890D01*
X184368651Y-107223096D01*
X184396306Y-107280214D01*
X184441775Y-107314823D01*
X184497386Y-107321502D01*
X184555470Y-107294832D01*
X184563425Y-107288072D01*
X184590421Y-107240638D01*
X184599968Y-107174534D01*
X184591802Y-107107238D01*
X184566900Y-107057565D01*
X184520337Y-107029154D01*
X184463181Y-107022392D01*
X184413631Y-107038197D01*
X184401481Y-107049199D01*
X184382466Y-107087529D01*
X184367467Y-107143150D01*
X184366478Y-107148890D01*
X184260530Y-107148890D01*
X184261781Y-107096517D01*
X184269902Y-107048263D01*
X184288532Y-107012655D01*
X184318461Y-106979390D01*
X184363509Y-106941943D01*
X184411452Y-106924784D01*
X184475764Y-106920882D01*
X184573715Y-106935178D01*
G37*
G36*
X183992907Y-106924765D02*
G01*
X184084255Y-106936186D01*
X184143148Y-106956041D01*
X184167194Y-106982931D01*
X184153999Y-107015457D01*
X184151865Y-107017664D01*
X184125901Y-107035374D01*
X184090926Y-107036228D01*
X184039978Y-107023319D01*
X183957863Y-107008630D01*
X183900260Y-107020037D01*
X183872592Y-107051441D01*
X183878500Y-107082624D01*
X183915593Y-107107144D01*
X183975100Y-107120121D01*
X183997744Y-107121040D01*
X184083550Y-107134662D01*
X184146215Y-107170790D01*
X184182634Y-107222315D01*
X184189699Y-107282129D01*
X184164303Y-107343124D01*
X184115395Y-107390226D01*
X184059999Y-107411261D01*
X183982153Y-107419625D01*
X183897384Y-107415207D01*
X183821222Y-107397893D01*
X183807400Y-107392446D01*
X183749789Y-107360866D01*
X183731247Y-107332647D01*
X183751114Y-107306484D01*
X183760999Y-107300646D01*
X183801523Y-107289074D01*
X183849869Y-107300849D01*
X183869582Y-107309650D01*
X183948350Y-107337215D01*
X184010417Y-107334426D01*
X184049427Y-107314084D01*
X184076952Y-107278922D01*
X184069397Y-107246820D01*
X184031408Y-107225514D01*
X183993612Y-107221119D01*
X183911053Y-107212009D01*
X183838633Y-107187873D01*
X183789027Y-107153497D01*
X183779577Y-107140266D01*
X183760031Y-107067774D01*
X183778509Y-107001108D01*
X183815000Y-106960430D01*
X183853926Y-106935595D01*
X183898072Y-106924122D01*
X183961926Y-106923106D01*
X183992907Y-106924765D01*
G37*
G36*
X185905039Y-107721019D02*
G01*
X185972405Y-107754660D01*
X186025033Y-107811129D01*
X186055446Y-107889949D01*
X186060000Y-107940692D01*
X186060000Y-108001733D01*
X185890000Y-108001733D01*
X185804114Y-108003151D01*
X185751572Y-108008143D01*
X185725790Y-108017815D01*
X185720000Y-108030327D01*
X185737564Y-108072599D01*
X185781398Y-108104613D01*
X185838212Y-108122042D01*
X185894717Y-108120560D01*
X185933852Y-108099958D01*
X185964713Y-108088536D01*
X185997852Y-108100662D01*
X186033657Y-108128385D01*
X186031617Y-108155611D01*
X185991053Y-108185996D01*
X185980993Y-108191369D01*
X185900121Y-108216562D01*
X185810791Y-108219039D01*
X185729816Y-108199440D01*
X185696317Y-108180532D01*
X185640762Y-108115375D01*
X185610013Y-108026491D01*
X185607320Y-107923877D01*
X185608914Y-107911930D01*
X185614572Y-107894749D01*
X185720000Y-107894749D01*
X185733778Y-107911636D01*
X185778491Y-107920097D01*
X185830000Y-107921670D01*
X185900466Y-107917583D01*
X185936148Y-107905777D01*
X185940000Y-107898227D01*
X185923499Y-107857935D01*
X185884743Y-107820975D01*
X185839854Y-107801973D01*
X185833475Y-107801576D01*
X185786198Y-107815410D01*
X185743388Y-107848325D01*
X185720732Y-107887439D01*
X185720000Y-107894749D01*
X185614572Y-107894749D01*
X185637782Y-107824276D01*
X185689308Y-107761835D01*
X185756012Y-107724130D01*
X185830415Y-107710683D01*
X185905039Y-107721019D01*
G37*
G36*
X182730596Y-106925165D02*
G01*
X182777550Y-106942559D01*
X182821538Y-106979390D01*
X182860822Y-107027934D01*
X182877482Y-107080712D01*
X182880000Y-107129508D01*
X182880000Y-107221119D01*
X182710000Y-107221119D01*
X182633180Y-107223135D01*
X182574427Y-107228515D01*
X182542920Y-107236257D01*
X182540000Y-107239682D01*
X182555085Y-107264730D01*
X182590676Y-107297635D01*
X182632273Y-107326884D01*
X182665376Y-107340960D01*
X182667697Y-107341090D01*
X182700533Y-107332351D01*
X182742071Y-107313774D01*
X182784874Y-107297437D01*
X182819460Y-107306974D01*
X182840532Y-107321600D01*
X182886921Y-107356619D01*
X182824454Y-107388947D01*
X182735969Y-107416132D01*
X182637812Y-107417568D01*
X182547928Y-107393667D01*
X182526085Y-107382125D01*
X182474302Y-107332636D01*
X182446424Y-107259566D01*
X182441182Y-107158552D01*
X182445572Y-107105438D01*
X182446537Y-107101804D01*
X182540000Y-107101804D01*
X182558167Y-107111949D01*
X182605388Y-107118919D01*
X182660000Y-107121040D01*
X182723287Y-107118229D01*
X182766769Y-107110924D01*
X182780000Y-107102477D01*
X182764835Y-107077208D01*
X182729006Y-107044273D01*
X182687012Y-107015089D01*
X182653351Y-107001073D01*
X182651074Y-107000945D01*
X182619396Y-107014333D01*
X182580446Y-107045395D01*
X182549260Y-107080476D01*
X182540000Y-107101804D01*
X182446537Y-107101804D01*
X182469225Y-107016375D01*
X182518092Y-106957427D01*
X182594436Y-106926672D01*
X182662653Y-106920882D01*
X182730596Y-106925165D01*
G37*
G36*
X183820000Y-107871631D02*
G01*
X183820000Y-108221907D01*
X183761666Y-108221907D01*
X183716919Y-108214235D01*
X183694166Y-108196887D01*
X183680811Y-108181905D01*
X183658500Y-108196887D01*
X183608630Y-108219812D01*
X183542156Y-108221338D01*
X183475151Y-108203156D01*
X183429090Y-108172777D01*
X183403966Y-108143340D01*
X183389194Y-108109977D01*
X183382109Y-108061463D01*
X183380045Y-107986577D01*
X183380006Y-107968975D01*
X183480382Y-107968975D01*
X183492939Y-108041239D01*
X183511134Y-108077343D01*
X183557869Y-108113738D01*
X183615362Y-108118670D01*
X183668087Y-108090855D01*
X183668571Y-108090374D01*
X183691290Y-108043576D01*
X183699969Y-107966882D01*
X183700000Y-107961407D01*
X183695870Y-107895874D01*
X183680306Y-107856017D01*
X183655549Y-107832734D01*
X183601962Y-107805260D01*
X183557840Y-107811474D01*
X183520000Y-107841607D01*
X183489618Y-107896700D01*
X183480382Y-107968975D01*
X183380006Y-107968975D01*
X183380000Y-107966101D01*
X183381248Y-107884642D01*
X183386797Y-107832122D01*
X183399350Y-107797482D01*
X183421612Y-107769662D01*
X183430014Y-107761530D01*
X183498255Y-107723518D01*
X183584270Y-107715830D01*
X183655000Y-107730922D01*
X183680496Y-107737073D01*
X183693924Y-107727701D01*
X183699140Y-107694481D01*
X183700000Y-107633776D01*
X183700949Y-107570003D01*
X183707268Y-107536509D01*
X183724159Y-107523544D01*
X183756828Y-107521356D01*
X183760000Y-107521355D01*
X183820000Y-107521355D01*
X183820000Y-107871631D01*
G37*
G36*
X184927538Y-107712098D02*
G01*
X184998174Y-107725737D01*
X185046354Y-107744614D01*
X185076352Y-107775853D01*
X185092441Y-107826577D01*
X185098895Y-107903912D01*
X185100000Y-107999568D01*
X185100000Y-108216654D01*
X184932387Y-108218940D01*
X184848704Y-108219107D01*
X184794216Y-108215191D01*
X184758151Y-108204739D01*
X184729737Y-108185294D01*
X184712387Y-108168797D01*
X184668900Y-108104831D01*
X184666216Y-108055301D01*
X184764082Y-108055301D01*
X184771422Y-108080971D01*
X184778203Y-108089638D01*
X184818736Y-108112787D01*
X184877777Y-108121284D01*
X184937126Y-108114911D01*
X184978580Y-108093450D01*
X184979788Y-108092059D01*
X184995227Y-108052771D01*
X184992865Y-108032012D01*
X184965945Y-108011126D01*
X184915634Y-108002196D01*
X184856768Y-108005397D01*
X184804185Y-108020907D01*
X184789577Y-108029591D01*
X184764082Y-108055301D01*
X184666216Y-108055301D01*
X184665390Y-108040059D01*
X184697327Y-107980050D01*
X184726273Y-107953397D01*
X184767159Y-107937331D01*
X184831628Y-107928113D01*
X184867327Y-107925461D01*
X184940371Y-107918936D01*
X184981343Y-107909371D01*
X184998165Y-107894250D01*
X185000000Y-107883310D01*
X184986570Y-107839640D01*
X184976000Y-107825595D01*
X184936093Y-107807331D01*
X184879724Y-107802379D01*
X184827505Y-107811025D01*
X184806357Y-107823235D01*
X184776234Y-107829628D01*
X184736493Y-107816351D01*
X184706006Y-107791833D01*
X184700000Y-107775724D01*
X184717941Y-107752501D01*
X184763569Y-107731445D01*
X184824593Y-107715994D01*
X184888719Y-107709584D01*
X184927538Y-107712098D01*
G37*
G36*
X182723760Y-107717543D02*
G01*
X182738971Y-107721235D01*
X182797367Y-107742208D01*
X182837383Y-107772822D01*
X182862287Y-107820147D01*
X182875348Y-107891250D01*
X182879834Y-107993200D01*
X182880000Y-108026203D01*
X182879588Y-108115856D01*
X182877196Y-108172862D01*
X182871089Y-108204606D01*
X182859530Y-108218470D01*
X182840785Y-108221838D01*
X182834000Y-108221907D01*
X182788131Y-108213035D01*
X182766257Y-108200147D01*
X182742115Y-108189212D01*
X182731077Y-108200147D01*
X182699379Y-108218054D01*
X182644441Y-108222734D01*
X182580347Y-108215352D01*
X182521184Y-108197074D01*
X182492697Y-108180422D01*
X182450571Y-108129980D01*
X182442264Y-108084250D01*
X182544604Y-108084250D01*
X182574051Y-108109050D01*
X182638826Y-108120726D01*
X182665644Y-108121521D01*
X182720137Y-108116269D01*
X182749139Y-108095597D01*
X182758554Y-108076792D01*
X182766837Y-108033958D01*
X182747647Y-108010684D01*
X182696647Y-108003837D01*
X182659754Y-108005453D01*
X182588742Y-108019946D01*
X182552036Y-108047338D01*
X182544604Y-108084250D01*
X182442264Y-108084250D01*
X182440000Y-108071788D01*
X182456958Y-108001265D01*
X182506679Y-107952251D01*
X182587427Y-107925989D01*
X182649363Y-107921670D01*
X182719515Y-107919753D01*
X182757221Y-107911366D01*
X182769958Y-107892551D01*
X182765434Y-107860245D01*
X182737435Y-107824033D01*
X182685019Y-107805950D01*
X182620929Y-107809321D01*
X182597427Y-107816436D01*
X182544891Y-107827014D01*
X182506709Y-107811650D01*
X182484514Y-107781718D01*
X182495179Y-107753782D01*
X182531569Y-107730620D01*
X182586551Y-107715008D01*
X182652993Y-107709724D01*
X182723760Y-107717543D01*
G37*
G36*
X186520680Y-106936363D02*
G01*
X186596220Y-106981214D01*
X186643493Y-107053050D01*
X186659998Y-107149485D01*
X186660000Y-107150419D01*
X186660000Y-107223662D01*
X186495000Y-107219297D01*
X186413675Y-107217975D01*
X186364427Y-107220346D01*
X186339386Y-107227985D01*
X186330683Y-107242464D01*
X186330000Y-107252285D01*
X186346097Y-107287941D01*
X186383651Y-107319776D01*
X186423727Y-107337804D01*
X186459184Y-107336432D01*
X186506691Y-107316800D01*
X186553389Y-107296730D01*
X186580473Y-107295760D01*
X186603716Y-107314322D01*
X186608543Y-107319587D01*
X186630118Y-107349039D01*
X186622562Y-107369913D01*
X186608821Y-107382223D01*
X186571805Y-107398356D01*
X186510471Y-107411660D01*
X186461097Y-107417321D01*
X186392498Y-107420155D01*
X186347338Y-107413162D01*
X186309393Y-107391712D01*
X186277780Y-107365030D01*
X186241346Y-107329718D01*
X186221075Y-107297273D01*
X186212309Y-107254254D01*
X186210390Y-107187219D01*
X186210415Y-107170663D01*
X186212111Y-107097229D01*
X186212512Y-107094744D01*
X186319777Y-107094744D01*
X186350750Y-107113398D01*
X186419129Y-107120925D01*
X186431466Y-107121040D01*
X186495415Y-107119256D01*
X186527883Y-107112065D01*
X186537300Y-107096704D01*
X186536324Y-107086700D01*
X186515159Y-107052643D01*
X186477163Y-107022840D01*
X186435498Y-107004592D01*
X186401511Y-107010339D01*
X186372304Y-107027617D01*
X186326774Y-107065854D01*
X186319777Y-107094744D01*
X186212512Y-107094744D01*
X186219662Y-107050468D01*
X186237610Y-107017044D01*
X186270500Y-106983618D01*
X186275730Y-106978916D01*
X186339149Y-106935609D01*
X186407818Y-106921088D01*
X186419374Y-106920882D01*
X186520680Y-106936363D01*
G37*
G36*
X184621766Y-107815430D02*
G01*
X184597335Y-107882644D01*
X184565943Y-107969759D01*
X184534012Y-108058949D01*
X184531219Y-108066784D01*
X184501948Y-108144669D01*
X184479225Y-108191551D01*
X184458218Y-108214804D01*
X184434098Y-108221802D01*
X184429613Y-108221907D01*
X184405078Y-108217162D01*
X184384769Y-108198012D01*
X184364096Y-108157081D01*
X184338473Y-108086994D01*
X184330000Y-108061780D01*
X184304169Y-107988957D01*
X184281444Y-107933457D01*
X184265562Y-107904114D01*
X184262212Y-107901654D01*
X184250174Y-107919413D01*
X184230700Y-107966733D01*
X184207326Y-108034678D01*
X184198854Y-108061755D01*
X184173658Y-108140623D01*
X184154102Y-108188414D01*
X184135494Y-108212722D01*
X184113142Y-108221143D01*
X184100000Y-108221774D01*
X184077651Y-108218725D01*
X184058817Y-108205460D01*
X184039913Y-108175678D01*
X184017356Y-108123078D01*
X183987561Y-108041356D01*
X183971954Y-107996622D01*
X183940625Y-107906371D01*
X183913667Y-107828894D01*
X183894032Y-107772659D01*
X183884814Y-107746532D01*
X183894204Y-107727325D01*
X183935081Y-107721513D01*
X183964739Y-107723609D01*
X183985595Y-107735056D01*
X184002716Y-107763585D01*
X184021168Y-107816932D01*
X184040000Y-107881639D01*
X184062301Y-107954870D01*
X184082034Y-108010506D01*
X184095901Y-108039548D01*
X184098714Y-108041765D01*
X184110508Y-108024123D01*
X184130311Y-107977200D01*
X184154439Y-107909999D01*
X184162161Y-107886643D01*
X184188598Y-107809116D01*
X184209198Y-107762549D01*
X184228823Y-107739327D01*
X184252336Y-107731838D01*
X184261226Y-107731520D01*
X184287472Y-107735969D01*
X184308599Y-107754401D01*
X184329747Y-107794450D01*
X184356058Y-107863748D01*
X184362339Y-107881639D01*
X184388640Y-107951804D01*
X184411867Y-108004437D01*
X184427908Y-108030466D01*
X184430418Y-108031757D01*
X184442872Y-108013936D01*
X184461766Y-107966687D01*
X184483489Y-107899326D01*
X184488599Y-107881639D01*
X184510927Y-107806021D01*
X184528750Y-107760773D01*
X184547705Y-107737543D01*
X184573427Y-107727975D01*
X184594038Y-107725359D01*
X184657036Y-107719197D01*
X184621766Y-107815430D01*
G37*
G36*
X182011868Y-106929754D02*
G01*
X182033742Y-106942642D01*
X182057884Y-106953577D01*
X182068922Y-106942642D01*
X182095594Y-106929292D01*
X182146626Y-106921612D01*
X182169402Y-106920882D01*
X182232159Y-106926379D01*
X182275729Y-106948783D01*
X182308222Y-106982465D01*
X182346108Y-107053293D01*
X182362853Y-107141491D01*
X182359262Y-107234488D01*
X182336141Y-107319716D01*
X182294297Y-107384604D01*
X182281733Y-107395620D01*
X182242740Y-107411205D01*
X182186328Y-107419150D01*
X182128085Y-107419064D01*
X182083599Y-107410555D01*
X182069798Y-107400934D01*
X182045829Y-107389387D01*
X182038618Y-107392107D01*
X182029763Y-107415714D01*
X182023826Y-107466436D01*
X182020802Y-107533261D01*
X182020690Y-107605179D01*
X182023487Y-107671178D01*
X182029190Y-107720247D01*
X182037797Y-107741374D01*
X182038698Y-107741528D01*
X182069680Y-107734941D01*
X182111578Y-107720912D01*
X182181342Y-107711114D01*
X182232818Y-107722444D01*
X182286172Y-107745659D01*
X182322524Y-107778613D01*
X182344913Y-107828564D01*
X182356377Y-107902771D01*
X182359955Y-108008491D01*
X182360000Y-108026203D01*
X182360000Y-108221907D01*
X182300000Y-108221907D01*
X182240000Y-108221907D01*
X182240000Y-108042226D01*
X182239211Y-107955786D01*
X182235478Y-107900218D01*
X182226745Y-107866373D01*
X182210958Y-107845100D01*
X182192699Y-107831529D01*
X182135074Y-107813160D01*
X182079778Y-107826155D01*
X182040426Y-107865947D01*
X182033006Y-107885107D01*
X182026721Y-107928157D01*
X182022152Y-107996547D01*
X182020275Y-108075590D01*
X182020273Y-108076792D01*
X182019452Y-108151585D01*
X182015361Y-108194921D01*
X182005030Y-108215374D01*
X181985488Y-108221519D01*
X181970000Y-108221907D01*
X181920000Y-108221907D01*
X181920000Y-107571394D01*
X181920000Y-107148890D01*
X182026478Y-107148890D01*
X182028186Y-107224764D01*
X182056318Y-107283436D01*
X182105623Y-107316681D01*
X182136461Y-107321197D01*
X182186294Y-107313019D01*
X182216000Y-107297178D01*
X182229886Y-107264332D01*
X182238551Y-107207366D01*
X182240000Y-107171079D01*
X182233606Y-107091635D01*
X182211684Y-107044477D01*
X182170118Y-107023522D01*
X182138448Y-107020961D01*
X182083224Y-107033607D01*
X182047313Y-107074886D01*
X182026478Y-107148890D01*
X181920000Y-107148890D01*
X181920000Y-106920882D01*
X181965999Y-106920882D01*
X182011868Y-106929754D01*
G37*
G36*
X184343381Y-103395601D02*
G01*
X184364972Y-103490848D01*
X184385164Y-103571820D01*
X184401818Y-103630470D01*
X184412797Y-103658750D01*
X184413495Y-103659592D01*
X184439551Y-103673940D01*
X184492792Y-103696803D01*
X184562414Y-103724166D01*
X184637613Y-103752013D01*
X184707582Y-103776328D01*
X184761518Y-103793098D01*
X184787070Y-103798424D01*
X184812296Y-103788308D01*
X184864147Y-103760620D01*
X184935545Y-103719349D01*
X185019412Y-103668487D01*
X185037349Y-103657333D01*
X185263288Y-103516242D01*
X185413992Y-103652329D01*
X185484015Y-103715144D01*
X185548394Y-103772162D01*
X185597793Y-103815149D01*
X185615574Y-103830138D01*
X185637386Y-103848002D01*
X185650194Y-103863661D01*
X185651493Y-103882897D01*
X185638775Y-103911492D01*
X185609534Y-103955228D01*
X185561263Y-104019886D01*
X185496645Y-104104452D01*
X185441804Y-104178361D01*
X185397461Y-104242141D01*
X185368612Y-104288343D01*
X185360000Y-104308326D01*
X185368076Y-104336479D01*
X185389735Y-104391228D01*
X185421125Y-104463141D01*
X185439999Y-104504158D01*
X185519999Y-104675008D01*
X185644999Y-104696427D01*
X185733438Y-104711390D01*
X185836378Y-104728534D01*
X185915000Y-104741446D01*
X186060000Y-104765047D01*
X186060000Y-105021937D01*
X186059708Y-105127370D01*
X186058081Y-105199505D01*
X186053987Y-105245074D01*
X186046296Y-105270808D01*
X186033876Y-105283440D01*
X186015597Y-105289702D01*
X186015000Y-105289849D01*
X185977190Y-105297652D01*
X185910298Y-105310095D01*
X185824704Y-105325285D01*
X185754613Y-105337321D01*
X185666723Y-105352764D01*
X185594617Y-105366510D01*
X185546693Y-105376889D01*
X185531322Y-105381724D01*
X185520538Y-105402317D01*
X185497725Y-105451555D01*
X185466600Y-105521288D01*
X185442075Y-105577428D01*
X185360732Y-105765180D01*
X185512735Y-105967657D01*
X185664737Y-106170134D01*
X185477368Y-106344846D01*
X185404752Y-106410836D01*
X185341093Y-106465494D01*
X185292762Y-106503574D01*
X185266128Y-106519827D01*
X185264655Y-106520062D01*
X185238750Y-106510104D01*
X185186692Y-106482589D01*
X185115929Y-106441677D01*
X185033913Y-106391524D01*
X185030288Y-106389250D01*
X184821266Y-106257932D01*
X184733875Y-106309186D01*
X184679589Y-106338774D01*
X184638233Y-106357290D01*
X184625705Y-106360441D01*
X184607182Y-106343517D01*
X184580899Y-106299777D01*
X184559913Y-106255358D01*
X184525535Y-106176792D01*
X184484963Y-106086422D01*
X184459176Y-106030181D01*
X184390246Y-105881370D01*
X184336659Y-105765023D01*
X184296735Y-105677376D01*
X184268794Y-105614669D01*
X184251156Y-105573138D01*
X184242139Y-105549023D01*
X184240000Y-105539440D01*
X184255450Y-105519511D01*
X184293938Y-105490039D01*
X184308067Y-105480943D01*
X184382343Y-105423771D01*
X184456608Y-105348223D01*
X184518646Y-105267971D01*
X184551943Y-105207967D01*
X184573674Y-105120249D01*
X184578469Y-105014546D01*
X184566799Y-104908919D01*
X184542053Y-104827618D01*
X184468426Y-104711865D01*
X184366086Y-104618224D01*
X184242273Y-104551265D01*
X184104229Y-104515553D01*
X184040000Y-104510903D01*
X183902941Y-104517516D01*
X183791256Y-104544700D01*
X183693808Y-104596676D01*
X183599460Y-104677662D01*
X183599218Y-104677905D01*
X183506365Y-104794255D01*
X183452333Y-104915667D01*
X183436696Y-105039475D01*
X183459026Y-105163013D01*
X183518897Y-105283612D01*
X183615882Y-105398605D01*
X183729328Y-105491461D01*
X183788656Y-105533103D01*
X183703724Y-105726156D01*
X183666767Y-105809098D01*
X183623520Y-105904490D01*
X183577167Y-106005505D01*
X183530891Y-106105319D01*
X183487876Y-106197106D01*
X183451305Y-106274040D01*
X183424363Y-106329297D01*
X183410233Y-106356051D01*
X183409352Y-106357253D01*
X183389657Y-106352767D01*
X183345288Y-106334094D01*
X183301627Y-106313099D01*
X183200218Y-106262124D01*
X182989314Y-106391345D01*
X182907023Y-106440878D01*
X182836561Y-106481632D01*
X182785158Y-106509539D01*
X182760044Y-106520534D01*
X182759561Y-106520567D01*
X182738398Y-106507825D01*
X182694076Y-106473007D01*
X182632799Y-106421222D01*
X182560767Y-106357582D01*
X182550355Y-106348179D01*
X182479014Y-106283155D01*
X182419855Y-106228441D01*
X182378446Y-106189246D01*
X182360358Y-106170780D01*
X182360000Y-106170106D01*
X182371334Y-106152809D01*
X182401603Y-106111483D01*
X182445206Y-106053715D01*
X182465478Y-106027245D01*
X182520331Y-105955289D01*
X182571380Y-105887256D01*
X182609379Y-105835492D01*
X182615588Y-105826779D01*
X182660220Y-105763487D01*
X182576427Y-105571034D01*
X182531927Y-105474421D01*
X182496674Y-105411502D01*
X182467884Y-105377793D01*
X182451316Y-105369421D01*
X182414045Y-105362261D01*
X182348459Y-105350681D01*
X182265732Y-105336629D01*
X182220000Y-105329051D01*
X182114387Y-105312472D01*
X182041629Y-105298768D01*
X181995830Y-105280875D01*
X181971096Y-105251733D01*
X181961532Y-105204279D01*
X181961245Y-105131452D01*
X181964339Y-105026190D01*
X181964413Y-105022854D01*
X181970000Y-104769188D01*
X182090000Y-104746121D01*
X182175207Y-104730362D01*
X182275846Y-104712631D01*
X182355563Y-104699182D01*
X182417064Y-104688754D01*
X182461985Y-104676946D01*
X182496095Y-104657687D01*
X182525165Y-104624910D01*
X182554966Y-104572543D01*
X182591269Y-104494517D01*
X182627082Y-104413587D01*
X182675669Y-104303637D01*
X182519912Y-104097287D01*
X182462283Y-104018416D01*
X182415880Y-103950044D01*
X182384964Y-103898824D01*
X182373799Y-103871408D01*
X182374119Y-103869700D01*
X182392205Y-103848931D01*
X182434323Y-103807678D01*
X182494347Y-103751757D01*
X182566153Y-103686982D01*
X182572243Y-103681574D01*
X182760404Y-103514686D01*
X182984195Y-103656555D01*
X183069211Y-103709308D01*
X183143324Y-103753170D01*
X183199440Y-103784092D01*
X183230463Y-103798030D01*
X183232947Y-103798424D01*
X183268094Y-103791411D01*
X183327065Y-103773042D01*
X183399459Y-103747318D01*
X183474877Y-103718239D01*
X183542920Y-103689809D01*
X183593188Y-103666029D01*
X183614985Y-103651422D01*
X183624736Y-103623725D01*
X183640255Y-103565286D01*
X183659425Y-103484608D01*
X183680128Y-103390197D01*
X183680569Y-103388100D01*
X183731139Y-103147911D01*
X184010456Y-103147911D01*
X184289773Y-103147911D01*
X184343381Y-103395601D01*
G37*
D12*
X140070000Y-91670000D02*
X141400000Y-91670000D01*
X140070000Y-93000000D02*
X140070000Y-91670000D01*
X140070000Y-94270000D02*
X140070000Y-96870000D01*
X140070000Y-94270000D02*
X142730000Y-94270000D01*
X140070000Y-96870000D02*
X142730000Y-96870000D01*
X142730000Y-94270000D02*
X142730000Y-96870000D01*
X110480000Y-92510000D02*
X111810000Y-92510000D01*
X110480000Y-93840000D02*
X110480000Y-92510000D01*
X110480000Y-95110000D02*
X110480000Y-107870000D01*
X110480000Y-95110000D02*
X113140000Y-95110000D01*
X110480000Y-107870000D02*
X113140000Y-107870000D01*
X113140000Y-95110000D02*
X113140000Y-107870000D01*
X155670000Y-91670000D02*
X157000000Y-91670000D01*
X155670000Y-93000000D02*
X155670000Y-91670000D01*
X155670000Y-94270000D02*
X155670000Y-96870000D01*
X155670000Y-94270000D02*
X158330000Y-94270000D01*
X155670000Y-96870000D02*
X158330000Y-96870000D01*
X158330000Y-94270000D02*
X158330000Y-96870000D01*
X161170000Y-91670000D02*
X162500000Y-91670000D01*
X161170000Y-93000000D02*
X161170000Y-91670000D01*
X161170000Y-94270000D02*
X161170000Y-96870000D01*
X161170000Y-94270000D02*
X163830000Y-94270000D01*
X161170000Y-96870000D02*
X163830000Y-96870000D01*
X163830000Y-94270000D02*
X163830000Y-96870000D01*
X156600000Y-77040000D02*
X156600000Y-75710000D01*
X157930000Y-77040000D02*
X156600000Y-77040000D01*
X159200000Y-74380000D02*
X161800000Y-74380000D01*
X159200000Y-77040000D02*
X159200000Y-74380000D01*
X159200000Y-77040000D02*
X161800000Y-77040000D01*
X161800000Y-77040000D02*
X161800000Y-74380000D01*
D14*
X114118000Y-80347000D02*
X114118000Y-90253000D01*
X114118000Y-90253000D02*
X184222000Y-90253000D01*
X184222000Y-80347000D02*
X114118000Y-80347000D01*
X184222000Y-90253000D02*
X184222000Y-80347000D01*
D12*
X103570000Y-103855000D02*
X103570000Y-103840000D01*
X103570000Y-105980000D02*
X103570000Y-105965000D01*
X108110000Y-103840000D02*
X103570000Y-103840000D01*
X108110000Y-103855000D02*
X108110000Y-103840000D01*
X108110000Y-105980000D02*
X103570000Y-105980000D01*
X108110000Y-105980000D02*
X108110000Y-105965000D01*
X117490000Y-97960000D02*
X181110000Y-97960000D01*
X117490000Y-100560000D02*
X117490000Y-97960000D01*
X117490000Y-103160000D02*
X117490000Y-101830000D01*
X118820000Y-103160000D02*
X117490000Y-103160000D01*
X120090000Y-100560000D02*
X117490000Y-100560000D01*
X120090000Y-103160000D02*
X120090000Y-100560000D01*
X120090000Y-103160000D02*
X181110000Y-103160000D01*
X181110000Y-103160000D02*
X181110000Y-97960000D01*
X95640000Y-90070000D02*
X96970000Y-90070000D01*
X95640000Y-91400000D02*
X95640000Y-90070000D01*
X95640000Y-92670000D02*
X95640000Y-100350000D01*
X95640000Y-92670000D02*
X98300000Y-92670000D01*
X95640000Y-100350000D02*
X98300000Y-100350000D01*
X98300000Y-92670000D02*
X98300000Y-100350000D01*
X138975000Y-77000000D02*
X138975000Y-75670000D01*
X140305000Y-77000000D02*
X138975000Y-77000000D01*
X141575000Y-74340000D02*
X146715000Y-74340000D01*
X141575000Y-77000000D02*
X141575000Y-74340000D01*
X141575000Y-77000000D02*
X146715000Y-77000000D01*
X146715000Y-77000000D02*
X146715000Y-74340000D01*
X150670000Y-91670000D02*
X152000000Y-91670000D01*
X150670000Y-93000000D02*
X150670000Y-91670000D01*
X150670000Y-94270000D02*
X150670000Y-96870000D01*
X150670000Y-94270000D02*
X153330000Y-94270000D01*
X150670000Y-96870000D02*
X153330000Y-96870000D01*
X153330000Y-94270000D02*
X153330000Y-96870000D01*
X178170000Y-91670000D02*
X179500000Y-91670000D01*
X178170000Y-93000000D02*
X178170000Y-91670000D01*
X178170000Y-94270000D02*
X178170000Y-96870000D01*
X178170000Y-94270000D02*
X180830000Y-94270000D01*
X178170000Y-96870000D02*
X180830000Y-96870000D01*
X180830000Y-94270000D02*
X180830000Y-96870000D01*
X188770000Y-99370000D02*
X188770000Y-96770000D01*
X191430000Y-96770000D02*
X188770000Y-96770000D01*
X191430000Y-99370000D02*
X188770000Y-99370000D01*
X191430000Y-99370000D02*
X191430000Y-96770000D01*
X191430000Y-100640000D02*
X191430000Y-101970000D01*
X191430000Y-101970000D02*
X190100000Y-101970000D01*
X189250000Y-86990000D02*
X189265000Y-86990000D01*
X189250000Y-91530000D02*
X189250000Y-86990000D01*
X189250000Y-91530000D02*
X189265000Y-91530000D01*
X191375000Y-86990000D02*
X191390000Y-86990000D01*
X191375000Y-91530000D02*
X191390000Y-91530000D01*
X191390000Y-91530000D02*
X191390000Y-86990000D01*
X172420000Y-91670000D02*
X173750000Y-91670000D01*
X172420000Y-93000000D02*
X172420000Y-91670000D01*
X172420000Y-94270000D02*
X172420000Y-96870000D01*
X172420000Y-94270000D02*
X175080000Y-94270000D01*
X172420000Y-96870000D02*
X175080000Y-96870000D01*
X175080000Y-94270000D02*
X175080000Y-96870000D01*
X145420000Y-91670000D02*
X146750000Y-91670000D01*
X145420000Y-93000000D02*
X145420000Y-91670000D01*
X145420000Y-94270000D02*
X145420000Y-96870000D01*
X145420000Y-94270000D02*
X148080000Y-94270000D01*
X145420000Y-96870000D02*
X148080000Y-96870000D01*
X148080000Y-94270000D02*
X148080000Y-96870000D01*
X126880000Y-75740000D02*
X127650000Y-75740000D01*
X127650000Y-74370000D02*
X127650000Y-77110000D01*
X127650000Y-77110000D02*
X134190000Y-77110000D01*
X134190000Y-74370000D02*
X127650000Y-74370000D01*
X134190000Y-77110000D02*
X134190000Y-74370000D01*
X134960000Y-75740000D02*
X134190000Y-75740000D01*
X166670000Y-91670000D02*
X168000000Y-91670000D01*
X166670000Y-93000000D02*
X166670000Y-91670000D01*
X166670000Y-94270000D02*
X166670000Y-96870000D01*
X166670000Y-94270000D02*
X169330000Y-94270000D01*
X166670000Y-96870000D02*
X169330000Y-96870000D01*
X169330000Y-94270000D02*
X169330000Y-96870000D01*
X170990000Y-74500000D02*
X170990000Y-77160000D01*
X173590000Y-74500000D02*
X170990000Y-74500000D01*
X173590000Y-74500000D02*
X173590000Y-77160000D01*
X173590000Y-77160000D02*
X170990000Y-77160000D01*
X174860000Y-74500000D02*
X176190000Y-74500000D01*
X176190000Y-74500000D02*
X176190000Y-75830000D01*
X101250000Y-84965000D02*
X101250000Y-102865000D01*
X101250000Y-102865000D02*
X106550000Y-102865000D01*
X102900000Y-84965000D02*
X101250000Y-84965000D01*
X106550000Y-84965000D02*
X104900000Y-84965000D01*
X106550000Y-102865000D02*
X106550000Y-84965000D01*
X104900000Y-84965000D02*
G75*
G02*
X102900000Y-84965000I-1000000J0D01*
G01*
%LPC*%
D15*
X116567000Y-112825000D02*
X172553000Y-112825000D01*
X172553000Y-120318000D01*
X116567000Y-120318000D01*
X116567000Y-112825000D01*
G36*
X116567000Y-112825000D02*
G01*
X172553000Y-112825000D01*
X172553000Y-120318000D01*
X116567000Y-120318000D01*
X116567000Y-112825000D01*
G37*
X174574000Y-112853500D02*
X182260000Y-112853500D01*
X182260000Y-120346500D01*
X174574000Y-120346500D01*
X174574000Y-112853500D01*
G36*
X174574000Y-112853500D02*
G01*
X182260000Y-112853500D01*
X182260000Y-120346500D01*
X174574000Y-120346500D01*
X174574000Y-112853500D01*
G37*
D16*
X116500000Y-75810000D03*
D17*
X119040000Y-75810000D03*
X121580000Y-75810000D03*
D16*
X150110000Y-75640000D03*
D17*
X152650000Y-75640000D03*
D18*
X185870000Y-101800000D03*
X185870000Y-96800000D03*
X168810000Y-76000000D03*
X163810000Y-76000000D03*
X104470000Y-77540000D03*
X104470000Y-82540000D03*
D16*
X141400000Y-93000000D03*
D17*
X141400000Y-95540000D03*
D16*
X111810000Y-93840000D03*
D17*
X111810000Y-96380000D03*
X111810000Y-98920000D03*
X111810000Y-101460000D03*
X111810000Y-104000000D03*
X111810000Y-106540000D03*
D16*
X157000000Y-93000000D03*
D17*
X157000000Y-95540000D03*
D16*
X162500000Y-93000000D03*
D17*
X162500000Y-95540000D03*
D16*
X157930000Y-75710000D03*
D17*
X160470000Y-75710000D03*
D19*
X118690000Y-87840000D03*
D20*
X121230000Y-87840000D03*
X123770000Y-87840000D03*
X126310000Y-87840000D03*
X128850000Y-87840000D03*
X131390000Y-87840000D03*
X133930000Y-87840000D03*
X136470000Y-87840000D03*
X139010000Y-87840000D03*
X141550000Y-87840000D03*
X144090000Y-87840000D03*
X146630000Y-87840000D03*
X149170000Y-87840000D03*
X151710000Y-87840000D03*
X154250000Y-87840000D03*
X156790000Y-87840000D03*
X159330000Y-87840000D03*
X161870000Y-87840000D03*
X164410000Y-87840000D03*
X166950000Y-87840000D03*
X169490000Y-87840000D03*
X172030000Y-87840000D03*
X174570000Y-87840000D03*
X177110000Y-87840000D03*
X179650000Y-87840000D03*
X179650000Y-82760000D03*
X177110000Y-82760000D03*
X174570000Y-82760000D03*
X172030000Y-82760000D03*
X169490000Y-82760000D03*
X166950000Y-82760000D03*
X164410000Y-82760000D03*
X161870000Y-82760000D03*
X159330000Y-82760000D03*
X156790000Y-82760000D03*
X154250000Y-82760000D03*
X151710000Y-82760000D03*
X149170000Y-82760000D03*
X146630000Y-82760000D03*
X144090000Y-82760000D03*
X141550000Y-82760000D03*
X139010000Y-82760000D03*
X136470000Y-82760000D03*
X133930000Y-82760000D03*
X131390000Y-82760000D03*
X128850000Y-82760000D03*
X126310000Y-82760000D03*
X123770000Y-82760000D03*
X121230000Y-82760000D03*
X118690000Y-82760000D03*
D18*
X108340000Y-104910000D03*
X103340000Y-104910000D03*
D16*
X118820000Y-101830000D03*
D17*
X118820000Y-99290000D03*
X121360000Y-101830000D03*
X121360000Y-99290000D03*
X123900000Y-101830000D03*
X123900000Y-99290000D03*
X126440000Y-101830000D03*
X126440000Y-99290000D03*
X128980000Y-101830000D03*
X128980000Y-99290000D03*
X131520000Y-101830000D03*
X131520000Y-99290000D03*
X134060000Y-101830000D03*
X134060000Y-99290000D03*
X136600000Y-101830000D03*
X136600000Y-99290000D03*
X139140000Y-101830000D03*
X139140000Y-99290000D03*
X141680000Y-101830000D03*
X141680000Y-99290000D03*
X144220000Y-101830000D03*
X144220000Y-99290000D03*
X146760000Y-101830000D03*
X146760000Y-99290000D03*
X149300000Y-101830000D03*
X149300000Y-99290000D03*
X151840000Y-101830000D03*
X151840000Y-99290000D03*
X154380000Y-101830000D03*
X154380000Y-99290000D03*
X156920000Y-101830000D03*
X156920000Y-99290000D03*
X159460000Y-101830000D03*
X159460000Y-99290000D03*
X162000000Y-101830000D03*
X162000000Y-99290000D03*
X164540000Y-101830000D03*
X164540000Y-99290000D03*
X167080000Y-101830000D03*
X167080000Y-99290000D03*
X169620000Y-101830000D03*
X169620000Y-99290000D03*
X172160000Y-101830000D03*
X172160000Y-99290000D03*
X174700000Y-101830000D03*
X174700000Y-99290000D03*
X177240000Y-101830000D03*
X177240000Y-99290000D03*
X179780000Y-101830000D03*
X179780000Y-99290000D03*
D16*
X96970000Y-91400000D03*
D17*
X96970000Y-93940000D03*
X96970000Y-96480000D03*
X96970000Y-99020000D03*
D16*
X140305000Y-75670000D03*
D17*
X142845000Y-75670000D03*
X145385000Y-75670000D03*
D16*
X152000000Y-93000000D03*
D17*
X152000000Y-95540000D03*
D16*
X179500000Y-93000000D03*
D17*
X179500000Y-95540000D03*
D16*
X190100000Y-100640000D03*
D17*
X190100000Y-98100000D03*
D18*
X190320000Y-91760000D03*
X190320000Y-86760000D03*
D16*
X173750000Y-93000000D03*
D17*
X173750000Y-95540000D03*
D16*
X146750000Y-93000000D03*
D17*
X146750000Y-95540000D03*
D18*
X136000000Y-75740000D03*
D21*
X125840000Y-75740000D03*
D16*
X168000000Y-93000000D03*
D17*
X168000000Y-95540000D03*
D16*
X174860000Y-75830000D03*
D17*
X172320000Y-75830000D03*
D22*
X100090000Y-86295000D03*
D21*
X100090000Y-88835000D03*
X100090000Y-91375000D03*
X100090000Y-93915000D03*
X100090000Y-96455000D03*
X100090000Y-98995000D03*
X100090000Y-101535000D03*
X107710000Y-101535000D03*
X107710000Y-98995000D03*
X107710000Y-96455000D03*
X107710000Y-93915000D03*
X107710000Y-91375000D03*
X107710000Y-88835000D03*
X107710000Y-86295000D03*
D23*
X118980000Y-116000000D03*
X121520000Y-116000000D03*
X124060000Y-116000000D03*
X126600000Y-116000000D03*
X129140000Y-116000000D03*
X131680000Y-116000000D03*
X134220000Y-116000000D03*
X136760000Y-116000000D03*
X139300000Y-116000000D03*
X141840000Y-116000000D03*
X144380000Y-116000000D03*
X146920000Y-116000000D03*
X149460000Y-116000000D03*
X152000000Y-116000000D03*
X154540000Y-116000000D03*
X157080000Y-116000000D03*
X159620000Y-116000000D03*
X162160000Y-116000000D03*
X164700000Y-116000000D03*
X167240000Y-116000000D03*
X169780000Y-116000000D03*
D24*
X172090000Y-116000000D03*
D25*
X175060000Y-116000000D03*
D23*
X177400000Y-116000000D03*
X179940000Y-116000000D03*
%LPD*%
M02*
