%TF.GenerationSoftware,KiCad,Pcbnew,8.0.4*%
%TF.CreationDate,2024-08-09T20:43:15+03:00*%
%TF.ProjectId,mpf-ii-bus-adapter,6d70662d-6969-42d6-9275-732d61646170,A*%
%TF.SameCoordinates,Original*%
%TF.FileFunction,Drillmap*%
%TF.FilePolarity,Positive*%
%FSLAX45Y45*%
G04 Gerber Fmt 4.5, Leading zero omitted, Abs format (unit mm)*
G04 Created by KiCad (PCBNEW 8.0.4) date 2024-08-09 20:43:15*
%MOMM*%
%LPD*%
G01*
G04 APERTURE LIST*
%ADD10C,0.150000*%
%ADD11C,0.050000*%
%ADD12C,0.200000*%
G04 APERTURE END LIST*
D10*
X19300000Y-7150000D02*
X19300000Y-11115000D01*
X11650000Y-11115000D02*
X9490000Y-11115000D01*
D11*
X9969078Y-7650000D02*
G75*
G02*
X9648922Y-7650000I-160078J0D01*
G01*
X9648922Y-7650000D02*
G75*
G02*
X9969078Y-7650000I160078J0D01*
G01*
D10*
X9490000Y-11115000D02*
X9490000Y-7150000D01*
X11657000Y-11143000D02*
X11650000Y-11115000D01*
D11*
X9970078Y-10739078D02*
G75*
G02*
X9649922Y-10739078I-160078J0D01*
G01*
X9649922Y-10739078D02*
G75*
G02*
X9970078Y-10739078I160078J0D01*
G01*
D10*
X19300000Y-11115000D02*
X18235000Y-11116000D01*
X18235300Y-11282500D02*
X18235000Y-11116000D01*
D11*
X19182578Y-10742500D02*
G75*
G02*
X18862422Y-10742500I-160078J0D01*
G01*
X18862422Y-10742500D02*
G75*
G02*
X19182578Y-10742500I160078J0D01*
G01*
X19207078Y-7650000D02*
G75*
G02*
X18886922Y-7650000I-160078J0D01*
G01*
X18886922Y-7650000D02*
G75*
G02*
X19207078Y-7650000I160078J0D01*
G01*
D10*
X11656700Y-11282500D02*
X11657000Y-11143000D01*
X9490000Y-7150000D02*
X19300000Y-7150000D01*
X11656700Y-11968300D02*
X11656700Y-11282500D01*
X11720200Y-12031800D02*
X11656700Y-11968300D01*
X17226000Y-12030000D02*
X11720200Y-12031800D01*
X17266000Y-11310000D02*
X17266000Y-11990000D01*
X17266000Y-11990000D02*
X17226000Y-12030000D01*
X17446000Y-11310000D02*
X17446000Y-11990000D01*
X17446000Y-11990000D02*
X17486000Y-12031800D01*
X18171800Y-12031800D02*
X17486000Y-12031800D01*
X18171800Y-12031800D02*
X18235300Y-11968300D01*
X18235300Y-11282500D02*
X18235300Y-11968300D01*
X17266000Y-11310000D02*
G75*
G02*
X17446000Y-11310000I90000J0D01*
G01*
D12*
X9743277Y-12350784D02*
X9743277Y-12150784D01*
X9743277Y-12150784D02*
X9790896Y-12150784D01*
X9790896Y-12150784D02*
X9819467Y-12160308D01*
X9819467Y-12160308D02*
X9838515Y-12179355D01*
X9838515Y-12179355D02*
X9848039Y-12198403D01*
X9848039Y-12198403D02*
X9857563Y-12236498D01*
X9857563Y-12236498D02*
X9857563Y-12265070D01*
X9857563Y-12265070D02*
X9848039Y-12303165D01*
X9848039Y-12303165D02*
X9838515Y-12322213D01*
X9838515Y-12322213D02*
X9819467Y-12341260D01*
X9819467Y-12341260D02*
X9790896Y-12350784D01*
X9790896Y-12350784D02*
X9743277Y-12350784D01*
X9943277Y-12350784D02*
X9943277Y-12217451D01*
X9943277Y-12255546D02*
X9952801Y-12236498D01*
X9952801Y-12236498D02*
X9962324Y-12226974D01*
X9962324Y-12226974D02*
X9981372Y-12217451D01*
X9981372Y-12217451D02*
X10000420Y-12217451D01*
X10067086Y-12350784D02*
X10067086Y-12217451D01*
X10067086Y-12150784D02*
X10057563Y-12160308D01*
X10057563Y-12160308D02*
X10067086Y-12169832D01*
X10067086Y-12169832D02*
X10076610Y-12160308D01*
X10076610Y-12160308D02*
X10067086Y-12150784D01*
X10067086Y-12150784D02*
X10067086Y-12169832D01*
X10190896Y-12350784D02*
X10171848Y-12341260D01*
X10171848Y-12341260D02*
X10162324Y-12322213D01*
X10162324Y-12322213D02*
X10162324Y-12150784D01*
X10295658Y-12350784D02*
X10276610Y-12341260D01*
X10276610Y-12341260D02*
X10267086Y-12322213D01*
X10267086Y-12322213D02*
X10267086Y-12150784D01*
X10524229Y-12350784D02*
X10524229Y-12150784D01*
X10524229Y-12150784D02*
X10590896Y-12293641D01*
X10590896Y-12293641D02*
X10657563Y-12150784D01*
X10657563Y-12150784D02*
X10657563Y-12350784D01*
X10838515Y-12350784D02*
X10838515Y-12246022D01*
X10838515Y-12246022D02*
X10828991Y-12226974D01*
X10828991Y-12226974D02*
X10809944Y-12217451D01*
X10809944Y-12217451D02*
X10771848Y-12217451D01*
X10771848Y-12217451D02*
X10752801Y-12226974D01*
X10838515Y-12341260D02*
X10819467Y-12350784D01*
X10819467Y-12350784D02*
X10771848Y-12350784D01*
X10771848Y-12350784D02*
X10752801Y-12341260D01*
X10752801Y-12341260D02*
X10743277Y-12322213D01*
X10743277Y-12322213D02*
X10743277Y-12303165D01*
X10743277Y-12303165D02*
X10752801Y-12284117D01*
X10752801Y-12284117D02*
X10771848Y-12274594D01*
X10771848Y-12274594D02*
X10819467Y-12274594D01*
X10819467Y-12274594D02*
X10838515Y-12265070D01*
X10933753Y-12217451D02*
X10933753Y-12417451D01*
X10933753Y-12226974D02*
X10952801Y-12217451D01*
X10952801Y-12217451D02*
X10990896Y-12217451D01*
X10990896Y-12217451D02*
X11009944Y-12226974D01*
X11009944Y-12226974D02*
X11019467Y-12236498D01*
X11019467Y-12236498D02*
X11028991Y-12255546D01*
X11028991Y-12255546D02*
X11028991Y-12312689D01*
X11028991Y-12312689D02*
X11019467Y-12331736D01*
X11019467Y-12331736D02*
X11009944Y-12341260D01*
X11009944Y-12341260D02*
X10990896Y-12350784D01*
X10990896Y-12350784D02*
X10952801Y-12350784D01*
X10952801Y-12350784D02*
X10933753Y-12341260D01*
X11114705Y-12331736D02*
X11124229Y-12341260D01*
X11124229Y-12341260D02*
X11114705Y-12350784D01*
X11114705Y-12350784D02*
X11105182Y-12341260D01*
X11105182Y-12341260D02*
X11114705Y-12331736D01*
X11114705Y-12331736D02*
X11114705Y-12350784D01*
X11114705Y-12226974D02*
X11124229Y-12236498D01*
X11124229Y-12236498D02*
X11114705Y-12246022D01*
X11114705Y-12246022D02*
X11105182Y-12236498D01*
X11105182Y-12236498D02*
X11114705Y-12226974D01*
X11114705Y-12226974D02*
X11114705Y-12246022D01*
M02*
