G04 #@! TF.GenerationSoftware,KiCad,Pcbnew,8.0.4*
G04 #@! TF.CreationDate,2024-08-09T20:42:02+03:00*
G04 #@! TF.ProjectId,mpf-ii-bus-adapter,6d70662d-6969-42d6-9275-732d61646170,A*
G04 #@! TF.SameCoordinates,Original*
G04 #@! TF.FileFunction,Soldermask,Bot*
G04 #@! TF.FilePolarity,Negative*
%FSLAX46Y46*%
G04 Gerber Fmt 4.6, Leading zero omitted, Abs format (unit mm)*
G04 Created by KiCad (PCBNEW 8.0.4) date 2024-08-09 20:42:02*
%MOMM*%
%LPD*%
G01*
G04 APERTURE LIST*
G04 Aperture macros list*
%AMRoundRect*
0 Rectangle with rounded corners*
0 $1 Rounding radius*
0 $2 $3 $4 $5 $6 $7 $8 $9 X,Y pos of 4 corners*
0 Add a 4 corners polygon primitive as box body*
4,1,4,$2,$3,$4,$5,$6,$7,$8,$9,$2,$3,0*
0 Add four circle primitives for the rounded corners*
1,1,$1+$1,$2,$3*
1,1,$1+$1,$4,$5*
1,1,$1+$1,$6,$7*
1,1,$1+$1,$8,$9*
0 Add four rect primitives between the rounded corners*
20,1,$1+$1,$2,$3,$4,$5,0*
20,1,$1+$1,$4,$5,$6,$7,0*
20,1,$1+$1,$6,$7,$8,$9,0*
20,1,$1+$1,$8,$9,$2,$3,0*%
G04 Aperture macros list end*
%ADD10C,0.050000*%
%ADD11R,1.700000X1.700000*%
%ADD12O,1.700000X1.700000*%
%ADD13C,1.600000*%
%ADD14R,1.800000X1.800000*%
%ADD15C,1.800000*%
%ADD16O,1.600000X1.600000*%
%ADD17R,1.600000X1.600000*%
%ADD18RoundRect,0.350000X0.350000X3.206000X-0.350000X3.206000X-0.350000X-3.206000X0.350000X-3.206000X0*%
%ADD19RoundRect,0.250000X0.250000X3.306000X-0.250000X3.306000X-0.250000X-3.306000X0.250000X-3.306000X0*%
%ADD20RoundRect,0.235000X0.235000X3.321000X-0.235000X3.321000X-0.235000X-3.321000X0.235000X-3.321000X0*%
G04 APERTURE END LIST*
D10*
X116694000Y-112825000D02*
X172553000Y-112825000D01*
X172553000Y-120318000D01*
X116694000Y-120318000D01*
X116694000Y-112825000D01*
G36*
X116694000Y-112825000D02*
G01*
X172553000Y-112825000D01*
X172553000Y-120318000D01*
X116694000Y-120318000D01*
X116694000Y-112825000D01*
G37*
X174601000Y-112853500D02*
X182260000Y-112853500D01*
X182260000Y-120346500D01*
X174601000Y-120346500D01*
X174601000Y-112853500D01*
G36*
X174601000Y-112853500D02*
G01*
X182260000Y-112853500D01*
X182260000Y-120346500D01*
X174601000Y-120346500D01*
X174601000Y-112853500D01*
G37*
D11*
X116500000Y-75810000D03*
D12*
X119040000Y-75810000D03*
X121580000Y-75810000D03*
D11*
X150110000Y-75640000D03*
D12*
X152650000Y-75640000D03*
D13*
X185870000Y-101800000D03*
X185870000Y-96800000D03*
X168810000Y-76000000D03*
X163810000Y-76000000D03*
X104470000Y-77540000D03*
X104470000Y-82540000D03*
D11*
X141400000Y-93000000D03*
D12*
X141400000Y-95540000D03*
D11*
X111810000Y-93840000D03*
D12*
X111810000Y-96380000D03*
X111810000Y-98920000D03*
X111810000Y-101460000D03*
X111810000Y-104000000D03*
X111810000Y-106540000D03*
D11*
X157000000Y-93000000D03*
D12*
X157000000Y-95540000D03*
D11*
X162500000Y-93000000D03*
D12*
X162500000Y-95540000D03*
D11*
X157930000Y-75710000D03*
D12*
X160470000Y-75710000D03*
D14*
X118690000Y-87840000D03*
D15*
X121230000Y-87840000D03*
X123770000Y-87840000D03*
X126310000Y-87840000D03*
X128850000Y-87840000D03*
X131390000Y-87840000D03*
X133930000Y-87840000D03*
X136470000Y-87840000D03*
X139010000Y-87840000D03*
X141550000Y-87840000D03*
X144090000Y-87840000D03*
X146630000Y-87840000D03*
X149170000Y-87840000D03*
X151710000Y-87840000D03*
X154250000Y-87840000D03*
X156790000Y-87840000D03*
X159330000Y-87840000D03*
X161870000Y-87840000D03*
X164410000Y-87840000D03*
X166950000Y-87840000D03*
X169490000Y-87840000D03*
X172030000Y-87840000D03*
X174570000Y-87840000D03*
X177110000Y-87840000D03*
X179650000Y-87840000D03*
X179650000Y-82760000D03*
X177110000Y-82760000D03*
X174570000Y-82760000D03*
X172030000Y-82760000D03*
X169490000Y-82760000D03*
X166950000Y-82760000D03*
X164410000Y-82760000D03*
X161870000Y-82760000D03*
X159330000Y-82760000D03*
X156790000Y-82760000D03*
X154250000Y-82760000D03*
X151710000Y-82760000D03*
X149170000Y-82760000D03*
X146630000Y-82760000D03*
X144090000Y-82760000D03*
X141550000Y-82760000D03*
X139010000Y-82760000D03*
X136470000Y-82760000D03*
X133930000Y-82760000D03*
X131390000Y-82760000D03*
X128850000Y-82760000D03*
X126310000Y-82760000D03*
X123770000Y-82760000D03*
X121230000Y-82760000D03*
X118690000Y-82760000D03*
D13*
X108340000Y-104910000D03*
X103340000Y-104910000D03*
D11*
X118820000Y-101830000D03*
D12*
X118820000Y-99290000D03*
X121360000Y-101830000D03*
X121360000Y-99290000D03*
X123900000Y-101830000D03*
X123900000Y-99290000D03*
X126440000Y-101830000D03*
X126440000Y-99290000D03*
X128980000Y-101830000D03*
X128980000Y-99290000D03*
X131520000Y-101830000D03*
X131520000Y-99290000D03*
X134060000Y-101830000D03*
X134060000Y-99290000D03*
X136600000Y-101830000D03*
X136600000Y-99290000D03*
X139140000Y-101830000D03*
X139140000Y-99290000D03*
X141680000Y-101830000D03*
X141680000Y-99290000D03*
X144220000Y-101830000D03*
X144220000Y-99290000D03*
X146760000Y-101830000D03*
X146760000Y-99290000D03*
X149300000Y-101830000D03*
X149300000Y-99290000D03*
X151840000Y-101830000D03*
X151840000Y-99290000D03*
X154380000Y-101830000D03*
X154380000Y-99290000D03*
X156920000Y-101830000D03*
X156920000Y-99290000D03*
X159460000Y-101830000D03*
X159460000Y-99290000D03*
X162000000Y-101830000D03*
X162000000Y-99290000D03*
X164540000Y-101830000D03*
X164540000Y-99290000D03*
X167080000Y-101830000D03*
X167080000Y-99290000D03*
X169620000Y-101830000D03*
X169620000Y-99290000D03*
X172160000Y-101830000D03*
X172160000Y-99290000D03*
X174700000Y-101830000D03*
X174700000Y-99290000D03*
X177240000Y-101830000D03*
X177240000Y-99290000D03*
X179780000Y-101830000D03*
X179780000Y-99290000D03*
D11*
X96970000Y-91400000D03*
D12*
X96970000Y-93940000D03*
X96970000Y-96480000D03*
X96970000Y-99020000D03*
D11*
X140305000Y-75670000D03*
D12*
X142845000Y-75670000D03*
X145385000Y-75670000D03*
D11*
X152000000Y-93000000D03*
D12*
X152000000Y-95540000D03*
D11*
X179500000Y-93000000D03*
D12*
X179500000Y-95540000D03*
D11*
X190100000Y-100640000D03*
D12*
X190100000Y-98100000D03*
D13*
X190320000Y-91760000D03*
X190320000Y-86760000D03*
D11*
X173750000Y-93000000D03*
D12*
X173750000Y-95540000D03*
D11*
X146750000Y-93000000D03*
D12*
X146750000Y-95540000D03*
D13*
X136000000Y-75740000D03*
D16*
X125840000Y-75740000D03*
D11*
X168000000Y-93000000D03*
D12*
X168000000Y-95540000D03*
D11*
X174860000Y-75830000D03*
D12*
X172320000Y-75830000D03*
D17*
X100090000Y-86295000D03*
D16*
X100090000Y-88835000D03*
X100090000Y-91375000D03*
X100090000Y-93915000D03*
X100090000Y-96455000D03*
X100090000Y-98995000D03*
X100090000Y-101535000D03*
X107710000Y-101535000D03*
X107710000Y-98995000D03*
X107710000Y-96455000D03*
X107710000Y-93915000D03*
X107710000Y-91375000D03*
X107710000Y-88835000D03*
X107710000Y-86295000D03*
D18*
X179940000Y-116000000D03*
X177400000Y-116000000D03*
D19*
X175060000Y-116000000D03*
D20*
X172090000Y-116000000D03*
D18*
X169780000Y-116000000D03*
X167240000Y-116000000D03*
X164700000Y-116000000D03*
X162160000Y-116000000D03*
X159620000Y-116000000D03*
X157080000Y-116000000D03*
X154540000Y-116000000D03*
X152000000Y-116000000D03*
X149460000Y-116000000D03*
X146920000Y-116000000D03*
X144380000Y-116000000D03*
X141840000Y-116000000D03*
X139300000Y-116000000D03*
X136760000Y-116000000D03*
X134220000Y-116000000D03*
X131680000Y-116000000D03*
X129140000Y-116000000D03*
X126600000Y-116000000D03*
X124060000Y-116000000D03*
X121520000Y-116000000D03*
X118980000Y-116000000D03*
M02*
